<?xml version="1.0" encoding="utf-8"?>
<!-- Generator: Adobe Illustrator 26.5.0, SVG Export Plug-In . SVG Version: 6.00 Build 0)  -->
<svg version="1.1" id="Layer_2" xmlns="http://www.w3.org/2000/svg" xmlns:xlink="http://www.w3.org/1999/xlink" x="0px" y="0px"
	 viewBox="0 0 1201.7 622.4" style="enable-background:new 0 0 1201.7 622.4;" xml:space="preserve">
<style type="text/css">
	.st0{fill:none;stroke:#000000;stroke-miterlimit:10;}
	.st1{fill:#6FC1BA;}
	.st2{fill:#FFFFFF;}
	.st3{fill:#DF5A73;}
	.st4{fill:#2D2264;}
	.st5{fill:#E05A73;}
</style>
<g>
	<path class="st0" d="M39.3,523.4c0,0,821.2,0,1057.9-427.6"/>
	<g>
		<circle class="st1" cx="912.4" cy="293.4" r="47"/>
		<g>
			<circle class="st2" cx="912.4" cy="293.4" r="39"/>
		</g>
	</g>
	<polyline class="st0" points="1068.9,107.4 1106.7,74.1 1113.5,128.3 	"/>
	<rect x="935.4" class="st3" width="262.8" height="47.8"/>
	<g>
		<path class="st2" d="M964.9,30.2v3.5h-12.1V16.4h11.9v3.5h-7.9v3.4h6.8v3.2h-6.8v3.7H964.9z"/>
		<path class="st2" d="M967.3,33.7V16.4h6.4c1.9,0,3.5,0.4,4.8,1.2c1.3,0.8,2.2,1.8,2.9,3.1c0.6,1.3,1,2.8,1,4.3
			c0,1.7-0.4,3.3-1.1,4.6c-0.7,1.3-1.7,2.3-3,3c-1.3,0.7-2.8,1.1-4.5,1.1H967.3z M978.3,25c0-1-0.2-1.9-0.5-2.7
			c-0.4-0.8-0.9-1.4-1.6-1.8s-1.5-0.6-2.5-0.6h-2.5v10.3h2.5c1,0,1.8-0.2,2.5-0.7c0.7-0.4,1.2-1.1,1.5-1.8
			C978.1,26.9,978.3,26,978.3,25z"/>
		<path class="st2" d="M992.1,33.8c-1.4,0-2.6-0.2-3.5-0.7c-1-0.5-1.8-1.1-2.4-1.9c-0.6-0.8-1.1-1.7-1.3-2.7c-0.3-1-0.4-2.1-0.4-3.2
			v-8.8h4v8.8c0,0.6,0.1,1.3,0.2,1.9s0.3,1.1,0.6,1.6c0.3,0.5,0.7,0.8,1.1,1.1s1,0.4,1.7,0.4c0.7,0,1.3-0.1,1.8-0.4
			c0.5-0.3,0.8-0.7,1.1-1.1c0.3-0.5,0.5-1,0.6-1.6c0.1-0.6,0.2-1.2,0.2-1.8v-8.8h4v8.8c0,1.2-0.1,2.3-0.4,3.3s-0.8,1.9-1.4,2.7
			c-0.6,0.8-1.4,1.4-2.4,1.8C994.6,33.6,993.5,33.8,992.1,33.8z"/>
		<path class="st2" d="M1001.9,24.9c0-1.1,0.2-2.1,0.6-3.1c0.4-1,1-1.9,1.7-2.8s1.7-1.5,2.7-2c1.1-0.5,2.3-0.7,3.6-0.7
			c1.6,0,3,0.3,4.2,1s2.1,1.6,2.7,2.7l-3.1,2.1c-0.3-0.6-0.6-1.1-1-1.4c-0.4-0.3-0.9-0.6-1.4-0.7c-0.5-0.1-1-0.2-1.5-0.2
			c-0.8,0-1.4,0.1-2,0.4c-0.6,0.3-1,0.7-1.4,1.2c-0.4,0.5-0.6,1.1-0.8,1.7c-0.2,0.6-0.3,1.2-0.3,1.8c0,0.7,0.1,1.3,0.3,2
			c0.2,0.6,0.5,1.2,0.9,1.7c0.4,0.5,0.9,0.9,1.4,1.2c0.6,0.3,1.2,0.4,1.9,0.4c0.5,0,1-0.1,1.5-0.2s1-0.4,1.4-0.8
			c0.4-0.3,0.8-0.8,1-1.4l3.3,1.9c-0.3,0.8-0.9,1.6-1.7,2.2s-1.7,1.1-2.6,1.4c-1,0.3-1.9,0.5-2.9,0.5c-1.2,0-2.4-0.3-3.4-0.8
			s-1.9-1.2-2.7-2s-1.3-1.8-1.8-2.9C1002.1,27.1,1001.9,26,1001.9,24.9z"/>
		<path class="st2" d="M1023.7,16.4h4.3l5.9,17.3h-4.1l-1.2-3.9h-5.7l-1.2,3.9h-4.1L1023.7,16.4z M1027.8,27.1l-2-6.6l-2,6.6H1027.8
			z"/>
		<path class="st2" d="M1033.9,24.9c0-1.1,0.2-2.1,0.6-3.1c0.4-1,1-1.9,1.7-2.8s1.7-1.5,2.7-2c1.1-0.5,2.3-0.7,3.6-0.7
			c1.6,0,3,0.3,4.2,1s2.1,1.6,2.7,2.7l-3.1,2.1c-0.3-0.6-0.6-1.1-1-1.4c-0.4-0.3-0.9-0.6-1.4-0.7c-0.5-0.1-1-0.2-1.5-0.2
			c-0.8,0-1.4,0.1-2,0.4c-0.6,0.3-1,0.7-1.4,1.2c-0.4,0.5-0.6,1.1-0.8,1.7c-0.2,0.6-0.3,1.2-0.3,1.8c0,0.7,0.1,1.3,0.3,2
			c0.2,0.6,0.5,1.2,0.9,1.7c0.4,0.5,0.9,0.9,1.4,1.2c0.6,0.3,1.2,0.4,1.9,0.4c0.5,0,1-0.1,1.5-0.2s1-0.4,1.4-0.8
			c0.4-0.3,0.8-0.8,1-1.4l3.3,1.9c-0.3,0.8-0.9,1.6-1.7,2.2s-1.7,1.1-2.6,1.4c-1,0.3-1.9,0.5-2.9,0.5c-1.2,0-2.4-0.3-3.4-0.8
			s-1.9-1.2-2.7-2s-1.3-1.8-1.8-2.9C1034.1,27.1,1033.9,26,1033.9,24.9z M1042.1,38.8c-0.5,0-0.9-0.1-1.4-0.2
			c-0.5-0.1-1-0.3-1.5-0.6l0.9-2c0.2,0.2,0.5,0.3,0.7,0.4c0.2,0.1,0.5,0.1,0.7,0.1c0.3,0,0.6-0.1,0.8-0.3c0.2-0.2,0.3-0.4,0.3-0.8
			c0-0.3-0.1-0.6-0.3-0.9c-0.2-0.3-0.5-0.6-0.9-0.9l1.3-0.8c0.6,0.4,1.2,0.9,1.6,1.4c0.4,0.5,0.6,1.1,0.6,1.9c0,0.7-0.2,1.3-0.7,1.8
			S1043,38.8,1042.1,38.8z"/>
		<path class="st2" d="M1055.7,16.4h4.3l5.9,17.3h-4.1l-1.2-3.9h-5.7l-1.2,3.9h-4.1L1055.7,16.4z M1059.5,14.9
			c-0.5,0-0.9-0.1-1.3-0.3c-0.4-0.2-0.7-0.4-1-0.6c-0.3-0.2-0.6-0.3-1-0.3c-0.4,0-0.6,0.1-0.8,0.3s-0.3,0.4-0.3,0.6
			c0,0.2-0.1,0.3-0.1,0.3h-2.1c0-0.2,0.1-0.5,0.2-0.8c0.1-0.4,0.3-0.8,0.5-1.2c0.3-0.4,0.6-0.7,1-1c0.4-0.3,0.9-0.4,1.4-0.4
			c0.5,0,0.9,0.1,1.3,0.3c0.3,0.2,0.6,0.4,0.9,0.6s0.6,0.3,1,0.3c0.4,0,0.7-0.1,0.8-0.3s0.3-0.4,0.3-0.6s0.1-0.3,0.1-0.3h2.1
			c0,0.1-0.1,0.4-0.2,0.7c-0.1,0.4-0.3,0.8-0.5,1.2s-0.6,0.8-1,1.1C1060.6,14.7,1060.1,14.9,1059.5,14.9z M1059.9,27.1l-2-6.6
			l-2,6.6H1059.9z"/>
		<path class="st2" d="M1074.5,33.8c-1.3,0-2.5-0.2-3.5-0.7c-1-0.5-1.9-1.2-2.7-2c-0.8-0.8-1.3-1.8-1.7-2.8c-0.4-1-0.6-2.1-0.6-3.2
			c0-1.2,0.2-2.2,0.6-3.3s1-2,1.8-2.8c0.8-0.8,1.7-1.5,2.7-1.9c1.1-0.5,2.2-0.7,3.5-0.7c1.3,0,2.4,0.2,3.5,0.7s1.9,1.2,2.7,2
			c0.8,0.8,1.3,1.8,1.7,2.8c0.4,1,0.6,2.1,0.6,3.2c0,1.2-0.2,2.2-0.6,3.3c-0.4,1-1,2-1.8,2.8c-0.8,0.8-1.7,1.5-2.7,1.9
			S1075.8,33.8,1074.5,33.8z M1070,25c0,0.7,0.1,1.3,0.3,1.9s0.5,1.2,0.9,1.7c0.4,0.5,0.9,0.9,1.4,1.2c0.6,0.3,1.2,0.4,1.9,0.4
			c0.8,0,1.4-0.1,2-0.4c0.6-0.3,1-0.7,1.4-1.2c0.4-0.5,0.7-1.1,0.8-1.7c0.2-0.6,0.3-1.3,0.3-1.9c0-0.7-0.1-1.3-0.3-1.9
			c-0.2-0.6-0.5-1.2-0.9-1.7s-0.9-0.9-1.4-1.2s-1.2-0.4-1.9-0.4c-0.8,0-1.4,0.1-2,0.4c-0.6,0.3-1,0.7-1.4,1.2s-0.7,1.1-0.9,1.7
			S1070,24.4,1070,25z"/>
		<path class="st2" d="M1091.1,33.7V16.4h6.4c1.9,0,3.5,0.4,4.8,1.2c1.3,0.8,2.2,1.8,2.9,3.1c0.6,1.3,1,2.8,1,4.3
			c0,1.7-0.4,3.3-1.1,4.6c-0.7,1.3-1.7,2.3-3,3c-1.3,0.7-2.8,1.1-4.5,1.1H1091.1z M1102.1,25c0-1-0.2-1.9-0.5-2.7
			c-0.4-0.8-0.9-1.4-1.6-1.8s-1.5-0.6-2.5-0.6h-2.5v10.3h2.5c1,0,1.8-0.2,2.5-0.7c0.7-0.4,1.2-1.1,1.5-1.8
			C1101.9,26.9,1102.1,26,1102.1,25z"/>
		<path class="st2" d="M1108.5,33.7V16.4h4v17.3H1108.5z"/>
		<path class="st2" d="M1123.1,33.8c-1.1,0-2.2-0.2-3.2-0.6c-1-0.4-1.9-1-2.6-1.8s-1.4-1.7-1.8-2.8c-0.4-1.1-0.6-2.3-0.6-3.6
			c0-1.2,0.2-2.3,0.7-3.4c0.4-1,1-2,1.8-2.7c0.8-0.8,1.7-1.4,2.7-1.9c1-0.4,2.2-0.7,3.4-0.7c1.6,0,3,0.3,4.2,1
			c1.2,0.7,2.1,1.6,2.7,2.7l-3,2.2c-0.4-0.8-1-1.4-1.7-1.8c-0.7-0.4-1.5-0.7-2.4-0.7c-0.6,0-1.2,0.1-1.8,0.4c-0.5,0.3-1,0.6-1.4,1.1
			c-0.4,0.5-0.7,1-0.9,1.7c-0.2,0.6-0.3,1.3-0.3,2c0,0.7,0.1,1.4,0.3,2.1c0.2,0.6,0.5,1.2,0.9,1.6c0.4,0.5,0.9,0.8,1.4,1.1
			c0.6,0.3,1.2,0.4,1.9,0.4c0.8,0,1.6-0.2,2.4-0.6s1.4-1,2.1-1.8v3.9C1126.5,33.1,1124.9,33.8,1123.1,33.8z M1127.6,27.5h-3.4v-2.9
			h6.7v9h-3.3V27.5z"/>
		<path class="st2" d="M1133.6,33.7V16.4h4v17.3H1133.6z"/>
		<path class="st2" d="M1154,19.9h-5.2v13.8h-4V19.9h-5.3v-3.5h14.5V19.9z"/>
		<path class="st2" d="M1158.7,16.4h4.3l5.9,17.3h-4.1l-1.2-3.9h-5.7l-1.2,3.9h-4.1L1158.7,16.4z M1162.8,27.1l-2-6.6l-2,6.6H1162.8
			z"/>
		<path class="st2" d="M1170.6,33.7V16.4h4v13.8h8.4v3.5H1170.6z"/>
	</g>
	<g>
		<path class="st4" d="M35.3,601.2h4l5.5,16H41l-1.1-3.6h-5.3l-1.1,3.6h-3.8L35.3,601.2z M39.1,611.1l-1.9-6.1l-1.9,6.1H39.1z"/>
		<path class="st4" d="M50,608.1v9.1h-3.7v-16h2.9l7.4,9.4v-9.4h3.7v16h-3L50,608.1z"/>
		<path class="st4" d="M75.6,604.5h-4.9v12.7H67v-12.7h-4.9v-3.2h13.4V604.5z"/>
		<path class="st4" d="M77.4,617.2v-16h3.7v16H77.4z"/>
		<path class="st4" d="M90.9,617.3c-1.1,0-2-0.2-3-0.6c-0.9-0.4-1.7-1-2.5-1.7c-0.7-0.7-1.3-1.6-1.7-2.6c-0.4-1-0.6-2.1-0.6-3.3
			c0-1.1,0.2-2.1,0.6-3.1c0.4-1,1-1.8,1.7-2.5c0.7-0.7,1.6-1.3,2.5-1.7c1-0.4,2-0.6,3.1-0.6c1.5,0,2.8,0.3,3.9,0.9
			c1.1,0.6,2,1.5,2.5,2.5l-2.7,2.1c-0.4-0.7-0.9-1.3-1.6-1.7c-0.7-0.4-1.4-0.6-2.2-0.6c-0.6,0-1.2,0.1-1.7,0.4
			c-0.5,0.2-0.9,0.6-1.3,1c-0.4,0.4-0.6,1-0.8,1.5c-0.2,0.6-0.3,1.2-0.3,1.9c0,0.7,0.1,1.3,0.3,1.9c0.2,0.6,0.5,1.1,0.9,1.5
			c0.4,0.4,0.8,0.8,1.3,1c0.5,0.2,1.1,0.4,1.7,0.4c0.8,0,1.5-0.2,2.2-0.6c0.7-0.4,1.3-0.9,1.9-1.7v3.6
			C94.1,616.7,92.6,617.3,90.9,617.3z M95.1,611.5H92v-2.7h6.2v8.3h-3.1V611.5z"/>
		<path class="st4" d="M107.5,617.3c-1.3,0-2.4-0.2-3.3-0.6c-0.9-0.4-1.6-1-2.2-1.8c-0.6-0.7-1-1.6-1.2-2.5c-0.3-1-0.4-2-0.4-3v-8.2
			h3.7v8.2c0,0.6,0.1,1.2,0.2,1.7c0.1,0.6,0.3,1.1,0.6,1.5c0.3,0.4,0.6,0.8,1,1c0.4,0.3,1,0.4,1.6,0.4c0.6,0,1.2-0.1,1.6-0.4
			c0.4-0.3,0.8-0.6,1-1.1c0.3-0.4,0.4-0.9,0.6-1.5c0.1-0.6,0.2-1.1,0.2-1.7v-8.2h3.7v8.2c0,1.1-0.1,2.1-0.4,3.1s-0.7,1.8-1.3,2.5
			s-1.3,1.3-2.2,1.7C109.8,617.1,108.7,617.3,107.5,617.3z"/>
		<path class="st4" d="M117.4,617.2v-16h3.7v16H117.4z"/>
		<path class="st4" d="M124.2,617.2v-16h6c1.8,0,3.2,0.4,4.4,1.1c1.2,0.7,2.1,1.7,2.7,2.9c0.6,1.2,0.9,2.5,0.9,4c0,1.6-0.3,3-1,4.2
			c-0.7,1.2-1.6,2.1-2.8,2.8c-1.2,0.7-2.6,1-4.2,1H124.2z M134.4,609.2c0-0.9-0.2-1.8-0.5-2.5c-0.3-0.7-0.8-1.3-1.4-1.7
			s-1.4-0.6-2.3-0.6h-2.3v9.5h2.3c0.9,0,1.7-0.2,2.3-0.6c0.6-0.4,1.1-1,1.4-1.7C134.2,610.9,134.4,610.1,134.4,609.2z"/>
		<path class="st4" d="M143.7,601.2h4l5.5,16h-3.8l-1.1-3.6H143l-1.1,3.6h-3.8L143.7,601.2z M147.5,611.1l-1.9-6.1l-1.9,6.1H147.5z"
			/>
		<path class="st4" d="M154.7,617.2v-16h6c1.8,0,3.2,0.4,4.4,1.1c1.2,0.7,2.1,1.7,2.7,2.9c0.6,1.2,0.9,2.5,0.9,4c0,1.6-0.3,3-1,4.2
			c-0.7,1.2-1.6,2.1-2.8,2.8c-1.2,0.7-2.6,1-4.2,1H154.7z M164.9,609.2c0-0.9-0.2-1.8-0.5-2.5c-0.3-0.7-0.8-1.3-1.4-1.7
			s-1.4-0.6-2.3-0.6h-2.3v9.5h2.3c0.9,0,1.7-0.2,2.3-0.6c0.6-0.4,1.1-1,1.4-1.7C164.8,610.9,164.9,610.1,164.9,609.2z"/>
		<path class="st4" d="M182.1,614v3.2h-11.2v-16h11v3.2h-7.3v3.1h6.3v3h-6.3v3.4H182.1z"/>
	</g>
	<g>
		<path class="st4" d="M239.8,586.8v3.2h-11.2v-16h11v3.2h-7.3v3.1h6.3v3h-6.3v3.4H239.8z"/>
		<path class="st4" d="M251.6,578.8c0-0.1-0.2-0.2-0.5-0.3c-0.3-0.2-0.6-0.3-1-0.5s-0.8-0.3-1.3-0.5s-1-0.2-1.4-0.2
			c-0.6,0-1.1,0.1-1.5,0.3c-0.3,0.2-0.5,0.5-0.5,1c0,0.4,0.1,0.6,0.4,0.8s0.6,0.4,1.1,0.5s1.1,0.3,1.8,0.5c1,0.3,1.9,0.6,2.7,1
			s1.3,0.9,1.7,1.5s0.6,1.4,0.6,2.4c0,0.9-0.2,1.7-0.5,2.3s-0.8,1.1-1.3,1.5c-0.6,0.4-1.2,0.7-1.9,0.8c-0.7,0.2-1.5,0.3-2.2,0.3
			c-0.8,0-1.6-0.1-2.4-0.2c-0.8-0.2-1.6-0.4-2.4-0.7s-1.4-0.6-2.1-1.1l1.6-3.2c0.1,0.1,0.3,0.2,0.6,0.4c0.3,0.2,0.7,0.4,1.2,0.6
			c0.5,0.2,1,0.4,1.6,0.6c0.6,0.2,1.2,0.2,1.8,0.2c0.7,0,1.2-0.1,1.5-0.3c0.3-0.2,0.5-0.5,0.5-0.9c0-0.4-0.2-0.7-0.5-0.9
			c-0.3-0.2-0.8-0.4-1.4-0.6c-0.6-0.2-1.2-0.4-2-0.6c-1-0.3-1.8-0.6-2.4-1c-0.6-0.4-1.1-0.8-1.4-1.4c-0.3-0.5-0.5-1.2-0.5-2
			c0-1.1,0.3-2.1,0.8-2.8c0.5-0.8,1.2-1.4,2.1-1.7c0.9-0.4,1.9-0.6,2.9-0.6c0.8,0,1.5,0.1,2.2,0.3c0.7,0.2,1.4,0.4,2,0.7
			s1.2,0.5,1.6,0.8L251.6,578.8z"/>
		<path class="st4" d="M254.9,581.9c0-1,0.2-1.9,0.5-2.9c0.4-0.9,0.9-1.8,1.6-2.6c0.7-0.8,1.5-1.4,2.5-1.8s2.1-0.7,3.4-0.7
			c1.5,0,2.8,0.3,3.9,1c1.1,0.6,1.9,1.5,2.5,2.5l-2.8,2c-0.2-0.6-0.6-1-1-1.3c-0.4-0.3-0.8-0.5-1.3-0.7s-0.9-0.2-1.4-0.2
			c-0.7,0-1.3,0.1-1.8,0.4c-0.5,0.3-1,0.6-1.3,1.1c-0.3,0.5-0.6,1-0.8,1.6s-0.2,1.1-0.2,1.7c0,0.6,0.1,1.2,0.3,1.8
			c0.2,0.6,0.5,1.1,0.8,1.6c0.4,0.5,0.8,0.8,1.3,1.1s1.1,0.4,1.7,0.4c0.4,0,0.9-0.1,1.4-0.2c0.5-0.1,0.9-0.4,1.3-0.7
			c0.4-0.3,0.7-0.7,0.9-1.3l3,1.8c-0.3,0.8-0.8,1.4-1.6,2c-0.7,0.6-1.5,1-2.4,1.3c-0.9,0.3-1.8,0.4-2.7,0.4c-1.2,0-2.2-0.2-3.2-0.7
			s-1.8-1.1-2.5-1.9c-0.7-0.8-1.2-1.7-1.6-2.7S254.9,583,254.9,581.9z"/>
		<path class="st4" d="M278.1,590.2c-1.2,0-2.3-0.2-3.3-0.7c-1-0.5-1.8-1.1-2.5-1.8c-0.7-0.8-1.2-1.6-1.6-2.6s-0.6-2-0.6-3
			c0-1.1,0.2-2.1,0.6-3c0.4-1,1-1.8,1.7-2.6c0.7-0.8,1.6-1.4,2.5-1.8c1-0.4,2-0.7,3.2-0.7c1.2,0,2.3,0.2,3.2,0.7s1.8,1.1,2.5,1.9
			c0.7,0.8,1.2,1.7,1.6,2.6c0.4,1,0.6,2,0.6,3c0,1.1-0.2,2.1-0.6,3c-0.4,1-0.9,1.8-1.7,2.6c-0.7,0.8-1.6,1.4-2.5,1.8
			C280.3,590,279.3,590.2,278.1,590.2z M273.9,582.1c0,0.6,0.1,1.2,0.3,1.8c0.2,0.6,0.4,1.1,0.8,1.5c0.4,0.4,0.8,0.8,1.3,1.1
			c0.5,0.3,1.1,0.4,1.8,0.4c0.7,0,1.3-0.1,1.8-0.4c0.5-0.3,1-0.6,1.3-1.1c0.3-0.5,0.6-1,0.8-1.6c0.2-0.6,0.3-1.2,0.3-1.8
			c0-0.6-0.1-1.2-0.3-1.8c-0.2-0.6-0.5-1.1-0.8-1.5c-0.4-0.5-0.8-0.8-1.3-1.1c-0.5-0.3-1.1-0.4-1.8-0.4c-0.7,0-1.3,0.1-1.8,0.4
			c-0.5,0.3-1,0.6-1.3,1.1c-0.4,0.5-0.6,1-0.8,1.6C274,580.9,273.9,581.5,273.9,582.1z"/>
		<path class="st4" d="M288.2,590.1v-16h3.7v12.7h7.7v3.2H288.2z"/>
		<path class="st4" d="M305.4,574.1h4l5.5,16h-3.8l-1.1-3.6h-5.3l-1.1,3.6h-3.8L305.4,574.1z M309.3,584l-1.9-6.1l-1.9,6.1H309.3z
			 M308.6,573.1l-2.3-0.6l1.2-2.9h3.3L308.6,573.1z"/>
		<path class="st4" d="M325.8,578.8c0-0.1-0.2-0.2-0.5-0.3c-0.3-0.2-0.6-0.3-1-0.5s-0.8-0.3-1.3-0.5s-1-0.2-1.4-0.2
			c-0.6,0-1.1,0.1-1.5,0.3c-0.3,0.2-0.5,0.5-0.5,1c0,0.4,0.1,0.6,0.4,0.8s0.6,0.4,1.1,0.5s1.1,0.3,1.8,0.5c1,0.3,1.9,0.6,2.7,1
			s1.3,0.9,1.7,1.5s0.6,1.4,0.6,2.4c0,0.9-0.2,1.7-0.5,2.3s-0.8,1.1-1.3,1.5c-0.6,0.4-1.2,0.7-1.9,0.8c-0.7,0.2-1.5,0.3-2.2,0.3
			c-0.8,0-1.6-0.1-2.4-0.2c-0.8-0.2-1.6-0.4-2.4-0.7s-1.4-0.6-2.1-1.1l1.6-3.2c0.1,0.1,0.3,0.2,0.6,0.4c0.3,0.2,0.7,0.4,1.2,0.6
			c0.5,0.2,1,0.4,1.6,0.6c0.6,0.2,1.2,0.2,1.8,0.2c0.7,0,1.2-0.1,1.5-0.3c0.3-0.2,0.5-0.5,0.5-0.9c0-0.4-0.2-0.7-0.5-0.9
			c-0.3-0.2-0.8-0.4-1.4-0.6c-0.6-0.2-1.2-0.4-2-0.6c-1-0.3-1.8-0.6-2.4-1c-0.6-0.4-1.1-0.8-1.4-1.4c-0.3-0.5-0.5-1.2-0.5-2
			c0-1.1,0.3-2.1,0.8-2.8c0.5-0.8,1.2-1.4,2.1-1.7c0.9-0.4,1.9-0.6,2.9-0.6c0.8,0,1.5,0.1,2.2,0.3c0.7,0.2,1.4,0.4,2,0.7
			s1.2,0.5,1.6,0.8L325.8,578.8z"/>
		<path class="st4" d="M342.3,577.3h-4.9v12.7h-3.7v-12.7h-4.9v-3.2h13.4V577.3z"/>
		<path class="st4" d="M344.1,590.1v-16h3.7v16H344.1z"/>
		<path class="st4" d="M349.9,581.9c0-1,0.2-1.9,0.5-2.9c0.4-0.9,0.9-1.8,1.6-2.6c0.7-0.8,1.5-1.4,2.5-1.8s2.1-0.7,3.4-0.7
			c1.5,0,2.8,0.3,3.9,1c1.1,0.6,1.9,1.5,2.5,2.5l-2.8,2c-0.2-0.6-0.6-1-1-1.3c-0.4-0.3-0.8-0.5-1.3-0.7s-0.9-0.2-1.4-0.2
			c-0.7,0-1.3,0.1-1.8,0.4c-0.5,0.3-1,0.6-1.3,1.1c-0.3,0.5-0.6,1-0.8,1.6s-0.2,1.1-0.2,1.7c0,0.6,0.1,1.2,0.3,1.8
			c0.2,0.6,0.5,1.1,0.8,1.6c0.4,0.5,0.8,0.8,1.3,1.1s1.1,0.4,1.7,0.4c0.4,0,0.9-0.1,1.4-0.2c0.5-0.1,0.9-0.4,1.3-0.7
			c0.4-0.3,0.7-0.7,0.9-1.3l3,1.8c-0.3,0.8-0.8,1.4-1.6,2c-0.7,0.6-1.5,1-2.4,1.3c-0.9,0.3-1.8,0.4-2.7,0.4c-1.2,0-2.2-0.2-3.2-0.7
			s-1.8-1.1-2.5-1.9c-0.7-0.8-1.2-1.7-1.6-2.7S349.9,583,349.9,581.9z"/>
		<path class="st4" d="M370.1,574.1h4l5.5,16h-3.8l-1.1-3.6h-5.3l-1.1,3.6h-3.8L370.1,574.1z M373.9,584l-1.9-6.1l-1.9,6.1H373.9z"
			/>
	</g>
	<g>
		<path class="st4" d="M428,551.8c0-1,0.2-1.9,0.5-2.9c0.4-0.9,0.9-1.8,1.6-2.6c0.7-0.8,1.5-1.4,2.5-1.8c1-0.5,2.1-0.7,3.4-0.7
			c1.5,0,2.8,0.3,3.9,1c1.1,0.6,1.9,1.5,2.5,2.5l-2.8,2c-0.2-0.6-0.6-1-1-1.3c-0.4-0.3-0.8-0.5-1.3-0.7c-0.5-0.1-0.9-0.2-1.4-0.2
			c-0.7,0-1.3,0.1-1.8,0.4c-0.5,0.3-1,0.6-1.3,1.1c-0.3,0.5-0.6,1-0.8,1.6s-0.2,1.1-0.2,1.7c0,0.6,0.1,1.2,0.3,1.8
			c0.2,0.6,0.5,1.1,0.8,1.6c0.4,0.5,0.8,0.8,1.3,1.1s1.1,0.4,1.7,0.4c0.4,0,0.9-0.1,1.4-0.2c0.5-0.2,0.9-0.4,1.3-0.7
			c0.4-0.3,0.7-0.7,0.9-1.3l3,1.8c-0.3,0.8-0.8,1.4-1.6,2c-0.7,0.6-1.5,1-2.4,1.3c-0.9,0.3-1.8,0.4-2.7,0.4c-1.2,0-2.2-0.2-3.2-0.7
			s-1.8-1.1-2.5-1.9c-0.7-0.8-1.2-1.7-1.6-2.7C428.2,553.8,428,552.8,428,551.8z"/>
		<path class="st4" d="M451.2,560.1c-1.2,0-2.3-0.2-3.3-0.7s-1.8-1.1-2.5-1.8c-0.7-0.8-1.2-1.6-1.6-2.6s-0.6-2-0.6-3
			c0-1.1,0.2-2.1,0.6-3s1-1.8,1.7-2.6s1.6-1.4,2.5-1.8s2-0.7,3.2-0.7c1.2,0,2.3,0.2,3.2,0.7c1,0.5,1.8,1.1,2.5,1.9
			c0.7,0.8,1.2,1.7,1.6,2.6c0.4,1,0.6,2,0.6,3c0,1.1-0.2,2.1-0.6,3c-0.4,1-0.9,1.8-1.7,2.6c-0.7,0.8-1.6,1.4-2.5,1.8
			S452.4,560.1,451.2,560.1z M447,552c0,0.6,0.1,1.2,0.3,1.8c0.2,0.6,0.4,1.1,0.8,1.5c0.4,0.5,0.8,0.8,1.3,1.1
			c0.5,0.3,1.1,0.4,1.8,0.4c0.7,0,1.3-0.1,1.8-0.4s1-0.6,1.3-1.1c0.3-0.5,0.6-1,0.8-1.6c0.2-0.6,0.3-1.2,0.3-1.8
			c0-0.6-0.1-1.2-0.3-1.8c-0.2-0.6-0.5-1.1-0.8-1.5s-0.8-0.8-1.3-1.1c-0.5-0.3-1.1-0.4-1.8-0.4c-0.7,0-1.3,0.1-1.8,0.4
			s-1,0.6-1.3,1.1c-0.4,0.5-0.6,1-0.8,1.6C447.1,550.8,447,551.4,447,552z"/>
		<path class="st4" d="M461.3,560v-16h3.7v12.7h7.7v3.2H461.3z"/>
		<path class="st4" d="M485.7,556.7v3.2h-11.2v-16h11v3.2h-7.3v3.1h6.3v3h-6.3v3.4H485.7z"/>
		<path class="st4" d="M494.5,560.1c-1.1,0-2-0.2-3-0.6c-0.9-0.4-1.7-1-2.5-1.7c-0.7-0.7-1.3-1.6-1.7-2.6c-0.4-1-0.6-2.1-0.6-3.3
			c0-1.1,0.2-2.1,0.6-3.1c0.4-1,1-1.8,1.7-2.5c0.7-0.7,1.6-1.3,2.5-1.7c1-0.4,2-0.6,3.1-0.6c1.5,0,2.8,0.3,3.9,0.9
			c1.1,0.6,2,1.5,2.5,2.5l-2.7,2.1c-0.4-0.7-0.9-1.3-1.6-1.7c-0.7-0.4-1.4-0.6-2.2-0.6c-0.6,0-1.2,0.1-1.7,0.4
			c-0.5,0.2-0.9,0.6-1.3,1c-0.4,0.4-0.6,1-0.8,1.5c-0.2,0.6-0.3,1.2-0.3,1.9c0,0.7,0.1,1.3,0.3,1.9c0.2,0.6,0.5,1.1,0.9,1.5
			s0.8,0.8,1.3,1c0.5,0.2,1.1,0.4,1.7,0.4c0.8,0,1.5-0.2,2.2-0.6c0.7-0.4,1.3-0.9,1.9-1.7v3.6C497.6,559.4,496.1,560.1,494.5,560.1z
			 M498.7,554.3h-3.1v-2.7h6.2v8.3h-3.1V554.3z"/>
		<path class="st4" d="M504.2,560v-16h3.7v16H504.2z"/>
		<path class="st4" d="M514.9,544h4l5.5,16h-3.8l-1.1-3.6h-5.3l-1.1,3.6h-3.8L514.9,544z M518.8,553.8l-1.9-6.1l-1.9,6.1H518.8z"/>
		<path class="st4" d="M526,560v-16h6c1.8,0,3.2,0.4,4.4,1.1s2.1,1.7,2.7,2.9c0.6,1.2,0.9,2.5,0.9,4c0,1.6-0.3,3-1,4.2
			c-0.7,1.2-1.6,2.1-2.8,2.8c-1.2,0.7-2.6,1-4.2,1H526z M536.2,552c0-0.9-0.2-1.8-0.5-2.5s-0.8-1.3-1.4-1.7
			c-0.6-0.4-1.4-0.6-2.3-0.6h-2.3v9.5h2.3c0.9,0,1.7-0.2,2.3-0.6c0.6-0.4,1.1-1,1.4-1.7C536,553.7,536.2,552.9,536.2,552z"/>
		<path class="st4" d="M549.1,560.1c-1.2,0-2.3-0.2-3.3-0.7s-1.8-1.1-2.5-1.8c-0.7-0.8-1.2-1.6-1.6-2.6s-0.6-2-0.6-3
			c0-1.1,0.2-2.1,0.6-3s1-1.8,1.7-2.6s1.6-1.4,2.5-1.8s2-0.7,3.2-0.7c1.2,0,2.3,0.2,3.2,0.7c1,0.5,1.8,1.1,2.5,1.9
			c0.7,0.8,1.2,1.7,1.6,2.6c0.4,1,0.6,2,0.6,3c0,1.1-0.2,2.1-0.6,3c-0.4,1-0.9,1.8-1.7,2.6c-0.7,0.8-1.6,1.4-2.5,1.8
			S550.3,560.1,549.1,560.1z M544.9,552c0,0.6,0.1,1.2,0.3,1.8c0.2,0.6,0.4,1.1,0.8,1.5c0.4,0.5,0.8,0.8,1.3,1.1
			c0.5,0.3,1.1,0.4,1.8,0.4c0.7,0,1.3-0.1,1.8-0.4s1-0.6,1.3-1.1c0.3-0.5,0.6-1,0.8-1.6c0.2-0.6,0.3-1.2,0.3-1.8
			c0-0.6-0.1-1.2-0.3-1.8c-0.2-0.6-0.5-1.1-0.8-1.5s-0.8-0.8-1.3-1.1c-0.5-0.3-1.1-0.4-1.8-0.4c-0.7,0-1.3,0.1-1.8,0.4
			s-1,0.6-1.3,1.1c-0.4,0.5-0.6,1-0.8,1.6C545,550.8,544.9,551.4,544.9,552z"/>
	</g>
	<g>
		<path class="st4" d="M612.8,515.7v3.2h-11.2v-16h11v3.2h-7.3v3.1h6.3v3h-6.3v3.4H612.8z"/>
		<path class="st4" d="M624.6,507.7c0-0.1-0.2-0.2-0.5-0.3c-0.3-0.2-0.6-0.3-1-0.5c-0.4-0.2-0.8-0.3-1.3-0.5c-0.5-0.1-1-0.2-1.4-0.2
			c-0.6,0-1.1,0.1-1.5,0.3c-0.3,0.2-0.5,0.5-0.5,1c0,0.4,0.1,0.6,0.4,0.8c0.3,0.2,0.6,0.4,1.1,0.5s1.1,0.3,1.8,0.5
			c1,0.3,1.9,0.6,2.7,1c0.8,0.4,1.3,0.9,1.7,1.5c0.4,0.6,0.6,1.4,0.6,2.4c0,0.9-0.2,1.7-0.5,2.3s-0.8,1.1-1.3,1.5s-1.2,0.7-1.9,0.8
			c-0.7,0.2-1.5,0.3-2.2,0.3c-0.8,0-1.6-0.1-2.4-0.2c-0.8-0.2-1.6-0.4-2.4-0.7c-0.8-0.3-1.4-0.6-2.1-1.1l1.6-3.2
			c0.1,0.1,0.3,0.2,0.6,0.4c0.3,0.2,0.7,0.4,1.2,0.6s1,0.4,1.6,0.6c0.6,0.2,1.2,0.2,1.8,0.2c0.7,0,1.2-0.1,1.5-0.3
			c0.3-0.2,0.5-0.5,0.5-0.9c0-0.4-0.2-0.7-0.5-0.9c-0.3-0.2-0.8-0.4-1.4-0.6c-0.6-0.2-1.2-0.4-2-0.6c-1-0.3-1.8-0.6-2.4-1
			c-0.6-0.4-1.1-0.8-1.4-1.4c-0.3-0.5-0.5-1.2-0.5-2c0-1.1,0.3-2.1,0.8-2.8c0.5-0.8,1.2-1.4,2.1-1.7s1.9-0.6,2.9-0.6
			c0.8,0,1.5,0.1,2.2,0.3c0.7,0.2,1.4,0.4,2,0.7c0.6,0.3,1.2,0.5,1.6,0.8L624.6,507.7z"/>
		<path class="st4" d="M628,510.8c0-1,0.2-1.9,0.5-2.9c0.4-0.9,0.9-1.8,1.6-2.6c0.7-0.8,1.5-1.4,2.5-1.8c1-0.5,2.1-0.7,3.4-0.7
			c1.5,0,2.8,0.3,3.9,1c1.1,0.6,1.9,1.5,2.5,2.5l-2.8,2c-0.2-0.6-0.6-1-1-1.3s-0.8-0.5-1.3-0.7c-0.5-0.1-0.9-0.2-1.4-0.2
			c-0.7,0-1.3,0.1-1.8,0.4c-0.5,0.3-1,0.6-1.3,1.1c-0.3,0.5-0.6,1-0.8,1.6c-0.2,0.6-0.2,1.1-0.2,1.7c0,0.6,0.1,1.2,0.3,1.8
			c0.2,0.6,0.5,1.1,0.8,1.6c0.4,0.5,0.8,0.8,1.3,1.1s1.1,0.4,1.7,0.4c0.4,0,0.9-0.1,1.4-0.2c0.5-0.1,0.9-0.4,1.3-0.7
			c0.4-0.3,0.7-0.7,0.9-1.3l3,1.8c-0.3,0.8-0.8,1.4-1.6,2c-0.7,0.6-1.5,1-2.4,1.3c-0.9,0.3-1.8,0.4-2.7,0.4c-1.2,0-2.2-0.2-3.2-0.7
			s-1.8-1.1-2.5-1.9c-0.7-0.8-1.2-1.7-1.6-2.7C628.2,512.8,628,511.8,628,510.8z"/>
		<path class="st4" d="M651.1,519.1c-1.2,0-2.3-0.2-3.3-0.7s-1.8-1.1-2.5-1.8c-0.7-0.8-1.2-1.6-1.6-2.6s-0.6-2-0.6-3
			c0-1.1,0.2-2.1,0.6-3s1-1.8,1.7-2.6c0.7-0.8,1.6-1.4,2.5-1.8c1-0.4,2-0.7,3.2-0.7c1.2,0,2.3,0.2,3.2,0.7c1,0.5,1.8,1.1,2.5,1.9
			c0.7,0.8,1.2,1.7,1.6,2.6c0.4,1,0.6,2,0.6,3c0,1.1-0.2,2.1-0.6,3c-0.4,1-0.9,1.8-1.7,2.6c-0.7,0.8-1.6,1.4-2.5,1.8
			S652.3,519.1,651.1,519.1z M647,511c0,0.6,0.1,1.2,0.3,1.8c0.2,0.6,0.4,1.1,0.8,1.5c0.4,0.5,0.8,0.8,1.3,1.1
			c0.5,0.3,1.1,0.4,1.8,0.4c0.7,0,1.3-0.1,1.8-0.4c0.5-0.3,1-0.6,1.3-1.1c0.3-0.5,0.6-1,0.8-1.6c0.2-0.6,0.3-1.2,0.3-1.8
			c0-0.6-0.1-1.2-0.3-1.8c-0.2-0.6-0.5-1.1-0.8-1.5c-0.4-0.5-0.8-0.8-1.3-1.1s-1.1-0.4-1.8-0.4c-0.7,0-1.3,0.1-1.8,0.4
			c-0.5,0.3-1,0.6-1.3,1.1c-0.4,0.5-0.6,1-0.8,1.6C647.1,509.8,647,510.4,647,511z"/>
		<path class="st4" d="M661.3,519v-16h3.7v12.7h7.7v3.2H661.3z"/>
		<path class="st4" d="M678.4,503h4l5.5,16h-3.8l-1.1-3.6h-5.3l-1.1,3.6h-3.8L678.4,503z M682.3,512.8l-1.9-6.1l-1.9,6.1H682.3z"/>
	</g>
	<g>
		<path class="st4" d="M774.1,447.7c0-0.1-0.2-0.2-0.5-0.3c-0.3-0.2-0.6-0.3-1-0.5c-0.4-0.2-0.8-0.3-1.3-0.5s-1-0.2-1.4-0.2
			c-0.6,0-1.1,0.1-1.5,0.3c-0.3,0.2-0.5,0.5-0.5,1c0,0.4,0.1,0.6,0.4,0.8c0.3,0.2,0.6,0.4,1.1,0.5c0.5,0.2,1.1,0.3,1.8,0.5
			c1,0.3,1.9,0.6,2.7,1s1.3,0.9,1.7,1.5c0.4,0.6,0.6,1.4,0.6,2.4c0,0.9-0.2,1.7-0.5,2.3c-0.3,0.6-0.8,1.1-1.3,1.5s-1.2,0.7-1.9,0.8
			c-0.7,0.2-1.5,0.3-2.2,0.3c-0.8,0-1.6-0.1-2.4-0.2c-0.8-0.2-1.6-0.4-2.4-0.7c-0.8-0.3-1.4-0.6-2.1-1.1l1.6-3.2
			c0.1,0.1,0.3,0.2,0.6,0.4c0.3,0.2,0.7,0.4,1.2,0.6s1,0.4,1.6,0.6c0.6,0.2,1.2,0.2,1.8,0.2c0.7,0,1.2-0.1,1.5-0.3
			c0.3-0.2,0.5-0.5,0.5-0.9c0-0.4-0.2-0.7-0.5-0.9c-0.3-0.2-0.8-0.4-1.4-0.6c-0.6-0.2-1.2-0.4-2-0.6c-1-0.3-1.8-0.6-2.4-1
			c-0.6-0.4-1.1-0.8-1.4-1.4c-0.3-0.5-0.5-1.2-0.5-2c0-1.1,0.3-2.1,0.8-2.8c0.5-0.8,1.2-1.3,2.1-1.7s1.9-0.6,2.9-0.6
			c0.8,0,1.5,0.1,2.2,0.3c0.7,0.2,1.4,0.4,2,0.7c0.6,0.3,1.2,0.5,1.6,0.8L774.1,447.7z"/>
		<path class="st4" d="M782,443h4l5.5,16h-3.8l-1.1-3.6h-5.3l-1.1,3.6h-3.8L782,443z M785.8,452.8l-1.9-6.1l-1.9,6.1H785.8z"/>
		<path class="st4" d="M793,458.9v-16h3.7v12.7h7.7v3.2H793z"/>
		<path class="st4" d="M810.2,443h4l5.5,16h-3.8l-1.1-3.6h-5.3l-1.1,3.6h-3.8L810.2,443z M814,452.8l-1.9-6.1l-1.9,6.1H814z"/>
		<path class="st4" d="M825.8,458.9v-16h6c1.8,0,3.2,0.4,4.4,1.1s2.1,1.7,2.7,2.9c0.6,1.2,0.9,2.5,0.9,4c0,1.6-0.3,3-1,4.2
			c-0.7,1.2-1.6,2.1-2.8,2.8c-1.2,0.7-2.6,1-4.2,1H825.8z M836,450.9c0-0.9-0.2-1.8-0.5-2.5s-0.8-1.3-1.4-1.7
			c-0.6-0.4-1.4-0.6-2.3-0.6h-2.3v9.5h2.3c0.9,0,1.7-0.2,2.3-0.6c0.6-0.4,1.1-1,1.4-1.7C835.8,452.6,836,451.8,836,450.9z"/>
		<path class="st4" d="M853.2,455.7v3.2h-11.2v-16h11v3.2h-7.3v3.1h6.3v3h-6.3v3.4H853.2z"/>
		<path class="st4" d="M864,443h4l5.5,16h-3.8l-1.1-3.6h-5.3l-1.1,3.6h-3.8L864,443z M867.9,452.8l-1.9-6.1l-1.9,6.1H867.9z"/>
		<path class="st4" d="M881.3,459.1c-1.3,0-2.4-0.2-3.3-0.6c-0.9-0.4-1.6-1-2.2-1.8c-0.6-0.7-1-1.6-1.2-2.5c-0.3-1-0.4-2-0.4-3V443
			h3.7v8.2c0,0.6,0.1,1.2,0.2,1.7c0.1,0.6,0.3,1.1,0.6,1.5c0.3,0.4,0.6,0.8,1,1c0.4,0.3,1,0.4,1.6,0.4c0.6,0,1.2-0.1,1.6-0.4
			c0.4-0.3,0.8-0.6,1-1.1c0.3-0.4,0.4-0.9,0.6-1.5c0.1-0.6,0.2-1.1,0.2-1.7V443h3.7v8.2c0,1.1-0.1,2.1-0.4,3.1s-0.7,1.8-1.3,2.5
			s-1.3,1.3-2.2,1.7S882.5,459.1,881.3,459.1z"/>
		<path class="st4" d="M891.2,458.9v-16h3.7v12.7h7.7v3.2H891.2z"/>
		<path class="st4" d="M908.4,443h4l5.5,16h-3.8l-1.1-3.6h-5.3l-1.1,3.6h-3.8L908.4,443z M912.3,452.8l-1.9-6.1l-1.9,6.1H912.3z"/>
	</g>
	<g>
		<path class="st4" d="M912.2,376.4v-16h6.8c0.8,0,1.5,0.2,2.1,0.5c0.6,0.3,1.2,0.7,1.7,1.2c0.5,0.5,0.8,1.1,1.1,1.7s0.4,1.3,0.4,2
			c0,0.9-0.2,1.8-0.6,2.6s-1,1.5-1.8,2s-1.7,0.8-2.7,0.8h-3.2v5.2H912.2z M915.9,368.1h3c0.3,0,0.5-0.1,0.8-0.2
			c0.2-0.2,0.4-0.4,0.6-0.7c0.1-0.3,0.2-0.7,0.2-1.2c0-0.5-0.1-0.9-0.3-1.2c-0.2-0.3-0.4-0.6-0.7-0.7c-0.3-0.1-0.5-0.2-0.8-0.2h-2.9
			V368.1z"/>
		<path class="st4" d="M937.4,373.2v3.2h-11.2v-16h11v3.2h-7.3v3.1h6.3v3h-6.3v3.4H937.4z"/>
		<path class="st4" d="M939.7,376.4v-16h7.2c0.8,0,1.4,0.2,2.1,0.5c0.6,0.3,1.2,0.7,1.7,1.2c0.5,0.5,0.8,1.1,1.1,1.7s0.4,1.3,0.4,2
			s-0.1,1.3-0.3,1.9s-0.5,1.1-0.9,1.6c-0.4,0.5-0.9,0.9-1.4,1.2l3.5,5.9h-4.1l-3.1-5.2h-2.5v5.2H939.7z M943.4,368.1h3.4
			c0.3,0,0.6-0.1,0.8-0.3c0.2-0.2,0.4-0.4,0.6-0.8c0.2-0.3,0.2-0.7,0.2-1.1c0-0.4-0.1-0.8-0.3-1.1c-0.2-0.3-0.4-0.6-0.6-0.8
			c-0.3-0.2-0.5-0.3-0.8-0.3h-3.3V368.1z"/>
		<path class="st4" d="M954.8,376.4v-16h3.7v16H954.8z"/>
		<path class="st4" d="M961.5,376.4v-16h10.8v3.2h-7.2v3.4h5.9v3h-5.9v6.3H961.5z"/>
		<path class="st4" d="M985.6,373.2v3.2h-11.2v-16h11v3.2H978v3.1h6.3v3H978v3.4H985.6z M981.2,359.4l-2.3-0.6l1.2-2.9h3.3
			L981.2,359.4z"/>
		<path class="st4" d="M987.8,376.4v-16h7.2c0.8,0,1.4,0.2,2.1,0.5c0.6,0.3,1.2,0.7,1.7,1.2c0.5,0.5,0.8,1.1,1.1,1.7s0.4,1.3,0.4,2
			s-0.1,1.3-0.3,1.9s-0.5,1.1-0.9,1.6c-0.4,0.5-0.9,0.9-1.4,1.2l3.5,5.9h-4.1l-3.1-5.2h-2.5v5.2H987.8z M991.5,368.1h3.4
			c0.3,0,0.6-0.1,0.8-0.3c0.2-0.2,0.4-0.4,0.6-0.8c0.2-0.3,0.2-0.7,0.2-1.1c0-0.4-0.1-0.8-0.3-1.1c-0.2-0.3-0.4-0.6-0.6-0.8
			c-0.3-0.2-0.5-0.3-0.8-0.3h-3.3V368.1z"/>
		<path class="st4" d="M1002.9,376.4v-16h3.7v16H1002.9z"/>
		<path class="st4" d="M1008.7,368.3c0-1,0.2-1.9,0.5-2.9c0.4-0.9,0.9-1.8,1.6-2.6c0.7-0.8,1.5-1.4,2.5-1.8c1-0.5,2.1-0.7,3.4-0.7
			c1.5,0,2.8,0.3,3.9,1c1.1,0.6,1.9,1.5,2.5,2.5l-2.8,2c-0.2-0.6-0.6-1-1-1.3s-0.8-0.5-1.3-0.7c-0.5-0.1-0.9-0.2-1.4-0.2
			c-0.7,0-1.3,0.1-1.8,0.4c-0.5,0.3-1,0.6-1.3,1.1c-0.3,0.5-0.6,1-0.8,1.6c-0.2,0.6-0.2,1.1-0.2,1.7c0,0.6,0.1,1.2,0.3,1.8
			c0.2,0.6,0.5,1.1,0.8,1.6c0.4,0.5,0.8,0.8,1.3,1.1s1.1,0.4,1.7,0.4c0.4,0,0.9-0.1,1.4-0.2c0.5-0.1,0.9-0.4,1.3-0.7
			c0.4-0.3,0.7-0.7,0.9-1.3l3,1.8c-0.3,0.8-0.8,1.4-1.6,2c-0.7,0.6-1.5,1-2.4,1.3c-0.9,0.3-1.8,0.4-2.7,0.4c-1.2,0-2.2-0.2-3.2-0.7
			s-1.8-1.1-2.5-1.9c-0.7-0.8-1.2-1.7-1.6-2.7C1008.9,370.3,1008.7,369.3,1008.7,368.3z"/>
		<path class="st4" d="M1031.9,376.5c-1.2,0-2.3-0.2-3.3-0.7s-1.8-1.1-2.5-1.8c-0.7-0.8-1.2-1.6-1.6-2.6s-0.6-2-0.6-3
			c0-1.1,0.2-2.1,0.6-3s1-1.8,1.7-2.6c0.7-0.8,1.6-1.4,2.5-1.8c1-0.4,2-0.7,3.2-0.7c1.2,0,2.3,0.2,3.2,0.7c1,0.5,1.8,1.1,2.5,1.9
			c0.7,0.8,1.2,1.7,1.6,2.6c0.4,1,0.6,2,0.6,3c0,1.1-0.2,2.1-0.6,3c-0.4,1-0.9,1.8-1.7,2.6c-0.7,0.8-1.6,1.4-2.5,1.8
			S1033,376.5,1031.9,376.5z M1027.7,368.4c0,0.6,0.1,1.2,0.3,1.8c0.2,0.6,0.4,1.1,0.8,1.5c0.4,0.5,0.8,0.8,1.3,1.1
			c0.5,0.3,1.1,0.4,1.8,0.4c0.7,0,1.3-0.1,1.8-0.4c0.5-0.3,1-0.6,1.3-1.1c0.3-0.5,0.6-1,0.8-1.6c0.2-0.6,0.3-1.2,0.3-1.8
			c0-0.6-0.1-1.2-0.3-1.8c-0.2-0.6-0.5-1.1-0.8-1.5c-0.4-0.5-0.8-0.8-1.3-1.1s-1.1-0.4-1.8-0.4c-0.7,0-1.3,0.1-1.8,0.4
			c-0.5,0.3-1,0.6-1.3,1.1c-0.4,0.5-0.6,1-0.8,1.6C1027.8,367.3,1027.7,367.8,1027.7,368.4z"/>
		<path class="st4" d="M1051.5,365.2c0-0.1-0.2-0.2-0.5-0.3c-0.3-0.2-0.6-0.3-1-0.5c-0.4-0.2-0.8-0.3-1.3-0.5
			c-0.5-0.1-1-0.2-1.4-0.2c-0.6,0-1.1,0.1-1.5,0.3c-0.3,0.2-0.5,0.5-0.5,1c0,0.4,0.1,0.6,0.4,0.8c0.3,0.2,0.6,0.4,1.1,0.5
			s1.1,0.3,1.8,0.5c1,0.3,1.9,0.6,2.7,1c0.8,0.4,1.3,0.9,1.7,1.5c0.4,0.6,0.6,1.4,0.6,2.4c0,0.9-0.2,1.7-0.5,2.3s-0.8,1.1-1.3,1.5
			s-1.2,0.7-1.9,0.8c-0.7,0.2-1.5,0.3-2.2,0.3c-0.8,0-1.6-0.1-2.4-0.2c-0.8-0.2-1.6-0.4-2.4-0.7c-0.8-0.3-1.4-0.6-2.1-1.1l1.6-3.2
			c0.1,0.1,0.3,0.2,0.6,0.4c0.3,0.2,0.7,0.4,1.2,0.6s1,0.4,1.6,0.6c0.6,0.2,1.2,0.2,1.8,0.2c0.7,0,1.2-0.1,1.5-0.3
			c0.3-0.2,0.5-0.5,0.5-0.9c0-0.4-0.2-0.7-0.5-0.9c-0.3-0.2-0.8-0.4-1.4-0.6c-0.6-0.2-1.2-0.4-2-0.6c-1-0.3-1.8-0.6-2.4-1
			c-0.6-0.4-1.1-0.8-1.4-1.4c-0.3-0.5-0.5-1.2-0.5-2c0-1.1,0.3-2.1,0.8-2.8c0.5-0.8,1.2-1.4,2.1-1.7s1.9-0.6,2.9-0.6
			c0.8,0,1.5,0.1,2.2,0.3c0.7,0.2,1.4,0.4,2,0.7c0.6,0.3,1.2,0.5,1.6,0.8L1051.5,365.2z"/>
	</g>
	<g>
		<path class="st4" d="M1053.3,243.2c0-0.1-0.2-0.2-0.5-0.3c-0.3-0.2-0.6-0.3-1-0.5c-0.4-0.2-0.8-0.3-1.3-0.5
			c-0.5-0.1-1-0.2-1.4-0.2c-0.6,0-1.1,0.1-1.5,0.3c-0.3,0.2-0.5,0.5-0.5,1c0,0.4,0.1,0.6,0.4,0.8c0.3,0.2,0.6,0.4,1.1,0.5
			c0.5,0.2,1.1,0.3,1.8,0.5c1,0.3,1.9,0.6,2.7,1c0.8,0.4,1.3,0.9,1.7,1.5c0.4,0.6,0.6,1.4,0.6,2.4c0,0.9-0.2,1.7-0.5,2.3
			c-0.3,0.6-0.8,1.1-1.3,1.5s-1.2,0.7-1.9,0.8c-0.7,0.2-1.5,0.3-2.2,0.3c-0.8,0-1.6-0.1-2.4-0.2c-0.8-0.2-1.6-0.4-2.4-0.7
			c-0.8-0.3-1.4-0.6-2.1-1.1l1.6-3.2c0.1,0.1,0.3,0.2,0.6,0.4s0.7,0.4,1.2,0.6s1,0.4,1.6,0.6c0.6,0.2,1.2,0.2,1.8,0.2
			c0.7,0,1.2-0.1,1.5-0.3c0.3-0.2,0.5-0.5,0.5-0.9c0-0.4-0.2-0.7-0.5-0.9c-0.3-0.2-0.8-0.4-1.4-0.6c-0.6-0.2-1.2-0.4-2-0.6
			c-1-0.3-1.8-0.6-2.4-1c-0.6-0.4-1.1-0.8-1.4-1.4c-0.3-0.5-0.5-1.2-0.5-2c0-1.1,0.3-2.1,0.8-2.8c0.5-0.8,1.2-1.4,2.1-1.7
			s1.9-0.6,2.9-0.6c0.8,0,1.5,0.1,2.2,0.3c0.7,0.2,1.4,0.4,2,0.7s1.2,0.5,1.6,0.8L1053.3,243.2z"/>
		<path class="st4" d="M1061.2,238.5h4l5.5,16h-3.8l-1.1-3.6h-5.3l-1.1,3.6h-3.8L1061.2,238.5z M1065,248.3l-1.9-6.1l-1.9,6.1H1065z
			"/>
		<path class="st4" d="M1072.3,254.5v-16h3.7v12.7h7.7v3.2H1072.3z"/>
		<path class="st4" d="M1089.4,238.5h4l5.5,16h-3.8l-1.1-3.6h-5.3l-1.1,3.6h-3.8L1089.4,238.5z M1093.3,248.3l-1.9-6.1l-1.9,6.1
			H1093.3z"/>
		<path class="st4" d="M1109.9,243.2c0-0.1-0.2-0.2-0.5-0.3c-0.3-0.2-0.6-0.3-1-0.5c-0.4-0.2-0.8-0.3-1.3-0.5
			c-0.5-0.1-1-0.2-1.4-0.2c-0.6,0-1.1,0.1-1.5,0.3c-0.3,0.2-0.5,0.5-0.5,1c0,0.4,0.1,0.6,0.4,0.8c0.3,0.2,0.6,0.4,1.1,0.5
			c0.5,0.2,1.1,0.3,1.8,0.5c1,0.3,1.9,0.6,2.7,1c0.8,0.4,1.3,0.9,1.7,1.5c0.4,0.6,0.6,1.4,0.6,2.4c0,0.9-0.2,1.7-0.5,2.3
			c-0.3,0.6-0.8,1.1-1.3,1.5s-1.2,0.7-1.9,0.8c-0.7,0.2-1.5,0.3-2.2,0.3c-0.8,0-1.6-0.1-2.4-0.2c-0.8-0.2-1.6-0.4-2.4-0.7
			c-0.8-0.3-1.4-0.6-2.1-1.1l1.6-3.2c0.1,0.1,0.3,0.2,0.6,0.4s0.7,0.4,1.2,0.6s1,0.4,1.6,0.6c0.6,0.2,1.2,0.2,1.8,0.2
			c0.7,0,1.2-0.1,1.5-0.3c0.3-0.2,0.5-0.5,0.5-0.9c0-0.4-0.2-0.7-0.5-0.9c-0.3-0.2-0.8-0.4-1.4-0.6c-0.6-0.2-1.2-0.4-2-0.6
			c-1-0.3-1.8-0.6-2.4-1c-0.6-0.4-1.1-0.8-1.4-1.4c-0.3-0.5-0.5-1.2-0.5-2c0-1.1,0.3-2.1,0.8-2.8c0.5-0.8,1.2-1.4,2.1-1.7
			s1.9-0.6,2.9-0.6c0.8,0,1.5,0.1,2.2,0.3c0.7,0.2,1.4,0.4,2,0.7s1.2,0.5,1.6,0.8L1109.9,243.2z"/>
		<path class="st4" d="M1043.7,281.5v-16h3.7v16H1043.7z"/>
		<path class="st4" d="M1054.2,272.3v9.1h-3.7v-16h2.9l7.4,9.4v-9.4h3.7v16h-3L1054.2,272.3z"/>
		<path class="st4" d="M1079.7,268.7h-4.9v12.7h-3.7v-12.7h-4.9v-3.2h13.4V268.7z"/>
		<path class="st4" d="M1092.8,278.2v3.2h-11.2v-16h11v3.2h-7.3v3.1h6.3v3h-6.3v3.4H1092.8z"/>
		<path class="st4" d="M1095,281.5v-16h3.7v12.7h7.7v3.2H1095z"/>
		<path class="st4" d="M1108.2,281.5v-16h3.7v16H1108.2z"/>
		<path class="st4" d="M1121.7,281.6c-1.1,0-2-0.2-3-0.6c-0.9-0.4-1.7-1-2.5-1.7s-1.3-1.6-1.7-2.6c-0.4-1-0.6-2.1-0.6-3.3
			c0-1.1,0.2-2.1,0.6-3.1c0.4-1,1-1.8,1.7-2.5c0.7-0.7,1.6-1.3,2.5-1.7s2-0.6,3.1-0.6c1.5,0,2.8,0.3,3.9,0.9c1.1,0.6,2,1.5,2.5,2.5
			l-2.7,2.1c-0.4-0.7-0.9-1.3-1.6-1.7c-0.7-0.4-1.4-0.6-2.2-0.6c-0.6,0-1.2,0.1-1.7,0.4c-0.5,0.2-0.9,0.6-1.3,1
			c-0.4,0.4-0.6,1-0.8,1.5c-0.2,0.6-0.3,1.2-0.3,1.9c0,0.7,0.1,1.3,0.3,1.9c0.2,0.6,0.5,1.1,0.9,1.5s0.8,0.8,1.3,1
			c0.5,0.2,1.1,0.4,1.7,0.4c0.8,0,1.5-0.2,2.2-0.6c0.7-0.4,1.3-0.9,1.9-1.7v3.6C1124.9,280.9,1123.4,281.6,1121.7,281.6z
			 M1125.9,275.8h-3.1v-2.7h6.2v8.3h-3.1V275.8z"/>
		<path class="st4" d="M1142.6,278.2v3.2h-11.2v-16h11v3.2h-7.3v3.1h6.3v3h-6.3v3.4H1142.6z"/>
		<path class="st4" d="M1148.6,272.3v9.1h-3.7v-16h2.9l7.4,9.4v-9.4h3.7v16h-3L1148.6,272.3z"/>
		<path class="st4" d="M1174.1,268.7h-4.9v12.7h-3.7v-12.7h-4.9v-3.2h13.4V268.7z"/>
		<path class="st4" d="M1187.2,278.2v3.2h-11.2v-16h11v3.2h-7.3v3.1h6.3v3h-6.3v3.4H1187.2z"/>
		<path class="st4" d="M1199,270.2c0-0.1-0.2-0.2-0.5-0.3c-0.3-0.2-0.6-0.3-1-0.5c-0.4-0.2-0.8-0.3-1.3-0.5s-1-0.2-1.4-0.2
			c-0.6,0-1.1,0.1-1.5,0.3c-0.3,0.2-0.5,0.5-0.5,1c0,0.4,0.1,0.6,0.4,0.8c0.3,0.2,0.6,0.4,1.1,0.5s1.1,0.3,1.8,0.5
			c1,0.3,1.9,0.6,2.7,1c0.8,0.4,1.3,0.9,1.7,1.5c0.4,0.6,0.6,1.4,0.6,2.4c0,0.9-0.2,1.7-0.5,2.3s-0.8,1.1-1.3,1.5s-1.2,0.7-1.9,0.8
			c-0.7,0.2-1.5,0.3-2.2,0.3c-0.8,0-1.6-0.1-2.4-0.2c-0.8-0.2-1.6-0.4-2.4-0.7s-1.4-0.6-2.1-1.1l1.6-3.2c0.1,0.1,0.3,0.2,0.6,0.4
			c0.3,0.2,0.7,0.4,1.2,0.6c0.5,0.2,1,0.4,1.6,0.6c0.6,0.2,1.2,0.2,1.8,0.2c0.7,0,1.2-0.1,1.5-0.3c0.3-0.2,0.5-0.5,0.5-0.9
			c0-0.4-0.2-0.7-0.5-0.9c-0.3-0.2-0.8-0.4-1.4-0.6c-0.6-0.2-1.2-0.4-2-0.6c-1-0.3-1.8-0.6-2.4-1c-0.6-0.4-1.1-0.8-1.4-1.4
			c-0.3-0.5-0.5-1.2-0.5-2c0-1.1,0.3-2.1,0.8-2.8c0.5-0.8,1.2-1.4,2.1-1.7c0.9-0.4,1.9-0.6,2.9-0.6c0.8,0,1.5,0.1,2.2,0.3
			c0.7,0.2,1.4,0.4,2,0.7c0.6,0.3,1.2,0.5,1.6,0.8L1199,270.2z"/>
	</g>
	<g>
		<g>
			<circle class="st1" cx="46.7" cy="523.4" r="47"/>
			<g>
				<circle class="st2" cx="46.7" cy="523.4" r="39"/>
			</g>
		</g>
		<path class="st3" d="M62.3,536.3c0.8-0.8,1.2-1.9,1.1-3.1c0-0.7-0.5-6.8-4.1-9c-2-1.2-4.5-1.2-6.9-0.8v0c-0.9-1.7-1.2-3.6-1.1-5.6
			c0.6-0.2,1.2-0.5,1.7-1c2.7-2.2,3.7-4.3,4.1-5.3v0c0.6-1.7,1-3.4,1.3-5.1c0.1-1,0.2-3.2-2.3-4.1l-0.3-0.1l0,0
			c0.1-0.4,0.2-0.8,0.1-1.3c-0.2-0.7-0.7-1.3-1.3-1.7c-0.1-0.6-0.4-1.2-0.9-1.5c-0.5-0.3-1.2-0.5-1.8-0.5c-0.3-1-1.6-1.4-2.5-1.5
			l0,0c-0.4-0.5-0.9-0.8-1.5-1c-0.6-0.2-1.2-0.1-1.8,0.1c-0.4-0.4-1-0.7-1.6-0.8c-0.6-0.1-1.2,0-1.7,0.2c-0.6-0.2-1.2-0.3-1.7-0.1
			c-0.6,0.1-1.1,0.4-1.5,0.9c-0.5-0.1-1.1-0.1-1.6,0.1c-0.7,0.2-1.3,0.7-1.7,1.3h-0.1c-1-0.4-2.2-0.3-3.1,0.4
			c-0.1,0-0.1,0.1-0.1,0.2l-0.1,0.1c-0.5,0.8-1.7,2.8-0.4,4.6c0.4,0.6,0.7,1,1,1.3h0c-0.4,0.9-0.4,1.9-0.3,2.9l0,0.2l0,0
			c0.2,0.6,0.2,1.3-0.1,1.8c-0.3,0.5-0.6,0.9-1,1.3c-0.6,0.7-1.1,1.4-1.6,2.2c-0.6,0.9-0.8,1.7-0.5,2.3c0.2,0.3,0.4,0.5,0.8,0.6
			c0.4,0.2,0.8,0.4,1.2,0.5c0.1,0,0.1,0,0.2,0.1c0,0.1,0,0.2,0,0.3c-0.2,0.4-0.3,1-0.1,1.4c0.2,0.4,0.6,0.7,1,0.8l1.5,0.4l-0.7,0.4
			c-0.4,0.2-0.6,0.5-0.6,0.9c0,0.5,0.4,0.8,0.8,1c0.1,0.1,0.2,0.1,0.3,0.2c0,0,0,0,0.1,0.1c0,0.1,0,0.3-0.1,0.4
			c-0.1,0.3-0.1,0.6-0.2,1c-0.1,0.6,0.1,1.2,0.5,1.7c0.4,0.4,1,0.6,1.5,0.5c0.3,0,0.5,0,0.8,0c0.8,0.1,1.6,0.1,2.4,0
			c1.3-0.1,1.7,0.6,2.3,1.8l0.1,0.2c0.1,0.3,0.2,0.6,0.2,1c0,0.2,0,0.3,0,0.5c-2.1,1-4.2,2.3-6.1,3.6c-0.8,0.6-1.5,1.4-2.1,2.3
			c-0.4,0.5-0.5,1.2-0.5,1.8c0.1,0.6,0.4,1.2,0.9,1.7c0.5,0.4,1.1,0.7,1.7,0.7h3.6c-0.1,0.3-0.2,0.6-0.2,0.9c0,0.5,0.2,1,0.5,1.4
			s0.8,0.6,1.3,0.6c-0.2,0.3-0.3,0.7-0.3,1.1c0,0.4,0.1,0.8,0.4,1.2c0.2,0.3,0.6,0.6,1,0.7l0.3,0.2c0.6,0.5,1.6,1.3,1.6,2.1
			c0,0.9-0.2,1-0.7,1.3c-0.1,0-0.6,0.1-1,0.2c-2.5,0.5-7.6,1.6-7.5,5v0c0,0.3,0.3,0.5,0.6,0.5h25.3c0.3,0,0.6-0.2,0.6-0.5
			c0.1-3.4-5-4.4-7.5-5h0c-0.3-0.1-0.6-0.1-1-0.2c-0.5-0.3-0.7-0.4-0.7-1.3c0-0.8,1-1.6,1.6-2.1l0.2-0.2l0,0c0.4-0.1,0.7-0.4,1-0.7
			c0.2-0.3,0.4-0.7,0.4-1.2c0-0.4-0.1-0.8-0.3-1.1c0.5,0,1-0.3,1.3-0.6c0.4-0.4,0.5-0.9,0.5-1.4c0-0.3-0.1-0.6-0.2-0.9h2.5
			C60.4,537.6,61.6,537.1,62.3,536.3L62.3,536.3z M38.2,496.1c0.4-0.2,0.8-0.2,1.2,0c0.3,0.2,0.6,0.1,0.8-0.2
			c0.1-0.1,0.8-1.2,2.4-0.6v0c0.1,0.1,0.3,0.1,0.4,0c0.1,0,1.6-0.8,2.4,0.4v0c0.2,0.2,0.5,0.3,0.7,0.2c0.4-0.2,0.9-0.3,1.3-0.2
			c0.4,0.1,0.8,0.4,1.1,0.8c0.1,0.2,0.3,0.3,0.5,0.3c0,0,1.8,0.1,1.8,1c0,0.2,0.1,0.3,0.2,0.4c0.1,0.1,0.3,0.1,0.5,0.1
			c0.5-0.1,1,0,1.5,0.2c0.3,0.2,0.5,0.6,0.5,1c0,0.2,0.1,0.3,0.3,0.4c0.1,0.1,1.3,0.8,0.9,1.9c-3.9-1.2-13.8-4.1-17.3-5.2
			C37.6,496.5,37.9,496.3,38.2,496.1L38.2,496.1z M33.8,497.6L33.8,497.6c0.6-0.4,1.3-0.5,2-0.2c0.2,0.1,18,5.3,19.9,6
			c1.5,0.5,1.6,1.8,1.5,3c-0.2,1.6-0.6,3.3-1.2,4.8c-0.3,0.9-1.3,2.7-3.7,4.8c-0.6,0.6-1.4,0.9-2.2,0.9c-0.3,0-0.6-0.2-0.9-0.4
			c-0.1-0.2-0.3-0.5,0.3-1.1h0c0.5-0.5,0.8-1.2,0.9-1.9c0.1-0.2,0.1-0.5,0.2-0.8h0c0.3-0.6,0.3-1.2,0.2-1.8
			c-0.1-0.6-0.5-1.2-0.9-1.6c-0.4-0.4-0.9-0.6-1.5-0.6c-0.6,0-1.3,0.2-1.9,0.5l-0.4,0.2c-1,0.4-1.6,2.1-1.9,3.1l-1.5-0.2
			c0.1-0.6,0.2-1.3,0.2-1.9c0-0.5,0-1.1,0.1-1.6c0.1-0.8,0-1.6-0.4-2.3c-0.4-0.7-1.1-1.2-1.8-1.4c-0.4-0.1-0.7-0.2-1-0.3
			c-0.4-0.1-0.9-0.2-1.3-0.4c-0.6-0.4-1.1-0.9-1.6-1.4c-0.1-0.2-0.4-0.2-0.6-0.2c-0.2,0.1-0.4,0.3-0.4,0.5c0,0.2,0,0.4,0,0.6
			c-0.3-0.3-0.5-0.5-0.6-0.6l-0.1-0.1c-0.7-0.6-1.3-1.3-1.8-2.1C32.6,499.9,33.2,498.7,33.8,497.6L33.8,497.6z M39.2,522.9
			c-0.7,0.1-1.5,0.1-2.2,0c-0.3,0-0.6,0-0.9,0c-0.2,0-0.5,0-0.6-0.2c-0.2-0.2-0.2-0.5-0.2-0.8c0-0.3,0.1-0.6,0.2-0.8
			c0.3-0.6,0.1-1.2-0.4-1.6c-0.1-0.1-0.3-0.2-0.4-0.3l-0.1-0.1c0.8-0.5,1.7-1.1,1.8-1.1v0c0.2-0.1,0.3-0.3,0.3-0.6
			c0-0.2-0.2-0.4-0.4-0.5c0,0-2.1-0.5-2.8-0.7c-0.1,0-0.2-0.1-0.3-0.2c0-0.2,0-0.3,0.1-0.5c0.2-0.4,0.2-0.9,0-1.3
			c-0.2-0.4-0.6-0.6-1-0.6c-0.3-0.1-0.6-0.2-0.8-0.4c-0.1-0.1-0.2-0.1-0.3-0.1c0,0-0.1-0.3,0.4-1.2c0.4-0.7,1-1.4,1.5-2
			c0.4-0.5,0.8-1,1.1-1.6c0.4-0.8,0.5-1.7,0.2-2.6l0-0.2v0c-0.1-0.6-0.1-1.2,0.1-1.8l0.1,0.1l0.1,0.1c0.1,0.1,0.4,0.3,0.6,0.6
			c0.5,0.5,1,0.9,1.5,1.3c0.2,0.1,0.5,0.1,0.7,0c0.2-0.2,0.2-0.4,0.1-0.7c0-0.1-0.1-0.3-0.2-0.5c0.2,0.2,0.4,0.3,0.6,0.4
			c0.5,0.3,1.1,0.5,1.7,0.6c0.3,0.1,0.6,0.1,1,0.2h0c0.5,0.2,0.9,0.5,1.2,1c0.3,0.5,0.4,1,0.3,1.5c-0.1,0.6-0.1,1.2-0.1,1.8
			c0.1,0.7,0,1.5-0.3,2.1c-0.1,0.2-0.1,0.4,0,0.5c0.1,0.2,0.3,0.3,0.4,0.3l2.7,0.3h0c0.3,0,0.6-0.1,0.6-0.4c0.3-1.2,0.9-2.6,1.4-2.8
			l0.4-0.2c1-0.4,1.6-0.6,2.1-0.1c0.7,0.6,0.8,1.2,0.4,2.2c-0.1,0.3-0.2,0.6-0.3,0.9v0c-0.1,0.5-0.3,1-0.7,1.5
			c-0.8,0.9-0.9,1.7-0.4,2.5c0.4,0.5,0.9,0.8,1.6,0.9h0.3h0c-0.1,2,0.3,3.9,1.1,5.7c-0.9,0.2-1.7,0.5-2.6,0.8
			c-1.4,0.5-3.5,1.5-5.6,2.5v0c0-0.5-0.1-1-0.3-1.4l-0.1-0.2C42.1,524.2,41.4,522.7,39.2,522.9L39.2,522.9z M34.5,535.6
			c-0.3-0.5-0.2-1.1,0.1-1.5c0.5-0.8,1.2-1.4,1.9-2c2-1.4,4.1-2.6,6.3-3.7c2.3-1.2,4.8-2.3,6.3-2.9c1.9-0.8,4-1.2,6-1.3
			c1.2-0.1,2.5,0.2,3.6,0.8c2.6,1.6,3.5,5.9,3.6,8.2c0,0.8-0.2,1.6-0.8,2.2c-0.6,0.6-1.4,0.9-2.2,0.9H35.8
			C35.3,536.4,34.8,536.1,34.5,535.6L34.5,535.6z M51,545.7L51,545.7c-0.1,0.5,0,1,0.3,1.4c0.2,0.4,0.6,0.7,1.1,0.9
			c0.4,0.2,0.8,0.3,1.3,0.3c1.8,0.4,5.9,1.2,6.5,3.3l-24.1,0c0.6-2,4.7-2.9,6.5-3.3l0,0c0.4-0.1,0.9-0.2,1.3-0.3
			c0.5-0.2,0.8-0.5,1.1-0.9c0.2-0.4,0.3-0.9,0.3-1.4c-0.1-0.8-0.5-1.6-1.1-2.2h8.2C51.5,544.1,51.1,544.9,51,545.7L51,545.7z
			 M53.4,542.4l-10.6,0c-0.5,0-0.9-0.4-0.9-0.9s0.4-0.9,0.9-0.9h10.6c0.5,0,0.9,0.4,0.9,0.9S53.9,542.4,53.4,542.4L53.4,542.4z
			 M55.9,538.5c0,0.5-0.4,0.9-0.9,0.9H41.2c-0.2,0-0.5-0.1-0.7-0.2c-0.2-0.2-0.3-0.4-0.3-0.7c0-0.2,0.1-0.5,0.3-0.7
			c0.2-0.2,0.4-0.3,0.7-0.2H55C55.5,537.6,55.9,538,55.9,538.5L55.9,538.5z"/>
	</g>
	<g>
		<g>
			<circle class="st1" cx="228.3" cy="511" r="47"/>
			<g>
				<circle class="st2" cx="228.3" cy="511" r="39"/>
			</g>
		</g>
		<path class="st3" d="M227.6,538.4c0,0-0.1,0-0.1,0c-0.6,0-1.2-0.4-1.6-0.9c-0.8-0.9-0.8-2.2,0-2.9l2-1.7l0.4-0.4
			c0.1-0.1,0.1-0.1,0.1-0.1c0-0.1-0.2-0.4-0.3-0.6c-0.1-0.1-0.1-0.2-0.2-0.4l-0.5-1c-1.1-0.1-2.2-0.2-3.2-0.5
			c0.1,0.3,0.2,0.5,0.3,0.7c0.4,0.8,0.5,0.9,0.4,1.8c0,0.5-0.2,1-0.6,1.3l-5,4.3c-0.4,0.3-0.9,0.5-1.5,0.4c-0.5-0.1-1-0.4-1.4-0.8
			c-0.4-0.4-0.6-0.9-0.6-1.5c0-0.6,0.2-1.1,0.6-1.4l2.3-2c0.2-0.2,0.2-0.2,0.2-0.2c0-0.1-0.2-0.5-0.4-0.9l-0.2-0.4l-4.2-8.6l-0.5-1
			c-0.7-1.4-0.6-2.9,0.3-3.9l5.3-5.8c-0.2-0.4-0.4-0.8-0.4-1.2l0-11.9c0-2.8,1.3-5.1,3.2-5.6v-5.3c0-2.4,2-4.4,4.4-4.4
			c2.4,0,4.4,2,4.4,4.4v3.9c5.4,0.2,9.5,2.3,9.5,5V507c0.5,1,0.5,2.1,0.1,3c2,1.1,3.1,2.5,3.1,4.1v10.6c0,3.2-4.4,5.7-10.1,5.7
			l0.5,1.5c0.2,0.7,0,1.4-0.5,1.9l-4.7,4.1C228.4,538.3,228,538.4,227.6,538.4L227.6,538.4z M229.1,533.5l-0.4,0.4l-2,1.7
			c-0.2,0.2-0.2,0.7,0.2,1.1c0.2,0.2,0.5,0.4,0.7,0.4c0.1,0,0.2,0,0.3-0.1l4.7-4.1c0.1-0.1,0.2-0.3,0.1-0.6l-0.9-2.4l-2.9-6.7
			c-0.7-1.4-0.2-2,0.6-2.9l8.3-9l-7.4,4.5c-1.1,0.7-2.5,0.4-3.4-0.6l-2.6,2.8c-0.6,0.7-0.8,1.7-0.3,2.6l0.9,1.9l4,8.3
			c0.1,0.1,0.1,0.2,0.2,0.3C229.5,531.9,229.9,532.7,229.1,533.5L229.1,533.5z M220.1,512.8l-5.2,5.6c-0.5,0.6-0.6,1.6-0.1,2.4
			l0.5,1l4.4,9.1c0.6,1.2,0.9,1.8-0.1,2.7l-2.3,2c-0.1,0.1-0.2,0.3-0.2,0.4c0,0.2,0.1,0.5,0.3,0.7c0.2,0.2,0.4,0.3,0.6,0.4
			c0.1,0,0.3,0,0.4-0.1l5-4.3c0.1-0.1,0.2-0.3,0.2-0.4c0-0.6,0-0.6-0.3-1.2c-0.1-0.3-0.3-0.6-0.5-1.1l-3.2-6.8
			c-0.6-1.4-0.5-1.8,0.4-2.7l6.4-6.9c0-0.9,0.4-1.7,1.2-2.2l5.9-3.6c0.4-0.2,0.4-0.2,0.4-0.5v-8.2h1.3v8.2c0,0.9-0.4,1.3-1,1.6
			l-5.9,3.6c-0.6,0.4-0.8,1.2-0.4,1.9c0.4,0.6,1.2,0.8,1.8,0.5l8.7-5.4c0.3-0.2,0.5-0.5,0.6-0.9l0-1.3l0-10.5c0-1.7-3.3-3.6-8.2-3.8
			v0.9c0,1.7-1,3.2-2.4,3.9c0.1,0,0.3,0.1,0.4,0.2c1.3,0.7,1.8,2.3,1,3.7l-5.3,10.3c-0.3,0.7-0.9,1.2-1.6,1.4
			c-0.7,0.3-1.4,0.2-2.1-0.1C220.7,513.3,220.4,513.1,220.1,512.8L220.1,512.8z M232.9,529.3h0.2c5,0,9.2-2,9.2-4.5v-10.6
			c0-1.1-0.9-2.2-2.5-3.1l-9.3,10.1c-0.7,0.7-0.7,0.8-0.3,1.5L232.9,529.3z M223.4,528.5c1,0.3,2.1,0.6,3.3,0.7l-3.8-7.9
			c-0.2-0.5-0.4-1.1-0.4-1.6l-1.6,1.7c-0.5,0.5-0.5,0.5-0.1,1.3L223.4,528.5z M220.2,498.7v11.9c0,0.5,0.8,1.4,1.3,1.7
			c0.3,0.2,0.7,0.2,1,0c0.4-0.1,0.7-0.4,0.9-0.8l5.3-10.3c0.4-0.8,0.2-1.7-0.5-2c-0.7-0.3-1.5,0-1.9,0.8l-3.1,6.1l-1.1-0.6l2-3.8
			v-2.1h1.1l0.1-0.1c0.2-0.4,0.5-0.8,0.9-1.1c-2.1-0.2-3.7-1.8-4-3.9C221,494.9,220.2,496.7,220.2,498.7L220.2,498.7z M226.5,484.8
			c-1.7,0-3.1,1.4-3.1,3.1v6.1c0,1.7,1.4,3.1,3.1,3.1s3.1-1.4,3.1-3.1v-6.1C229.6,486.1,228.2,484.8,226.5,484.8z"/>
	</g>
	<g>
		<g>
			<circle class="st1" cx="420.6" cy="481.3" r="47"/>
			<g>
				<circle class="st2" cx="420.6" cy="481.3" r="39"/>
			</g>
		</g>
		<path class="st3" d="M442.2,476.8l-22-9.3c-0.2-0.1-0.5-0.1-0.7,0l-22,9.3c-0.3,0.1-0.6,0.5-0.6,0.8c0,0.3,0.2,0.7,0.6,0.8l9.6,4
			v0.1v9.2c0,0.3,0.2,0.7,0.6,0.8l11.9,5c0.1,0.1,0.2,0.1,0.3,0.1c0.1,0,0.2,0,0.3-0.1l11.9-5c0.3-0.1,0.6-0.5,0.6-0.8v-9.2v-0.1
			l2.5-1.1V492l-2.8,8.2c-0.1,0.3-0.1,0.6,0.1,0.8c0.2,0.2,0.5,0.4,0.7,0.4h5.7c0.3,0,0.6-0.1,0.7-0.4c0.2-0.2,0.2-0.5,0.1-0.8
			l-2.8-8.2l0-11.4l5.3-2.2c0.3-0.1,0.6-0.5,0.6-0.8C442.8,477.2,442.5,476.9,442.2,476.8L442.2,476.8z M434.5,499.6l1.6-4.6
			l1.6,4.6H434.5z M430.8,491.1l-11,4.6l-11-4.6v-7.9l10.6,4.5c0.1,0.1,0.2,0.1,0.3,0.1c0.1,0,0.2,0,0.3-0.1l10.6-4.5L430.8,491.1z
			 M419.8,485.9l-19.7-8.3l19.7-8.3l19.7,8.3L419.8,485.9z"/>
		<path class="st3" d="M415.5,476.7c0,1.6,1.8,2.8,4.3,2.8s4.3-1.2,4.3-2.8c0-1.6-1.8-2.8-4.3-2.8S415.5,475.1,415.5,476.7z
			 M422.4,476.7c0,0.3-0.9,1-2.5,1c-1.6,0-2.5-0.7-2.5-1c0-0.3,0.9-1,2.5-1C421.5,475.7,422.4,476.4,422.4,476.7z"/>
	</g>
	<g>
		<g>
			<circle class="st1" cx="596.1" cy="439.3" r="47"/>
			<g>
				<circle class="st2" cx="596.1" cy="439.3" r="39"/>
			</g>
		</g>
		<path class="st3" d="M589.1,462.1h-14c-0.4,0-0.7-0.3-0.7-0.7l0-28.7c0-0.4,0.3-0.7,0.7-0.7c0.4,0,0.7,0.3,0.7,0.7v28h13.3
			c0.4,0,0.7,0.3,0.7,0.7C589.8,461.8,589.5,462.1,589.1,462.1L589.1,462.1z"/>
		<path class="st3" d="M617.1,462.1h-14c-0.4,0-0.7-0.3-0.7-0.7s0.3-0.7,0.7-0.7h13.3v-28c0-0.4,0.3-0.7,0.7-0.7
			c0.4,0,0.7,0.3,0.7,0.7v28.7C617.8,461.8,617.5,462.1,617.1,462.1L617.1,462.1z"/>
		<path class="st3" d="M585.6,462.1c-0.4,0-0.7-0.3-0.7-0.7v-28.7c0-0.4,0.3-0.7,0.7-0.7c0.4,0,0.7,0.3,0.7,0.7v28.7
			C586.3,461.8,586,462.1,585.6,462.1L585.6,462.1z"/>
		<path class="st3" d="M606.6,432c-0.4,0-0.7,0.3-0.7,0.7v28.7c0,0.4,0.3,0.7,0.7,0.7c0.4,0,0.7-0.3,0.7-0.7v-28.7
			C607.3,432.3,607,432,606.6,432L606.6,432z"/>
		<path class="st3" d="M582.8,441.8h-4.9c-0.4,0-0.7-0.3-0.7-0.7v-2.4c0-1.7,1.4-3.1,3.1-3.1c1.7,0,3.1,1.4,3.1,3.1l0,2.4
			C583.5,441.5,583.2,441.8,582.8,441.8L582.8,441.8z M578.6,440.4h3.5v-1.7c0-1-0.8-1.7-1.7-1.7c-1,0-1.7,0.8-1.7,1.7L578.6,440.4z
			"/>
		<path class="st3" d="M594,443.9h-4.9c-0.4,0-0.7-0.3-0.7-0.7v-2.4c0-1.7,1.4-3.1,3.1-3.1c1.7,0,3.1,1.4,3.1,3.1v2.4
			C594.7,443.6,594.4,443.9,594,443.9L594,443.9z M589.8,442.5h3.5v-1.7c0-1-0.8-1.7-1.7-1.7c-1,0-1.7,0.8-1.7,1.7L589.8,442.5z"/>
		<path class="st3" d="M603.1,443.9h-4.9c-0.4,0-0.7-0.3-0.7-0.7v-2.4c0-1.7,1.4-3.1,3.1-3.1c1.7,0,3.1,1.4,3.1,3.1v2.4
			C603.8,443.6,603.5,443.9,603.1,443.9L603.1,443.9z M598.9,442.5h3.5v-1.7c0-1-0.8-1.7-1.7-1.7c-1,0-1.7,0.8-1.7,1.7L598.9,442.5z
			"/>
		<path class="st3" d="M582.8,450.2h-4.9c-0.4,0-0.7-0.3-0.7-0.7V447c0-1.7,1.4-3.1,3.1-3.1c1.7,0,3.1,1.4,3.1,3.1l0,2.4
			C583.5,449.9,583.2,450.2,582.8,450.2L582.8,450.2z M578.6,448.8h3.5V447c0-1-0.8-1.7-1.7-1.7c-1,0-1.7,0.8-1.7,1.7L578.6,448.8z"
			/>
		<path class="st3" d="M582.8,458.6h-4.9c-0.4,0-0.7-0.3-0.7-0.7v-2.4c0-1.7,1.4-3.1,3.1-3.1c1.7,0,3.1,1.4,3.1,3.1l0,2.4
			C583.5,458.3,583.2,458.6,582.8,458.6L582.8,458.6z M578.6,457.2h3.5v-1.7c0-1-0.8-1.7-1.7-1.7c-1,0-1.7,0.8-1.7,1.7L578.6,457.2z
			"/>
		<path class="st3" d="M614.3,441.8h-4.9c-0.4,0-0.7-0.3-0.7-0.7v-2.4c0-1.7,1.4-3.1,3.1-3.1c1.7,0,3.1,1.4,3.1,3.1l0,2.4
			C615,441.5,614.7,441.8,614.3,441.8L614.3,441.8z M610.1,440.4h3.5v-1.7c0-1-0.8-1.7-1.7-1.7c-1,0-1.7,0.8-1.7,1.7L610.1,440.4z"
			/>
		<path class="st3" d="M614.3,450.2h-4.9c-0.4,0-0.7-0.3-0.7-0.7V447c0-1.7,1.4-3.1,3.1-3.1c1.7,0,3.1,1.4,3.1,3.1l0,2.4
			C615,449.9,614.7,450.2,614.3,450.2L614.3,450.2z M610.1,448.8h3.5V447c0-1-0.8-1.7-1.7-1.7c-1,0-1.7,0.8-1.7,1.7L610.1,448.8z"/>
		<path class="st3" d="M614.3,458.6h-4.9c-0.4,0-0.7-0.3-0.7-0.7v-2.4c0-1.7,1.4-3.1,3.1-3.1c1.7,0,3.1,1.4,3.1,3.1l0,2.4
			C615,458.3,614.7,458.6,614.3,458.6L614.3,458.6z M610.1,457.2h3.5v-1.7c0-1-0.8-1.7-1.7-1.7c-1,0-1.7,0.8-1.7,1.7L610.1,457.2z"
			/>
		<path class="st3" d="M601,419.4h-4.9c-0.4,0-0.7-0.3-0.7-0.7l0-3.5c0-0.4,0.3-0.7,0.7-0.7h4.9c0.4,0,0.7,0.3,0.7,0.7l0,3.5
			C601.7,419.1,601.4,419.4,601,419.4z M596.8,418h3.5v-2.1h-3.5V418z"/>
		<path class="st3" d="M596.1,422.2c-0.4,0-0.7-0.3-0.7-0.7l0-2.8c0-0.4,0.3-0.7,0.7-0.7c0.4,0,0.7,0.3,0.7,0.7v2.8
			C596.8,421.9,596.5,422.2,596.1,422.2L596.1,422.2z"/>
		<path class="st3" d="M596.1,436.9c-2.7,0-4.9-2.2-4.9-4.9s2.2-4.9,4.9-4.9s4.9,2.2,4.9,4.9S598.8,436.9,596.1,436.9z M596.1,428.5
			c-1.9,0-3.5,1.6-3.5,3.5s1.6,3.5,3.5,3.5c1.9,0,3.5-1.6,3.5-3.5C599.6,430.1,598.1,428.5,596.1,428.5z"/>
		<path class="st3" d="M596.3,433.2l-0.7-0.7c-0.1-0.1-0.2-0.3-0.2-0.5v-1.4c0-0.4,0.3-0.7,0.7-0.7c0.4,0,0.7,0.3,0.7,0.7v1.1
			l0.5,0.5c0.3,0.3,0.3,0.7,0,1C597,433.5,596.6,433.5,596.3,433.2L596.3,433.2z"/>
		<path class="st3" d="M603.1,462.1h-14c-0.4,0-0.7-0.3-0.7-0.7l0-14.7c0-0.4,0.3-0.7,0.7-0.7h14c0.4,0,0.7,0.3,0.7,0.7v14.7
			C603.8,461.8,603.5,462.1,603.1,462.1L603.1,462.1z M589.8,460.7h12.6v-13.3h-12.6V460.7z"/>
		<path class="st3" d="M596.1,462.1c-0.4,0-0.7-0.3-0.7-0.7v-11.2c0-0.4,0.3-0.7,0.7-0.7c0.4,0,0.7,0.3,0.7,0.7v11.2
			C596.8,461.8,596.5,462.1,596.1,462.1z"/>
		<path class="st3" d="M603.1,450.9h-14c-0.4,0-0.7-0.3-0.7-0.7s0.3-0.7,0.7-0.7h14c0.4,0,0.7,0.3,0.7,0.7S603.5,450.9,603.1,450.9z
			"/>
		<path class="st3" d="M598.9,457.2c-0.4,0-0.7-0.3-0.7-0.7v-1.4c0-0.4,0.3-0.7,0.7-0.7c0.4,0,0.7,0.3,0.7,0.7v1.4
			C599.6,456.9,599.3,457.2,598.9,457.2z"/>
		<path class="st3" d="M593.3,457.2c-0.4,0-0.7-0.3-0.7-0.7v-1.4c0-0.4,0.3-0.7,0.7-0.7c0.4,0,0.7,0.3,0.7,0.7v1.4
			C594,456.9,593.7,457.2,593.3,457.2z"/>
		<path class="st3" d="M619.2,433.4h-12.6c-0.2,0-0.4-0.1-0.5-0.2c-9.1-9.5-8.6-9.1-8.7-9.1l-1.3-1.5l-1.3,1.5
			c-0.3,0.3-0.7,0.3-1,0.1s-0.3-0.7-0.1-1l1.9-2.1c0.3-0.3,0.8-0.3,1,0l1.6,1.9h15.3c0.2,0,0.5,0.1,0.6,0.3l5.6,9.1
			C620.1,432.8,619.7,433.4,619.2,433.4L619.2,433.4z M606.9,432h11l-4.7-7.7l-13.6,0L606.9,432z"/>
		<path class="st3" d="M594.9,423.3c-0.1-0.3-0.4-0.4-0.6-0.4h-15.6c-0.2,0-0.5,0.1-0.6,0.3l-5.6,9.1c-0.3,0.5,0,1.1,0.6,1.1h12.6
			c0.2,0,0.4-0.1,0.5-0.2l8.6-9.1C595,423.9,595,423.6,594.9,423.3L594.9,423.3z M585.3,432h-11l4.7-7.7h13.6L585.3,432z"/>
	</g>
	<g>
		<g>
			<circle class="st1" cx="762.9" cy="376.4" r="47"/>
			<g>
				<circle class="st2" cx="762.9" cy="376.4" r="39"/>
			</g>
		</g>
		<path class="st3" d="M742.5,399.1c-0.3,0-0.5-0.2-0.5-0.5v-16c0-0.3,0.2-0.5,0.5-0.5s0.5,0.2,0.5,0.5v16c0,0.1,0,0.2-0.1,0.3
			C742.7,399.1,742.6,399.1,742.5,399.1z"/>
		<path class="st3" d="M760.1,399.1c-0.3,0-0.5-0.2-0.5-0.5v-16c0-0.3,0.2-0.5,0.5-0.5s0.5,0.2,0.5,0.5v16c0,0.1,0,0.2-0.1,0.3
			C760.3,399.1,760.2,399.1,760.1,399.1L760.1,399.1z"/>
		<path class="st3" d="M756.2,384.5h-9.9c-0.4,0-0.7-0.1-1-0.4c-0.3-0.3-0.4-0.6-0.4-1v-5.5c0-0.4,0.1-0.7,0.4-1
			c0.3-0.3,0.6-0.4,1-0.4h9.9c0.4,0,0.7,0.1,1,0.4c0.3,0.3,0.4,0.6,0.4,1v5.5c0,0.4-0.1,0.7-0.4,1
			C756.9,384.4,756.6,384.5,756.2,384.5z M746.3,377.2c-0.3,0-0.5,0.2-0.5,0.5v5.5c0,0.1,0,0.2,0.1,0.3c0.1,0.1,0.2,0.1,0.3,0.1h9.9
			c0.1,0,0.2,0,0.3-0.1c0.1-0.1,0.1-0.2,0.1-0.3v-5.5c0-0.1,0-0.2-0.1-0.3c-0.1-0.1-0.2-0.1-0.3-0.1H746.3z"/>
		<path class="st3" d="M756.3,399.1c-0.2,0-0.4-0.2-0.5-0.4l-1.3-17.8c0-0.2-0.2-0.8-1.1-0.8h-4.4c-0.9,0-1,0.7-1,0.8l-1.3,17.8
			c0,0.3-0.2,0.4-0.5,0.4c-0.3,0-0.4-0.2-0.4-0.5l1.3-17.8c0-0.6,0.5-1.7,1.9-1.7h4.4c1.4,0,1.9,1.1,2,1.6v0l1.3,17.8v0
			c0,0.1,0,0.2-0.1,0.3C756.5,399.1,756.4,399.1,756.3,399.1L756.3,399.1z"/>
		<path class="st3" d="M760.1,387.5h-17.6c-0.3,0-0.5-0.2-0.5-0.5s0.2-0.5,0.5-0.5h17.6c0.3,0,0.5,0.2,0.5,0.5
			S760.4,387.5,760.1,387.5z"/>
		<path class="st3" d="M745.3,383.1H741c-0.3,0-0.5-0.2-0.5-0.5v-2.9c0-0.3,0.2-0.5,0.5-0.5h4.3c0.3,0,0.5,0.2,0.5,0.5
			c0,0.3-0.2,0.5-0.5,0.5h-3.8v2h3.8c0.3,0,0.5,0.2,0.5,0.5C745.7,382.9,745.5,383.1,745.3,383.1L745.3,383.1z"/>
		<path class="st3" d="M761.5,383.1h-4.3c-0.3,0-0.5-0.2-0.5-0.5c0-0.3,0.2-0.5,0.5-0.5h3.8v-2h-3.9c-0.3,0-0.5-0.2-0.5-0.5
			c0-0.3,0.2-0.5,0.5-0.5h4.3c0.1,0,0.2,0,0.3,0.1c0.1,0.1,0.1,0.2,0.1,0.3v2.9c0,0.1,0,0.2-0.1,0.3
			C761.7,383.1,761.6,383.1,761.5,383.1L761.5,383.1z"/>
		<path class="st3" d="M765.9,399.1c-0.3,0-0.5-0.2-0.5-0.5v-16c0-0.3,0.2-0.5,0.5-0.5c0.3,0,0.5,0.2,0.5,0.5v16
			c0,0.1,0,0.2-0.1,0.3C766.1,399.1,766,399.1,765.9,399.1L765.9,399.1z"/>
		<path class="st3" d="M783.5,399.1c-0.3,0-0.5-0.2-0.5-0.5v-16c0-0.3,0.2-0.5,0.5-0.5c0.3,0,0.5,0.2,0.5,0.5v16
			c0,0.1,0,0.2-0.1,0.3C783.7,399.1,783.6,399.1,783.5,399.1z"/>
		<path class="st3" d="M779.6,384.5h-9.9c-0.4,0-0.7-0.1-1-0.4c-0.3-0.3-0.4-0.6-0.4-1v-5.5c0-0.4,0.1-0.7,0.4-1
			c0.3-0.3,0.6-0.4,1-0.4h9.9c0.4,0,0.7,0.1,1,0.4c0.3,0.3,0.4,0.6,0.4,1v5.5c0,0.4-0.1,0.7-0.4,1
			C780.3,384.4,779.9,384.5,779.6,384.5z M769.7,377.2c-0.3,0-0.5,0.2-0.5,0.5v5.5c0,0.1,0,0.2,0.1,0.3c0.1,0.1,0.2,0.1,0.3,0.1h9.9
			c0.1,0,0.2,0,0.3-0.1c0.1-0.1,0.1-0.2,0.1-0.3v-5.5c0-0.1,0-0.2-0.1-0.3c-0.1-0.1-0.2-0.1-0.3-0.1H769.7z"/>
		<path class="st3" d="M779.6,399.1c-0.2,0-0.4-0.2-0.5-0.4l-1.3-17.8c0-0.2-0.2-0.8-1.1-0.8h-4.4c-0.9,0-1,0.7-1,0.8l-1.3,17.8
			c0,0.3-0.2,0.4-0.5,0.4c-0.3,0-0.4-0.2-0.4-0.5l1.3-17.8c0-0.6,0.5-1.7,1.9-1.7h4.4c1.4,0,1.9,1.1,2,1.6v0l1.3,17.8v0
			c0,0.1,0,0.2-0.1,0.3C779.9,399.1,779.8,399.1,779.6,399.1L779.6,399.1z"/>
		<path class="st3" d="M783.5,387.5h-17.6c-0.3,0-0.5-0.2-0.5-0.5s0.2-0.5,0.5-0.5h17.6c0.3,0,0.5,0.2,0.5,0.5
			S783.7,387.5,783.5,387.5z"/>
		<path class="st3" d="M768.6,383.1h-4.2c-0.3,0-0.5-0.2-0.5-0.5v-2.9c0-0.3,0.2-0.5,0.5-0.5h4.3c0.3,0,0.5,0.2,0.5,0.5
			c0,0.3-0.2,0.5-0.5,0.5h-3.8v2h3.8c0.3,0,0.5,0.2,0.5,0.5C769.1,382.9,768.9,383.1,768.6,383.1L768.6,383.1z"/>
		<path class="st3" d="M784.8,383.1h-4.3c-0.3,0-0.5-0.2-0.5-0.5c0-0.3,0.2-0.5,0.5-0.5h3.8v-2h-3.9c-0.3,0-0.5-0.2-0.5-0.5
			c0-0.3,0.2-0.5,0.5-0.5h4.3c0.1,0,0.2,0,0.3,0.1c0.1,0.1,0.1,0.2,0.1,0.3v2.9c0,0.1,0,0.2-0.1,0.3
			C785.1,383.1,785,383.1,784.8,383.1L784.8,383.1z"/>
		<path class="st3" d="M784.8,380.2c-0.3,0-0.5-0.2-0.5-0.5v-24.5h-42.9v24.5c0,0.3-0.2,0.5-0.5,0.5s-0.5-0.2-0.5-0.5v-24.9
			c0-0.3,0.2-0.5,0.5-0.5h43.8c0.1,0,0.2,0,0.3,0.1c0.1,0.1,0.1,0.2,0.1,0.3v24.9c0,0.1,0,0.2-0.1,0.3
			C785.1,380.2,785,380.2,784.8,380.2L784.8,380.2z"/>
		<path class="st3" d="M764.4,381.6h-2.9c-0.3,0-0.5-0.2-0.5-0.5s0.2-0.5,0.5-0.5h2.9c0.3,0,0.5,0.2,0.5,0.5
			S764.7,381.6,764.4,381.6z"/>
		<path class="st3" d="M781.9,361.3h-5.8c-0.3,0-0.5-0.2-0.5-0.5v-3c0-0.3,0.2-0.5,0.5-0.5h5.8c0.1,0,0.2,0,0.3,0.1
			c0.1,0.1,0.1,0.2,0.1,0.3v3c0,0.1,0,0.2-0.1,0.3C782.2,361.3,782,361.3,781.9,361.3z M776.5,360.4h4.9v-2.1h-4.9V360.4z"/>
		<path class="st3" d="M757.1,392.4h-11.7c-0.3,0-0.5-0.2-0.5-0.5V389c0-0.3,0.2-0.5,0.5-0.5h11.7c0.1,0,0.2,0,0.3,0.1
			c0.1,0.1,0.1,0.2,0.1,0.3v2.9c0,0.1,0,0.2-0.1,0.3C757.3,392.3,757.2,392.4,757.1,392.4L757.1,392.4z M745.9,391.5h10.8v-2h-10.8
			V391.5z"/>
		<path class="st3" d="M780.5,392.4h-11.7c-0.3,0-0.5-0.2-0.5-0.5V389c0-0.3,0.2-0.5,0.5-0.5h11.7c0.1,0,0.2,0,0.3,0.1
			c0.1,0.1,0.1,0.2,0.1,0.3v2.9c0,0.1,0,0.2-0.1,0.3C780.7,392.3,780.6,392.4,780.5,392.4L780.5,392.4z M769.2,391.5H780v-2h-10.8
			V391.5z"/>
		<path class="st3" d="M761.4,359.8h-16c-0.3,0-0.5-0.2-0.5-0.5s0.2-0.5,0.5-0.5h16c0.3,0,0.5,0.2,0.5,0.5S761.6,359.8,761.4,359.8z
			"/>
		<path class="st3" d="M767.4,359.8h-3c-0.3,0-0.5-0.2-0.5-0.5s0.2-0.5,0.5-0.5h3c0.3,0,0.5,0.2,0.5,0.5S767.7,359.8,767.4,359.8z"
			/>
		<path class="st3" d="M761.4,362.7h-16c-0.3,0-0.5-0.2-0.5-0.5c0-0.3,0.2-0.5,0.5-0.5h16c0.3,0,0.5,0.2,0.5,0.5
			C761.8,362.5,761.6,362.7,761.4,362.7z"/>
		<path class="st3" d="M754.2,365.6h-8.8c-0.3,0-0.5-0.2-0.5-0.5c0-0.3,0.2-0.5,0.5-0.5h8.8c0.3,0,0.5,0.2,0.5,0.5
			C754.6,365.4,754.4,365.6,754.2,365.6z"/>
		<path class="st3" d="M757.2,368.5h-11.8c-0.3,0-0.5-0.2-0.5-0.5c0-0.3,0.2-0.5,0.5-0.5h11.8c0.3,0,0.5,0.2,0.5,0.5
			C757.6,368.2,757.4,368.5,757.2,368.5z"/>
		<path class="st3" d="M760,368.5h-0.3c-0.3,0-0.5-0.2-0.5-0.5c0-0.3,0.2-0.5,0.5-0.5h0.3c0.3,0,0.5,0.2,0.5,0.5
			C760.5,368.2,760.3,368.5,760,368.5z"/>
	</g>
	<path class="st3" d="M930.8,299.7h-36.9c-0.4,0-0.8-0.4-0.8-0.8v-21.9c0-1.3,1.1-2.4,2.4-2.4h33.6c1.3,0,2.4,1.1,2.4,2.4v21.9
		C931.6,299.3,931.3,299.7,930.8,299.7L930.8,299.7z M894.7,298.1H930l0-21.1c0-0.5-0.4-0.8-0.8-0.8h-33.6c-0.5,0-0.8,0.4-0.8,0.8
		L894.7,298.1z"/>
	<path class="st3" d="M934.8,312.4h-44.9c-0.9,0-1.7-0.5-2.1-1.2c-0.5-0.8-0.5-1.7-0.1-2.5l5.5-10.3c0.1-0.3,0.4-0.4,0.7-0.4h36.9
		c0.3,0,0.6,0.2,0.7,0.4l5.5,10.3c0.4,0.8,0.4,1.7-0.1,2.5C936.5,312,935.7,312.4,934.8,312.4L934.8,312.4z M894.4,299.7l-5.3,9.8
		c-0.2,0.4-0.1,0.7,0,0.9c0.1,0.1,0.3,0.4,0.8,0.4h44.9c0.4,0,0.7-0.3,0.8-0.4c0.1-0.1,0.2-0.5,0-0.9l-5.3-9.8H894.4z"/>
	<path class="st3" d="M920,312.4h-15.3c-0.3,0-0.5-0.1-0.6-0.3c-0.2-0.2-0.2-0.5-0.1-0.7l1.4-5.1c0.3-1.1,1.3-1.8,2.4-1.8h9.3
		c1.1,0,2.1,0.8,2.4,1.8l1.4,5.1c0.1,0.2,0,0.5-0.1,0.7C920.5,312.3,920.3,312.4,920,312.4L920,312.4z M905.8,310.8H919l-1.1-4.1
		c-0.1-0.4-0.5-0.6-0.8-0.6h-9.3c-0.4,0-0.7,0.3-0.8,0.6L905.8,310.8z"/>
	<g>
		<g>
			<circle class="st1" cx="1044.2" cy="175.3" r="47"/>
			<g>
				<circle class="st2" cx="1044.2" cy="175.3" r="39"/>
			</g>
		</g>
		<path class="st5" d="M1032.9,172.1h-3.2c-0.4,0-0.8-0.4-0.8-0.8v-1.6h-1.6v1.6c0,0.6,0.3,1.3,0.7,1.7c0.5,0.5,1.1,0.7,1.7,0.7h3.2
			V172.1z"/>
		<path class="st5" d="M1027.3,179.4v2.4h1.6v-2.4c0-0.4,0.4-0.8,0.8-0.8h1.6V177h-1.6c-0.6,0-1.3,0.3-1.7,0.7
			S1027.3,178.7,1027.3,179.4L1027.3,179.4z"/>
		<path class="st5" d="M1061.1,169.7h-1.6v1.6c0,0.2-0.1,0.4-0.2,0.6c-0.2,0.2-0.4,0.2-0.6,0.2h-3.2v1.6h3.2c0.6,0,1.3-0.3,1.7-0.7
			c0.5-0.5,0.7-1.1,0.7-1.7V169.7z"/>
		<path class="st5" d="M1061.1,181.8v-2.4c0-0.6-0.3-1.3-0.7-1.7s-1.1-0.7-1.7-0.7h-1.6v1.6h1.6c0.2,0,0.4,0.1,0.6,0.2
			c0.2,0.2,0.2,0.4,0.2,0.6v2.4L1061.1,181.8z"/>
		<path class="st5" d="M1052.2,175.3L1052.2,175.3c0-0.3,0-0.5,0-0.8c0-1.5-0.6-2.9-1.7-4c-1.1-1.1-2.5-1.6-4-1.7
			c-1.7,0-3.3,0.8-4.3,2.1c-0.7-0.3-1.4-0.5-2.2-0.5c-1.3,0-2.5,0.5-3.4,1.4c-0.9,0.9-1.4,2.1-1.4,3.4v0.1c-1,0.3-1.8,1-2.2,2
			c-0.4,1-0.2,2.1,0.4,3c0.6,0.9,1.6,1.4,2.6,1.4h16.1c1.1,0,2.2-0.6,2.8-1.6c0.6-1,0.6-2.2,0-3.2
			C1054.4,176,1053.4,175.3,1052.2,175.3L1052.2,175.3z M1052.2,180.2h-16.1c-0.6,0-1.1-0.3-1.4-0.8s-0.3-1.1,0-1.6
			c0.3-0.5,0.8-0.8,1.4-0.8c0.2,0,0.4-0.1,0.6-0.2c0.2-0.2,0.2-0.4,0.2-0.6v-0.8c0-0.9,0.3-1.7,0.9-2.3c0.6-0.6,1.4-0.9,2.3-0.9
			c0.7,0,1.4,0.3,2,0.7c0.2,0.1,0.4,0.2,0.6,0.1c0.2-0.1,0.4-0.2,0.5-0.4c0.3-0.6,0.8-1.1,1.4-1.5c0.6-0.4,1.3-0.6,1.9-0.6
			c1.1,0,2.1,0.4,2.8,1.2c0.8,0.8,1.2,1.8,1.2,2.8c0,0.5-0.1,0.9-0.2,1.3c-0.1,0.2-0.1,0.5,0.1,0.7c0.2,0.2,0.4,0.3,0.7,0.3h1.1
			c0.6,0,1.1,0.3,1.4,0.8s0.3,1.1,0,1.6C1053.3,179.9,1052.8,180.2,1052.2,180.2L1052.2,180.2z"/>
		<path class="st5" d="M1066.7,162.6v-9c0-0.6-0.3-1.3-0.7-1.7c-0.5-0.5-1.1-0.7-1.7-0.7h-12.9c-0.6,0-1.3,0.3-1.7,0.7
			c-0.5,0.5-0.7,1.1-0.7,1.7v9c-0.7,0.3-1.3,0.8-1.5,1.6c-0.2,0.7-0.1,1.5,0.4,2.1c0.5,0.6,1.2,1,1.9,1h16.1c0.8,0,1.5-0.4,1.9-1
			c0.5-0.6,0.6-1.4,0.4-2.1C1068,163.5,1067.4,162.9,1066.7,162.6L1066.7,162.6z M1050.6,153.6c0-0.4,0.4-0.8,0.8-0.8h12.9
			c0.2,0,0.4,0.1,0.6,0.2c0.2,0.2,0.2,0.4,0.2,0.6v8.8h-5.6c-0.4,0-0.8,0.4-0.8,0.8h-1.6c0-0.2-0.1-0.4-0.2-0.6
			c-0.2-0.2-0.4-0.2-0.6-0.2h-5.6V153.6z M1065.9,165.7h-16.1c-0.4,0-0.8-0.4-0.8-0.8c0-0.4,0.4-0.8,0.8-0.8h5.6
			c0,0.2,0.1,0.4,0.2,0.6c0.2,0.2,0.4,0.2,0.6,0.2h3.2c0.2,0,0.4-0.1,0.6-0.2c0.2-0.2,0.2-0.4,0.2-0.6h5.6c0.4,0,0.8,0.4,0.8,0.8
			C1066.7,165.3,1066.3,165.7,1065.9,165.7z"/>
		<path class="st5" d="M1039.4,194.8v-9c0-0.6-0.3-1.3-0.7-1.7s-1.1-0.7-1.7-0.7h-12.9c-0.6,0-1.3,0.3-1.7,0.7
			c-0.5,0.5-0.7,1.1-0.7,1.7v9c-0.7,0.3-1.3,0.8-1.5,1.6c-0.2,0.7-0.1,1.5,0.4,2.1c0.5,0.6,1.2,1,1.9,1h16.1c0.8,0,1.5-0.4,1.9-1
			c0.5-0.6,0.6-1.4,0.4-2.1C1040.6,195.6,1040.1,195,1039.4,194.8L1039.4,194.8z M1024.1,185h12.9c0.2,0,0.4,0.1,0.6,0.2
			c0.2,0.2,0.2,0.4,0.2,0.6v8.8h-5.6c-0.4,0-0.8,0.4-0.8,0.8h-1.6c0-0.2-0.1-0.4-0.2-0.6c-0.2-0.2-0.4-0.2-0.6-0.2h-5.6v-8.8
			C1023.3,185.4,1023.6,185,1024.1,185z M1038.6,197.9h-16.1c-0.4,0-0.8-0.4-0.8-0.8c0-0.4,0.4-0.8,0.8-0.8h5.6
			c0,0.2,0.1,0.4,0.2,0.6c0.2,0.2,0.4,0.2,0.6,0.2h3.2c0.2,0,0.4-0.1,0.6-0.2c0.2-0.2,0.2-0.4,0.2-0.6h5.6c0.4,0,0.8,0.4,0.8,0.8
			C1039.4,197.5,1039,197.9,1038.6,197.9z"/>
		<path class="st5" d="M1033.7,151.2h-11.3c-0.6,0-1.3,0.3-1.7,0.7c-0.5,0.5-0.7,1.1-0.7,1.7v8c0,0.6,0.3,1.3,0.7,1.7
			s1.1,0.7,1.7,0.7h2.8l-0.7,1.8c-0.2,0.5-0.1,1.1,0.2,1.5c0.3,0.4,0.8,0.7,1.3,0.7h4.1c0.5,0,1-0.3,1.3-0.7c0.3-0.4,0.4-1,0.2-1.5
			l-0.7-1.8h2.8c0.6,0,1.3-0.3,1.7-0.7s0.7-1.1,0.7-1.7v-8c0-0.6-0.3-1.3-0.7-1.7S1034.4,151.2,1033.7,151.2L1033.7,151.2z
			 M1026.1,166.5l1-2.4h2.1l1,2.4H1026.1z M1034.5,161.7c0,0.2-0.1,0.4-0.2,0.6c-0.2,0.2-0.4,0.2-0.6,0.2h-11.3
			c-0.4,0-0.8-0.4-0.8-0.8v-0.8h12.9V161.7z M1034.5,159.3h-12.9v-5.6c0-0.4,0.4-0.8,0.8-0.8h11.3c0.2,0,0.4,0.1,0.6,0.2
			s0.2,0.4,0.2,0.6V159.3z"/>
		<path class="st5" d="M1065.9,182.6h-11.3c-0.6,0-1.3,0.3-1.7,0.7c-0.5,0.5-0.7,1.1-0.7,1.7v8c0,0.6,0.3,1.3,0.7,1.7
			s1.1,0.7,1.7,0.7h2.8l-0.7,1.8c-0.2,0.5-0.1,1.1,0.2,1.5c0.3,0.4,0.8,0.7,1.3,0.7h4.1c0.5,0,1-0.3,1.3-0.7c0.3-0.4,0.4-1,0.2-1.5
			l-0.7-1.8h2.8c0.6,0,1.3-0.3,1.7-0.7c0.5-0.5,0.7-1.1,0.7-1.7v-8c0-0.6-0.3-1.3-0.7-1.7S1066.5,182.6,1065.9,182.6L1065.9,182.6z
			 M1058.2,197.9l1-2.4h2.1l1,2.4H1058.2z M1066.7,193c0,0.2-0.1,0.4-0.2,0.6c-0.2,0.2-0.4,0.2-0.6,0.2h-11.3
			c-0.4,0-0.8-0.4-0.8-0.8v-0.8h12.9V193z M1066.7,190.6h-12.9V185c0-0.4,0.4-0.8,0.8-0.8h11.3c0.2,0,0.4,0.1,0.6,0.2
			c0.2,0.2,0.2,0.4,0.2,0.6V190.6z"/>
	</g>
</g>
</svg>
