<?xml version="1.0" encoding="UTF-8"?>
<svg id="Layer_2" data-name="Layer 2" xmlns="http://www.w3.org/2000/svg" viewBox="0 0 1201.73 622.39">
  <defs>
    <style>
      .cls-1 {
        letter-spacing: -.01em;
      }

      .cls-2, .cls-3 {
        fill: #fff;
      }

      .cls-4 {
        fill: #e05a73;
      }

      .cls-5 {
        fill: #df5a73;
      }

      .cls-6 {
        fill: #6fc1ba;
      }

      .cls-7 {
        letter-spacing: -.03em;
      }

      .cls-8 {
        letter-spacing: -.03em;
      }

      .cls-9 {
        letter-spacing: -.01em;
      }

      .cls-10 {
        letter-spacing: 0em;
      }

      .cls-11 {
        letter-spacing: -.03em;
      }

      .cls-12 {
        fill: #2d2264;
        font-size: 22.51px;
      }

      .cls-12, .cls-3 {
        font-family: Raleway-ExtraBold, Raleway;
        font-weight: 700;
      }

      .cls-13 {
        letter-spacing: 0em;
      }

      .cls-14 {
        fill: none;
        stroke: #000;
        stroke-miterlimit: 10;
      }

      .cls-15 {
        letter-spacing: -.01em;
      }

      .cls-16 {
        letter-spacing: -.03em;
      }

      .cls-17 {
        letter-spacing: -.02em;
      }

      .cls-18 {
        letter-spacing: 0em;
      }

      .cls-19 {
        letter-spacing: -.02em;
      }

      .cls-20 {
        letter-spacing: 0em;
      }

      .cls-3 {
        font-size: 24.3px;
      }

      .cls-21 {
        letter-spacing: -.07em;
      }

      .cls-22 {
        letter-spacing: -.03em;
      }
    </style>
  </defs>
  <g id="Layer_2-2" data-name="Layer 2">
    <g>
      <path class="cls-14" d="m39.68,523.36s821.21,0,1057.86-427.58"/>
      <g>
        <circle class="cls-6" cx="912.72" cy="293.44" r="47.01"/>
        <circle class="cls-2" cx="912.72" cy="293.44" r="38.98"/>
      </g>
      <polyline class="cls-14" points="1069.23 107.44 1107.07 74.12 1113.84 128.33"/>
      <rect class="cls-5" x="935.78" width="262.82" height="47.84"/>
      <text class="cls-3" transform="translate(951.41 33.66)"><tspan x="0" y="0">EDU</tspan><tspan class="cls-1" x="50.11" y="0">C</tspan><tspan class="cls-22" x="66.58" y="0">A</tspan><tspan class="cls-1" x="82.23" y="0">Ç</tspan><tspan class="cls-22" x="98.68" y="0">Ã</tspan><tspan x="114.33" y="0">O DIGI</tspan><tspan class="cls-21" x="188.22" y="0">T</tspan><tspan x="201.61" y="0">A</tspan><tspan class="cls-11" x="217.89" y="0">L</tspan></text>
      <text class="cls-12" transform="translate(30.06 617.19)"><tspan x="0" y="0">ANTIGUI</tspan><tspan class="cls-16" x="92.93" y="0">D</tspan><tspan x="108.48" y="0">ADE</tspan></text>
      <text class="cls-12" transform="translate(227.34 590.09)"><tspan class="cls-19" x="0" y="0">E</tspan><tspan x="13.14" y="0">S</tspan><tspan class="cls-13" x="26.98" y="0">C</tspan><tspan x="42.31" y="0">OL</tspan><tspan class="cls-15" x="72.58" y="0">Á</tspan><tspan class="cls-18" x="87.41" y="0">S</tspan><tspan x="101.14" y="0">TI</tspan><tspan class="cls-20" x="121.87" y="0">C</tspan><tspan class="cls-7" x="137.13" y="0">A</tspan></text>
      <text class="cls-12" transform="translate(427.75 559.97)"><tspan class="cls-13" x="0" y="0">C</tspan><tspan x="15.33" y="0">OL</tspan><tspan class="cls-19" x="45.6" y="0">E</tspan><tspan x="58.74" y="0">GIADO</tspan></text>
      <text class="cls-12" transform="translate(600.38 518.96)"><tspan class="cls-19" x="0" y="0">E</tspan><tspan x="13.14" y="0">S</tspan><tspan class="cls-13" x="26.98" y="0">C</tspan><tspan x="42.31" y="0">OL</tspan><tspan class="cls-8" x="72.58" y="0">A</tspan></text>
      <text class="cls-12" transform="translate(763.28 458.95)"><tspan class="cls-9" x="0" y="0">S</tspan><tspan x="13.57" y="0">AL</tspan><tspan class="cls-8" x="41.82" y="0">A</tspan><tspan x="56.2" y="0" xml:space="preserve"> DE</tspan><tspan class="cls-8" x="91.04" y="0" xml:space="preserve"> A</tspan><tspan class="cls-10" x="109.96" y="0">UL</tspan><tspan class="cls-7" x="139.94" y="0">A</tspan></text>
      <text class="cls-12" transform="translate(911 376.43)"><tspan x="0" y="0">PERIFÉRI</tspan><tspan class="cls-13" x="97.45" y="0">C</tspan><tspan x="112.78" y="0">OS</tspan></text>
      <text class="cls-12" transform="translate(1042.53 254.47)"><tspan class="cls-9" x="0" y="0">S</tspan><tspan x="13.57" y="0">AL</tspan><tspan class="cls-15" x="41.82" y="0">A</tspan><tspan x="56.65" y="0">S</tspan><tspan x="0" y="27.01">INTELIGENT</tspan><tspan class="cls-17" x="132.22" y="27.01">E</tspan><tspan class="cls-10" x="145.36" y="27.01">S</tspan></text>
      <g>
        <g>
          <circle class="cls-6" cx="47.01" cy="523.36" r="47.01"/>
          <circle class="cls-2" cx="47.01" cy="523.36" r="38.98"/>
        </g>
        <path class="cls-5" d="m62.68,536.25c.78-.82,1.18-1.93,1.1-3.06-.04-.69-.5-6.77-4.14-9.04-1.97-1.21-4.5-1.22-6.89-.76h0c-.86-1.72-1.24-3.64-1.12-5.56.63-.21,1.2-.54,1.7-.98,2.69-2.22,3.71-4.27,4.08-5.29h0c.61-1.66,1.03-3.39,1.26-5.15.05-.97.18-3.23-2.27-4.1l-.33-.11h0c.13-.41.16-.84.06-1.26-.22-.7-.66-1.32-1.26-1.74-.09-.61-.41-1.16-.91-1.53-.53-.35-1.16-.52-1.79-.49-.35-1.03-1.58-1.42-2.53-1.51h0c-.37-.48-.89-.83-1.48-1-.59-.16-1.21-.13-1.78.09-.43-.41-.97-.68-1.56-.78-.59-.1-1.19-.02-1.73.23-.55-.21-1.16-.26-1.74-.12-.58.13-1.11.44-1.51.87-.54-.14-1.12-.11-1.64.08-.69.23-1.28.69-1.67,1.3h-.08c-1.03-.4-2.19-.25-3.08.39-.06.04-.1.1-.14.16l-.11.14c-.5.83-1.66,2.79-.39,4.56.41.56.73.97,1,1.26h0c-.35.93-.45,1.95-.27,2.93l.04.2h0c.22.6.18,1.27-.13,1.83-.26.48-.58.93-.95,1.33-.58.69-1.1,1.41-1.57,2.18-.6.95-.76,1.68-.51,2.25.16.3.43.53.76.63.37.24.79.4,1.23.47.07,0,.13.03.17.09.05.11.04.24-.01.34-.24.44-.27.97-.07,1.44.19.4.56.69,1,.79l1.47.38-.68.43c-.35.18-.59.53-.63.92,0,.51.44.8.8,1.02.12.07.23.15.33.23.03.02.05.04.07.06,0,.14-.03.29-.08.42-.09.32-.15.64-.18.97-.11.6.06,1.22.46,1.68.4.4.96.6,1.52.54.27-.02.54-.02.81,0,.79.07,1.58.07,2.37,0,1.31-.11,1.73.63,2.29,1.79l.1.22c.15.31.23.64.23.99,0,.17,0,.35,0,.52-2.14,1.05-4.2,2.26-6.15,3.63-.83.64-1.55,1.4-2.14,2.27-.37.53-.53,1.17-.45,1.81.08.64.39,1.23.87,1.65.48.43,1.1.66,1.74.66h3.56c-.14.27-.21.58-.21.88,0,.51.2,1.01.55,1.38s.83.6,1.35.63c-.2.32-.31.7-.32,1.08,0,.42.13.82.37,1.16.24.34.58.6.98.73l.25.2c.63.5,1.64,1.33,1.64,2.08,0,.92-.21,1.04-.74,1.31-.11.04-.56.14-.96.22-2.46.51-7.58,1.56-7.45,4.96h0c.01.3.27.54.57.54h25.33c.3,0,.55-.23.56-.54.14-3.4-4.99-4.42-7.45-4.96h0c-.32-.06-.64-.13-.95-.22-.52-.28-.75-.39-.75-1.31,0-.75,1.03-1.58,1.64-2.08l.25-.2h0c.39-.14.74-.39.98-.73.24-.34.38-.75.38-1.16,0-.38-.11-.76-.32-1.08.51-.03.99-.26,1.35-.63.35-.37.55-.87.55-1.38,0-.31-.08-.61-.21-.88h2.53c1.16,0,2.27-.47,3.06-1.32h0Zm-24.11-40.12c.37-.16.8-.16,1.17,0,.27.16.61.07.78-.2.08-.13.78-1.2,2.41-.58h0c.14.06.31.06.45,0,.07-.04,1.58-.78,2.37.43h0c.16.25.49.33.75.19.4-.23.87-.31,1.32-.2.45.11.84.38,1.09.77.1.16.27.25.46.26,0,0,1.79.07,1.79,1.01,0,.17.08.33.21.44.14.1.31.14.47.11.5-.1,1.03-.02,1.48.23.3.24.48.6.49.98.02.17.12.33.27.42.14.09,1.26.81.91,1.89-3.88-1.21-13.77-4.14-17.27-5.17.24-.27.54-.47.88-.59h0Zm-4.46,1.5l.03-.06c.59-.35,1.3-.41,1.94-.16.19.05,17.99,5.31,19.91,5.99,1.52.54,1.59,1.76,1.52,2.97-.21,1.65-.6,3.26-1.16,4.83-.33.91-1.26,2.75-3.75,4.81-.57.56-1.35.87-2.15.85-.32-.03-.62-.17-.86-.39-.09-.15-.29-.47.27-1.11h0c.47-.54.79-1.19.94-1.89.06-.24.13-.5.24-.8h0c.27-.57.35-1.22.22-1.84-.13-.62-.46-1.18-.94-1.6-.39-.38-.92-.59-1.46-.58-.64.04-1.27.21-1.86.49l-.42.16c-1,.37-1.64,2.09-1.89,3.06l-1.5-.17c.14-.64.2-1.29.16-1.95-.01-.54.01-1.08.08-1.62.13-.79-.03-1.59-.45-2.27-.41-.68-1.06-1.19-1.81-1.43-.39-.11-.72-.18-1.03-.25-.44-.07-.87-.22-1.26-.44-.57-.43-1.11-.9-1.59-1.43-.15-.16-.38-.22-.59-.15-.21.07-.36.25-.38.47-.02.21-.02.42,0,.63-.26-.25-.49-.47-.63-.63l-.12-.1c-.7-.6-1.31-1.3-1.81-2.08-.85-1.07-.26-2.27.37-3.31h0Zm5.43,25.26c-.73.07-1.46.07-2.19,0-.32-.02-.63-.02-.95,0-.23.02-.45-.04-.63-.19-.15-.23-.21-.51-.16-.78.03-.28.09-.56.16-.83.26-.57.11-1.24-.38-1.64-.14-.11-.28-.21-.43-.3l-.12-.08c.85-.54,1.74-1.05,1.76-1.06h0c.2-.12.31-.34.28-.57-.03-.23-.2-.41-.42-.47,0,0-2.08-.53-2.77-.72-.11-.02-.21-.08-.27-.18-.05-.17-.02-.34.07-.49.22-.42.22-.92,0-1.34-.22-.36-.6-.59-1.02-.63-.3-.07-.58-.2-.83-.37-.08-.06-.17-.1-.27-.13,0,0-.13-.3.43-1.18.45-.71.95-1.38,1.5-2.01.44-.47.82-1,1.12-1.58.42-.79.49-1.72.21-2.57l-.04-.2h0c-.12-.6-.09-1.22.07-1.81l.1.09.11.09c.15.13.37.35.63.59.47.49.98.94,1.52,1.35.21.14.49.13.68-.04.19-.17.24-.44.14-.67-.04-.09-.11-.27-.19-.47.2.16.4.32.57.44.51.3,1.07.49,1.65.59.28.06.59.13.95.23h0c.5.17.92.51,1.19.96.27.45.36.98.27,1.5-.07.59-.1,1.18-.08,1.77.07.73-.04,1.47-.33,2.15-.09.17-.09.36,0,.53.09.16.25.28.44.3l2.72.32h0c.29.04.56-.14.63-.42.3-1.21.92-2.6,1.35-2.77l.45-.18c.98-.4,1.61-.63,2.13-.13.67.63.78,1.21.42,2.24-.11.33-.2.63-.27.88h0c-.1.54-.34,1.05-.7,1.46-.77.87-.88,1.71-.4,2.46.38.5.94.82,1.56.89h.26,0c-.09,1.96.3,3.91,1.13,5.68-.87.23-1.73.5-2.57.81-1.38.52-3.52,1.47-5.62,2.53h0c-.02-.49-.14-.97-.35-1.41l-.1-.21c-.52-1.11-1.24-2.6-3.41-2.43h0Zm-4.69,12.73c-.26-.49-.22-1.08.09-1.53.53-.76,1.16-1.44,1.89-2.01,1.98-1.4,4.07-2.62,6.25-3.66,2.32-1.17,4.82-2.31,6.32-2.87,1.93-.76,3.97-1.19,6.04-1.26,1.24-.05,2.47.24,3.56.84,2.6,1.6,3.51,5.88,3.64,8.17.05.81-.24,1.61-.8,2.2-.56.6-1.35.94-2.17.93h-23.51c-.56,0-1.07-.3-1.33-.8h0Zm16.53,10.11h0c-.06.48.03.97.28,1.39.25.42.63.75,1.08.93.41.16.83.27,1.26.32,1.84.38,5.94,1.23,6.49,3.27h-24.1c.56-2.04,4.66-2.89,6.49-3.27h0c.43-.06.86-.16,1.26-.32.45-.18.83-.51,1.07-.93.24-.42.34-.91.28-1.39-.08-.84-.5-1.62-1.15-2.16h8.17c-.65.53-1.06,1.3-1.14,2.13v.03Zm2.36-3.28h-10.6c-.49,0-.89-.4-.89-.89s.4-.89.89-.89h10.6c.49,0,.89.4.89.89s-.4.89-.89.89h0Zm2.49-3.98c0,.49-.4.89-.89.89h-13.8c-.25.02-.49-.06-.68-.23-.18-.17-.29-.41-.29-.66s.1-.49.29-.66c.18-.17.43-.25.68-.23h13.8c.48,0,.87.38.89.86v.03Z"/>
      </g>
      <g>
        <g>
          <circle class="cls-6" cx="228.69" cy="510.96" r="47.01"/>
          <circle class="cls-2" cx="228.69" cy="510.96" r="38.98"/>
        </g>
        <path class="cls-5" d="m227.94,538.43s-.1,0-.15,0c-.59-.05-1.16-.36-1.59-.86-.79-.94-.8-2.2-.03-2.87l1.97-1.71.41-.43c.06-.05.07-.08.07-.08,0-.08-.15-.39-.26-.59-.06-.12-.12-.24-.19-.37l-.47-.97c-1.12-.07-2.22-.25-3.23-.51.13.27.24.49.33.66.41.81.46.95.42,1.8-.02.51-.24.96-.6,1.28l-4.98,4.26c-.4.34-.95.48-1.5.37-.51-.1-1-.38-1.36-.81-.36-.43-.57-.95-.59-1.47-.02-.57.2-1.09.6-1.43l2.32-1.98c.2-.17.23-.23.24-.24,0-.1-.22-.53-.42-.95l-.21-.42-4.19-8.62-.53-1c-.73-1.37-.6-2.9.32-3.9l5.31-5.77c-.23-.39-.38-.81-.38-1.2v-11.89c0-2.84,1.35-5.13,3.17-5.56v-5.28c0-2.41,1.96-4.37,4.37-4.37s4.37,1.96,4.37,4.37v3.91c5.35.16,9.46,2.32,9.46,5.04v10.24c.47.99.49,2.09.1,3.03,1.98,1.07,3.11,2.55,3.11,4.12v10.64c0,3.17-4.43,5.66-10.14,5.74l.55,1.48c.19.73,0,1.45-.49,1.88l-4.73,4.11c-.3.26-.68.39-1.08.39h0Zm1.47-4.95l-.4.43-2,1.74c-.21.18-.18.68.17,1.09.2.24.47.4.71.41.12.01.22-.02.3-.08l4.73-4.11c.12-.11.16-.32.11-.57l-.9-2.41-2.9-6.7c-.67-1.45-.24-2.02.57-2.91l8.28-9-7.38,4.54c-1.11.68-2.55.42-3.37-.57l-2.61,2.84c-.62.67-.75,1.7-.34,2.6l.93,1.87,4.02,8.28c.06.12.12.23.17.34.32.61.75,1.45-.09,2.2h0Zm-8.98-20.69l-5.18,5.63c-.55.6-.6,1.55-.13,2.44l.54,1.02,4.4,9.06c.59,1.18.91,1.84-.13,2.72l-2.32,1.98c-.14.12-.16.32-.16.42,0,.23.11.48.28.68.17.2.4.34.63.39.1.02.3.03.44-.09l4.98-4.26c.12-.1.15-.26.16-.36q.03-.56-.28-1.17c-.13-.26-.31-.62-.55-1.13l-3.16-6.83c-.63-1.35-.49-1.77.37-2.69l6.39-6.94c0-.88.43-1.73,1.23-2.22l5.91-3.64q.39-.24.39-.53v-8.18h1.27v8.18c0,.93-.43,1.26-1,1.61l-5.91,3.64c-.62.38-.81,1.21-.42,1.85.39.64,1.22.85,1.84.46l8.71-5.36c.32-.2.54-.53.6-.91v-1.27s0-10.5,0-10.5c0-1.71-3.33-3.61-8.18-3.77v.92c0,1.71-.99,3.19-2.42,3.91.13.04.27.09.4.16,1.29.66,1.76,2.34,1.05,3.74l-5.26,10.32c-.34.67-.9,1.18-1.57,1.44-.7.27-1.43.24-2.07-.09-.27-.13-.57-.36-.87-.65h0Zm12.78,16.51h.19c4.96,0,9.16-2.05,9.16-4.47v-10.64c0-1.11-.92-2.21-2.53-3.05l-9.3,10.11c-.68.74-.7.77-.35,1.53l2.83,6.53Zm-9.45-.82c1,.35,2.12.59,3.3.72l-3.84-7.86c-.24-.53-.36-1.08-.36-1.62l-1.61,1.75q-.5.53-.15,1.29l2.65,5.72Zm-3.24-29.79v11.89c0,.49.8,1.45,1.35,1.72.31.16.68.17,1.03.03.38-.15.7-.44.9-.83l5.26-10.32c.4-.78.18-1.69-.49-2.03-.67-.34-1.53.02-1.93.8l-3.09,6.07-1.13-.58,1.95-3.83v-2.12h1.08l.06-.12c.22-.44.54-.8.9-1.07-2.06-.18-3.72-1.81-3.96-3.86-1.09.48-1.92,2.23-1.92,4.23h0Zm6.27-13.94c-1.71,0-3.1,1.39-3.1,3.1v6.11c0,1.71,1.39,3.1,3.1,3.1s3.1-1.39,3.1-3.1v-6.11c0-1.71-1.39-3.1-3.1-3.1Z"/>
      </g>
      <g>
        <g>
          <circle class="cls-6" cx="420.9" cy="481.27" r="47.01"/>
          <circle class="cls-2" cx="420.9" cy="481.27" r="38.98"/>
        </g>
        <path class="cls-5" d="m442.52,476.78l-22.01-9.31c-.23-.12-.46-.12-.69,0l-22.01,9.31c-.34.12-.57.46-.57.8s.23.69.57.8l9.6,4.02v9.25c0,.34.23.69.57.8l11.9,5c.12.06.23.06.34.06s.23,0,.34-.06l11.9-5c.34-.12.57-.46.57-.8v-9.25l2.53-1.09v10.69l-2.82,8.16c-.12.29-.06.57.12.8.17.23.46.4.75.4h5.69c.29,0,.57-.12.75-.4.17-.23.23-.52.12-.8l-2.76-8.16v-11.38s5.29-2.24,5.29-2.24c.34-.12.57-.46.57-.8-.17-.34-.4-.69-.75-.8h0Zm-7.7,22.81l1.55-4.6,1.55,4.6h-3.1Zm-3.68-8.5l-10.98,4.6-10.98-4.6v-7.87l10.63,4.48c.12.06.23.06.34.06s.23,0,.34-.06l10.63-4.48v7.87Zm-10.98-5.23l-19.71-8.28,19.71-8.28,19.71,8.28-19.71,8.28Z"/>
        <path class="cls-5" d="m415.85,476.66c0,1.55,1.84,2.76,4.31,2.76s4.31-1.21,4.31-2.76-1.84-2.76-4.31-2.76-4.31,1.21-4.31,2.76Zm6.84,0c0,.29-.86.98-2.53.98s-2.53-.69-2.53-.98.86-.98,2.53-.98,2.53.69,2.53.98Z"/>
      </g>
      <g>
        <g>
          <circle class="cls-6" cx="596.46" cy="439.29" r="47.01"/>
          <circle class="cls-2" cx="596.46" cy="439.29" r="38.98"/>
        </g>
        <path class="cls-5" d="m589.47,462.06h-13.98c-.39,0-.7-.31-.7-.7v-28.67c0-.39.31-.7.7-.7s.7.31.7.7v27.97h13.29c.39,0,.7.31.7.7,0,.39-.31.7-.7.7h0Z"/>
        <path class="cls-5" d="m617.44,462.06h-13.98c-.39,0-.7-.31-.7-.7s.31-.7.7-.7h13.29v-27.97c0-.39.31-.7.7-.7s.7.31.7.7v28.67c0,.39-.31.7-.7.7h0Z"/>
        <path class="cls-5" d="m585.97,462.06c-.39,0-.7-.31-.7-.7v-28.67c0-.39.31-.7.7-.7s.7.31.7.7v28.67c0,.39-.31.7-.7.7h0Z"/>
        <path class="cls-5" d="m606.95,432c-.39,0-.7.31-.7.7v28.67c0,.39.31.7.7.7s.7-.31.7-.7v-28.67c0-.39-.31-.7-.7-.7h0Z"/>
        <path class="cls-5" d="m583.18,441.79h-4.89c-.39,0-.7-.31-.7-.7v-2.45c0-1.74,1.41-3.15,3.15-3.15s3.15,1.41,3.15,3.15v2.45c0,.39-.31.7-.7.7h0Zm-4.2-1.4h3.5v-1.75c0-.97-.78-1.75-1.75-1.75s-1.75.78-1.75,1.75v1.75Z"/>
        <path class="cls-5" d="m594.37,443.88h-4.89c-.39,0-.7-.31-.7-.7v-2.45c0-1.74,1.41-3.15,3.15-3.15s3.15,1.41,3.15,3.15v2.45c0,.39-.31.7-.7.7h0Zm-4.2-1.4h3.5v-1.75c0-.97-.78-1.75-1.75-1.75s-1.75.78-1.75,1.75v1.75Z"/>
        <path class="cls-5" d="m603.46,443.88h-4.89c-.39,0-.7-.31-.7-.7v-2.45c0-1.74,1.41-3.15,3.15-3.15s3.15,1.41,3.15,3.15v2.45c0,.39-.31.7-.7.7h0Zm-4.2-1.4h3.5v-1.75c0-.97-.78-1.75-1.75-1.75s-1.75.78-1.75,1.75v1.75Z"/>
        <path class="cls-5" d="m583.18,450.18h-4.89c-.39,0-.7-.31-.7-.7v-2.45c0-1.74,1.41-3.15,3.15-3.15s3.15,1.41,3.15,3.15v2.45c0,.39-.31.7-.7.7h0Zm-4.2-1.4h3.5v-1.75c0-.97-.78-1.75-1.75-1.75s-1.75.78-1.75,1.75v1.75Z"/>
        <path class="cls-5" d="m583.18,458.57h-4.89c-.39,0-.7-.31-.7-.7v-2.45c0-1.74,1.41-3.15,3.15-3.15s3.15,1.41,3.15,3.15v2.45c0,.39-.31.7-.7.7h0Zm-4.2-1.4h3.5v-1.75c0-.97-.78-1.75-1.75-1.75s-1.75.78-1.75,1.75v1.75Z"/>
        <path class="cls-5" d="m614.64,441.79h-4.89c-.39,0-.7-.31-.7-.7v-2.45c0-1.74,1.41-3.15,3.15-3.15s3.15,1.41,3.15,3.15v2.45c0,.39-.31.7-.7.7h0Zm-4.2-1.4h3.5v-1.75c0-.97-.78-1.75-1.75-1.75s-1.75.78-1.75,1.75v1.75Z"/>
        <path class="cls-5" d="m614.64,450.18h-4.89c-.39,0-.7-.31-.7-.7v-2.45c0-1.74,1.41-3.15,3.15-3.15s3.15,1.41,3.15,3.15v2.45c0,.39-.31.7-.7.7h0Zm-4.2-1.4h3.5v-1.75c0-.97-.78-1.75-1.75-1.75s-1.75.78-1.75,1.75v1.75Z"/>
        <path class="cls-5" d="m614.64,458.57h-4.89c-.39,0-.7-.31-.7-.7v-2.45c0-1.74,1.41-3.15,3.15-3.15s3.15,1.41,3.15,3.15v2.45c0,.39-.31.7-.7.7h0Zm-4.2-1.4h3.5v-1.75c0-.97-.78-1.75-1.75-1.75s-1.75.78-1.75,1.75v1.75Z"/>
        <path class="cls-5" d="m601.36,419.41h-4.89c-.39,0-.7-.31-.7-.7v-3.5c0-.39.31-.7.7-.7h4.89c.39,0,.7.31.7.7v3.5c0,.39-.31.7-.7.7Zm-4.2-1.4h3.5v-2.1h-3.5v2.1Z"/>
        <path class="cls-5" d="m596.46,422.21c-.39,0-.7-.31-.7-.7v-2.8c0-.39.31-.7.7-.7s.7.31.7.7v2.8c0,.39-.31.7-.7.7h0Z"/>
        <path class="cls-5" d="m596.46,436.89c-2.7,0-4.89-2.2-4.89-4.89s2.2-4.89,4.89-4.89,4.89,2.2,4.89,4.89-2.2,4.89-4.89,4.89Zm0-8.39c-1.93,0-3.5,1.57-3.5,3.5s1.57,3.5,3.5,3.5,3.5-1.57,3.5-3.5c0-1.93-1.57-3.5-3.5-3.5Z"/>
        <path class="cls-5" d="m596.67,433.19l-.7-.7c-.13-.13-.2-.31-.2-.49v-1.4c0-.39.31-.7.7-.7s.7.31.7.7v1.11l.49.49c.27.27.27.72,0,.99-.27.27-.72.27-.99,0h0Z"/>
        <path class="cls-5" d="m603.46,462.06h-13.98c-.39,0-.7-.31-.7-.7v-14.68c0-.39.31-.7.7-.7h13.98c.39,0,.7.31.7.7v14.68c0,.39-.31.7-.7.7h0Zm-13.29-1.4h12.59v-13.29h-12.59v13.29Z"/>
        <path class="cls-5" d="m596.46,462.06c-.39,0-.7-.31-.7-.7v-11.19c0-.39.31-.7.7-.7s.7.31.7.7v11.19c0,.39-.31.7-.7.7Z"/>
        <path class="cls-5" d="m603.46,450.88h-13.98c-.39,0-.7-.31-.7-.7s.31-.7.7-.7h13.98c.39,0,.7.31.7.7s-.31.7-.7.7Z"/>
        <path class="cls-5" d="m599.26,457.17c-.39,0-.7-.31-.7-.7v-1.4c0-.39.31-.7.7-.7s.7.31.7.7v1.4c0,.39-.31.7-.7.7Z"/>
        <path class="cls-5" d="m593.67,457.17c-.39,0-.7-.31-.7-.7v-1.4c0-.39.31-.7.7-.7s.7.31.7.7v1.4c0,.39-.31.7-.7.7Z"/>
        <path class="cls-5" d="m619.54,433.4h-12.59c-.19,0-.38-.08-.51-.22-9.05-9.53-8.64-9.09-8.66-9.11l-1.32-1.5-1.33,1.5c-.26.29-.7.32-.99.06s-.32-.7-.06-.99l1.85-2.1c.28-.31.77-.32,1.05,0l1.64,1.86h15.31c.24,0,.47.13.6.33l5.59,9.09c.29.46-.05,1.07-.6,1.07h0Zm-12.29-1.4h11.04l-4.73-7.69h-13.61s7.31,7.69,7.31,7.69Z"/>
        <path class="cls-5" d="m595.26,423.33c-.11-.26-.36-.42-.64-.42h-15.63c-.24,0-.47.13-.6.33l-5.59,9.09c-.29.47.05,1.07.6,1.07h12.59c.19,0,.38-.08.51-.22l8.64-9.09c.19-.2.25-.5.14-.76h0Zm-9.58,8.67h-11.04l4.73-7.69h13.61l-7.31,7.69Z"/>
      </g>
      <g>
        <g>
          <circle class="cls-6" cx="763.28" cy="376.43" r="47.01"/>
          <circle class="cls-2" cx="763.28" cy="376.43" r="38.98"/>
        </g>
        <path class="cls-5" d="m742.84,399.12c-.25,0-.46-.2-.46-.46v-15.97c0-.25.2-.46.46-.46s.46.2.46.46v15.97c0,.12-.05.24-.13.32-.09.09-.2.13-.32.13Z"/>
        <path class="cls-5" d="m760.45,399.12c-.25,0-.46-.2-.46-.46v-15.97c0-.25.2-.46.46-.46s.46.2.46.46v15.97c0,.12-.05.24-.13.32-.09.09-.2.13-.32.13h0Z"/>
        <path class="cls-5" d="m756.53,384.51h-9.86c-.36,0-.71-.14-.97-.4-.26-.26-.4-.6-.4-.97v-5.48c0-.36.14-.71.4-.97.26-.26.6-.4.97-.4h9.86c.36,0,.71.14.97.4.26.26.4.6.4.97v5.48c0,.36-.14.71-.4.97-.26.26-.6.4-.97.4Zm-9.86-7.3c-.25,0-.46.2-.46.46v5.48c0,.12.05.24.13.32.09.09.2.13.32.13h9.86c.12,0,.24-.05.32-.13s.13-.2.13-.32v-5.48c0-.12-.05-.24-.13-.32s-.2-.13-.32-.13h-9.86Z"/>
        <path class="cls-5" d="m756.62,399.12c-.24,0-.44-.18-.46-.42l-1.28-17.82c-.03-.16-.21-.83-1.1-.83h-4.38c-.88,0-.99.68-1,.82l-1.28,17.83c-.02.25-.24.44-.49.42s-.44-.24-.42-.49l1.28-17.84c.04-.57.5-1.66,1.92-1.66h4.38c1.39,0,1.92,1.06,2,1.63v.03l1.28,17.84h0c0,.12-.03.24-.11.33s-.19.15-.31.16h-.03Z"/>
        <path class="cls-5" d="m760.45,387.53h-17.61c-.25,0-.46-.2-.46-.46s.2-.46.46-.46h17.61c.25,0,.46.2.46.46s-.2.46-.46.46Z"/>
        <path class="cls-5" d="m745.59,383.15h-4.21c-.25,0-.46-.2-.46-.46v-2.92c0-.25.2-.46.46-.46h4.3c.25,0,.46.2.46.46s-.2.46-.46.46h-3.85v2.01h3.76c.25,0,.46.2.46.46s-.2.46-.46.46h0Z"/>
        <path class="cls-5" d="m761.82,383.15h-4.27c-.25,0-.46-.2-.46-.46s.2-.46.46-.46h3.82v-2.01h-3.88c-.25,0-.46-.2-.46-.46s.2-.46.46-.46h4.33c.12,0,.24.05.32.13s.13.2.13.32v2.92c0,.12-.05.24-.13.32s-.2.13-.32.13h0Z"/>
        <path class="cls-5" d="m766.2,399.12c-.25,0-.46-.2-.46-.46v-15.97c0-.25.2-.46.46-.46s.46.2.46.46v15.97c0,.12-.05.24-.13.32-.09.09-.2.13-.32.13h0Z"/>
        <path class="cls-5" d="m783.81,399.12c-.25,0-.46-.2-.46-.46v-15.97c0-.25.2-.46.46-.46s.46.2.46.46v15.97c0,.12-.05.24-.13.32s-.2.13-.32.13Z"/>
        <path class="cls-5" d="m779.89,384.51h-9.86c-.36,0-.71-.14-.97-.4-.26-.26-.4-.6-.4-.97v-5.48c0-.36.14-.71.4-.97.26-.26.6-.4.97-.4h9.86c.36,0,.71.14.97.4.26.26.4.6.4.97v5.48c0,.36-.14.71-.4.97-.26.26-.6.4-.97.4Zm-9.86-7.3c-.25,0-.46.2-.46.46v5.48c0,.12.05.24.13.32s.2.13.32.13h9.86c.12,0,.24-.05.32-.13.09-.09.13-.2.13-.32v-5.48c0-.12-.05-.24-.13-.32-.09-.09-.2-.13-.32-.13h-9.86Z"/>
        <path class="cls-5" d="m779.98,399.12c-.24,0-.44-.18-.46-.42l-1.28-17.82c-.03-.16-.21-.83-1.1-.83h-4.38c-.88,0-.99.68-1,.82l-1.28,17.83c-.02.25-.24.44-.49.42-.25-.02-.44-.24-.42-.49l1.28-17.84c.04-.57.5-1.66,1.92-1.66h4.38c1.39,0,1.92,1.06,2,1.63v.03l1.28,17.84h0c0,.12-.03.24-.11.33s-.19.15-.31.16h-.03Z"/>
        <path class="cls-5" d="m783.81,387.53h-17.61c-.25,0-.46-.2-.46-.46s.2-.46.46-.46h17.61c.25,0,.46.2.46.46s-.2.46-.46.46Z"/>
        <path class="cls-5" d="m768.96,383.15h-4.21c-.25,0-.46-.2-.46-.46v-2.92c0-.25.2-.46.46-.46h4.3c.25,0,.46.2.46.46s-.2.46-.46.46h-3.85v2.01h3.76c.25,0,.46.2.46.46s-.2.46-.46.46h0Z"/>
        <path class="cls-5" d="m785.18,383.15h-4.27c-.25,0-.46-.2-.46-.46s.2-.46.46-.46h3.82v-2.01h-3.88c-.25,0-.46-.2-.46-.46s.2-.46.46-.46h4.33c.12,0,.24.05.32.13.09.09.13.2.13.32v2.92c0,.12-.05.24-.13.32-.09.09-.2.13-.32.13h0Z"/>
        <path class="cls-5" d="m785.18,380.23c-.25,0-.46-.2-.46-.46v-24.46h-42.89v24.46c0,.25-.2.46-.46.46s-.46-.2-.46-.46v-24.91c0-.25.2-.46.46-.46h43.8c.12,0,.24.05.32.13.09.09.13.2.13.32v24.91c0,.12-.05.24-.13.32-.09.09-.2.13-.32.13h0Z"/>
        <path class="cls-5" d="m764.74,381.59h-2.92c-.25,0-.46-.2-.46-.46s.2-.46.46-.46h2.92c.25,0,.46.2.46.46s-.2.46-.46.46Z"/>
        <path class="cls-5" d="m782.26,361.33h-5.84c-.25,0-.46-.2-.46-.46v-3.01c0-.25.2-.46.46-.46h5.84c.12,0,.24.05.32.13.09.09.13.2.13.32v3.01c0,.12-.05.24-.13.32-.09.09-.2.13-.32.13Zm-5.38-.91h4.93v-2.1h-4.93v2.1Z"/>
        <path class="cls-5" d="m757.44,392.36h-11.68c-.25,0-.46-.2-.46-.46v-2.92c0-.25.2-.46.46-.46h11.68c.12,0,.24.05.32.13s.13.2.13.32v2.92c0,.12-.05.24-.13.32s-.2.13-.32.13h0Zm-11.22-.91h10.77v-2.01h-10.77v2.01Z"/>
        <path class="cls-5" d="m780.8,392.36h-11.68c-.25,0-.46-.2-.46-.46v-2.92c0-.25.2-.46.46-.46h11.68c.12,0,.24.05.32.13.09.09.13.2.13.32v2.92c0,.12-.05.24-.13.32-.09.09-.2.13-.32.13h0Zm-11.22-.91h10.77v-2.01h-10.77v2.01Z"/>
        <path class="cls-5" d="m761.73,359.78h-15.97c-.25,0-.46-.2-.46-.46s.2-.46.46-.46h15.97c.25,0,.46.2.46.46s-.2.46-.46.46Z"/>
        <path class="cls-5" d="m767.75,359.78h-3.01c-.25,0-.46-.2-.46-.46s.2-.46.46-.46h3.01c.25,0,.46.2.46.46s-.2.46-.46.46Z"/>
        <path class="cls-5" d="m761.73,362.7h-15.97c-.25,0-.46-.2-.46-.46s.2-.46.46-.46h15.97c.25,0,.46.2.46.46s-.2.46-.46.46Z"/>
        <path class="cls-5" d="m754.52,365.62h-8.76c-.25,0-.46-.2-.46-.46s.2-.46.46-.46h8.76c.25,0,.46.2.46.46s-.2.46-.46.46Z"/>
        <path class="cls-5" d="m757.53,368.45h-11.77c-.25,0-.46-.2-.46-.46s.2-.46.46-.46h11.77c.25,0,.46.2.46.46s-.2.46-.46.46Z"/>
        <path class="cls-5" d="m760.36,368.45h-.27c-.25,0-.46-.2-.46-.46s.2-.46.46-.46h.27c.25,0,.46.2.46.46s-.2.46-.46.46Z"/>
      </g>
      <path class="cls-5" d="m931.16,299.67h-36.89c-.44,0-.8-.36-.8-.8v-21.95c0-1.35,1.09-2.44,2.44-2.44h33.61c1.35,0,2.44,1.09,2.44,2.44v21.95c0,.44-.36.8-.8.8h0Zm-36.08-1.61h35.28v-21.15c0-.46-.37-.83-.83-.83h-33.61c-.46,0-.83.37-.83.83v21.15Z"/>
      <path class="cls-5" d="m935.16,312.41h-44.88c-.88,0-1.68-.45-2.13-1.21-.45-.76-.48-1.67-.06-2.45l5.48-10.26c.14-.26.41-.43.71-.43h36.89c.3,0,.57.16.71.43l5.48,10.26c.42.78.39,1.69-.06,2.45-.45.76-1.25,1.21-2.13,1.21h0Zm-40.4-12.74l-5.26,9.84c-.21.4-.06.74.02.87.08.13.3.43.75.43h44.88c.45,0,.68-.3.75-.43s.23-.47.02-.87l-5.25-9.84h-35.92Z"/>
      <path class="cls-5" d="m920.39,312.41h-15.33c-.25,0-.49-.12-.64-.32-.15-.2-.2-.46-.14-.7l1.41-5.13c.3-1.08,1.28-1.83,2.4-1.83h9.26c1.12,0,2.1.75,2.4,1.83l1.41,5.13c.07.24.02.5-.14.7-.15.2-.39.32-.64.32h0Zm-14.28-1.61h13.22l-1.13-4.11c-.1-.38-.45-.65-.85-.65h-9.26c-.39,0-.74.27-.85.65l-1.13,4.11Z"/>
      <g>
        <g>
          <circle class="cls-6" cx="1044.53" cy="175.34" r="47.01"/>
          <circle class="cls-2" cx="1044.53" cy="175.34" r="38.98"/>
        </g>
        <path class="cls-4" d="m1033.27,172.12h-3.22c-.44,0-.8-.36-.8-.8v-1.61h-1.61v1.61c0,.64.25,1.25.71,1.71.45.45,1.07.71,1.71.71h3.22v-1.61Z"/>
        <path class="cls-4" d="m1027.64,179.36v2.41h1.61v-2.41c0-.44.36-.8.8-.8h1.61v-1.61h-1.61c-.64,0-1.25.25-1.71.71s-.71,1.07-.71,1.71h0Z"/>
        <path class="cls-4" d="m1061.42,169.71h-1.61v1.61c0,.21-.08.42-.24.57s-.36.24-.57.24h-3.22v1.61h3.22c.64,0,1.25-.25,1.71-.71s.71-1.07.71-1.71v-1.61Z"/>
        <path class="cls-4" d="m1061.42,181.78v-2.41c0-.64-.25-1.25-.71-1.71s-1.07-.71-1.71-.71h-1.61v1.61h1.61c.21,0,.42.08.57.24s.24.36.24.57v2.41h1.61Z"/>
        <path class="cls-4" d="m1052.57,175.34h-.06c.04-.27.06-.53.06-.8,0-1.49-.6-2.92-1.65-3.98-1.06-1.06-2.49-1.65-3.98-1.65-1.68,0-3.26.8-4.26,2.15-.67-.34-1.42-.53-2.17-.54-1.28,0-2.51.51-3.41,1.41-.9.91-1.41,2.13-1.41,3.41v.1c-1.02.27-1.84,1.01-2.2,2-.36.99-.22,2.09.37,2.95.6.86,1.58,1.38,2.63,1.38h16.09c1.15,0,2.21-.61,2.79-1.61.57-1,.57-2.22,0-3.22-.57-1-1.64-1.61-2.79-1.61h0Zm0,4.83h-16.09c-.57,0-1.11-.31-1.39-.8s-.29-1.11,0-1.61.82-.8,1.39-.8c.21,0,.42-.08.57-.24s.24-.36.24-.57v-.8c0-.85.34-1.67.94-2.27.6-.6,1.42-.94,2.27-.94.7.02,1.38.25,1.95.66.18.13.41.17.63.13.22-.05.4-.18.52-.37.33-.6.81-1.11,1.39-1.46.58-.36,1.25-.55,1.94-.57,1.07,0,2.09.42,2.84,1.18.75.75,1.18,1.78,1.18,2.84,0,.46-.08.91-.23,1.34-.09.25-.05.52.1.73.15.21.4.34.66.34h1.09c.57,0,1.11.31,1.39.8s.29,1.11,0,1.61-.82.8-1.39.8h0Z"/>
        <path class="cls-4" d="m1067.05,162.62v-8.99c0-.64-.26-1.25-.71-1.7-.45-.45-1.06-.71-1.7-.71h-12.87c-.64,0-1.25.26-1.7.71-.45.45-.71,1.06-.71,1.7v8.99c-.71.26-1.27.84-1.49,1.57-.22.73-.09,1.52.37,2.13.45.61,1.16.98,1.92.98h16.09c.76,0,1.47-.37,1.92-.98.45-.61.59-1.4.37-2.13s-.77-1.31-1.49-1.57h0Zm-16.09-8.99c0-.44.36-.8.8-.8h12.87c.21,0,.42.08.57.24s.24.36.24.57v8.85h-5.63c-.44,0-.8.36-.8.8h-1.61c0-.21-.08-.42-.24-.57s-.36-.24-.57-.24h-5.63v-8.85Zm15.28,12.06h-16.09c-.44,0-.8-.36-.8-.8s.36-.8.8-.8h5.63c0,.21.08.42.24.57s.36.24.57.24h3.22c.21,0,.42-.08.57-.24s.24-.36.24-.57h5.63c.44,0,.8.36.8.8s-.36.8-.8.8Z"/>
        <path class="cls-4" d="m1039.7,194.79v-8.99c0-.64-.25-1.25-.71-1.71s-1.07-.71-1.71-.71h-12.87c-.64,0-1.25.25-1.71.71s-.71,1.07-.71,1.71v8.99c-.72.25-1.28.83-1.5,1.57-.22.73-.09,1.52.37,2.14.45.61,1.17.98,1.94.97h16.09c.76,0,1.48-.36,1.94-.97.45-.61.59-1.41.37-2.14s-.78-1.31-1.5-1.57h0Zm-15.28-9.8h12.87c.21,0,.42.08.57.24s.24.36.24.57v8.85h-5.63c-.44,0-.8.36-.8.8h-1.61c0-.21-.08-.42-.24-.57s-.36-.24-.57-.24h-5.63v-8.85c0-.44.36-.8.8-.8Zm14.48,12.87h-16.09c-.44,0-.8-.36-.8-.8s.36-.8.8-.8h5.63c0,.21.08.42.24.57s.36.24.57.24h3.22c.21,0,.42-.08.57-.24s.24-.36.24-.57h5.63c.44,0,.8.36.8.8s-.36.8-.8.8Z"/>
        <path class="cls-4" d="m1034.07,151.21h-11.26c-.64,0-1.25.26-1.7.71-.45.45-.71,1.06-.71,1.7v8.04c0,.64.26,1.25.71,1.7.45.45,1.06.71,1.7.71h2.83l-.72,1.82c-.2.5-.14,1.06.16,1.5.3.44.8.71,1.33.71h4.05c.53,0,1.03-.26,1.33-.71.3-.44.36-1,.16-1.5l-.72-1.82h2.83c.64,0,1.25-.26,1.7-.71.45-.45.71-1.06.71-1.7v-8.04c0-.64-.26-1.25-.71-1.7-.45-.45-1.06-.71-1.7-.71h0Zm-7.66,15.28l.97-2.41h2.12l.97,2.41h-4.05Zm8.46-4.83c0,.21-.08.42-.24.57s-.36.24-.57.24h-11.26c-.44,0-.8-.36-.8-.8v-.8h12.87v.8Zm0-2.41h-12.87v-5.63c0-.44.36-.8.8-.8h11.26c.21,0,.42.08.57.24s.24.36.24.57v5.63Z"/>
        <path class="cls-4" d="m1066.24,182.58h-11.26c-.64,0-1.25.26-1.7.71-.45.45-.71,1.06-.71,1.7v8.04c0,.64.26,1.25.71,1.7.45.45,1.06.71,1.7.71h2.83l-.72,1.82c-.2.5-.14,1.06.16,1.5.3.44.8.71,1.33.71h4.05c.53,0,1.03-.26,1.33-.71.3-.44.36-1,.16-1.5l-.72-1.82h2.83c.64,0,1.25-.26,1.7-.71.45-.45.71-1.06.71-1.7v-8.04c0-.64-.26-1.25-.71-1.7-.45-.45-1.06-.71-1.7-.71h0Zm-7.66,15.28l.97-2.41h2.12l.97,2.41h-4.05Zm8.46-4.83c0,.21-.08.42-.24.57s-.36.24-.57.24h-11.26c-.44,0-.8-.36-.8-.8v-.8h12.87v.8Zm0-2.41h-12.87v-5.63c0-.44.36-.8.8-.8h11.26c.21,0,.42.08.57.24s.24.36.24.57v5.63Z"/>
      </g>
    </g>
  </g>
</svg>