<?xml version="1.0" encoding="UTF-8"?>
<svg id="Layer_2" data-name="Layer 2" xmlns="http://www.w3.org/2000/svg" viewBox="0 0 360.27 366.13">
  <defs>
    <style>
      .cls-1 {
        fill: #fff;
      }

      .cls-2 {
        fill: #e5e9ed;
      }

      .cls-3 {
        fill: #aab4bf;
      }

      .cls-4 {
        fill: #e05a73;
      }
    </style>
  </defs>
  <g id="Layer_2-2" data-name="Layer 2">
    <g>
      <g>
        <rect x="13.13" y="363.68" width="322.7" height="2.45"/>
        <g>
          <path class="cls-2" d="m3.33,188.79C16.12,105.81,88.2-47.35,193.92,14.24c90.76,52.87,28.31,117.01,102.94,143.41,127.4,45.06,16.68,235.04-137.85,202.22C4.47,327.05-8.56,265.97,3.33,188.79Z"/>
          <path class="cls-2" d="m259.59,41.51c-5.99,30.25,4.52,86.63,63.64,105.92,59.12,19.3,38.59-27.1,0-64.87-38.59-37.77-54.6-86.63-63.64-41.06Z"/>
        </g>
        <g>
          <g>
            <g>
              <path class="cls-3" d="m289.46,271.66h-30.31v-16.61h30.31v16.61Zm-28.57-1.74h26.83v-13.13h-26.83v13.13Z"/>
              <path class="cls-3" d="m310.22,286.53h-30.31v-16.61h30.31v16.61Zm-28.57-1.74h26.83v-13.13h-26.83v13.13Z"/>
            </g>
            <path class="cls-3" d="m214.72,128.95h-30.31v-16.61h30.31v16.61Zm-28.57-1.74h26.83v-13.13h-26.83v13.13Z"/>
            <g>
              <path class="cls-3" d="m161.46,312.27h-30.31v-16.61h30.31v16.61Zm-28.57-1.74h26.83v-13.13h-26.83v13.13Z"/>
              <path class="cls-3" d="m190.06,312.27h-30.31v-16.61h30.31v16.61Zm-28.57-1.74h26.83v-13.13h-26.83v13.13Z"/>
              <path class="cls-3" d="m175.75,327.14h-30.31v-16.61h30.31v16.61Zm-28.57-1.74h26.83v-13.13h-26.83v13.13Z"/>
            </g>
          </g>
          <g>
            <g>
              <path class="cls-3" d="m112.67,209.33h-30.31v-16.61h30.31v16.61Zm-28.57-1.74h26.83v-13.13h-26.83v13.13Z"/>
              <path class="cls-3" d="m91.91,224.2h-30.31v-16.61h30.31v16.61Zm-28.57-1.74h26.83v-13.13h-26.83v13.13Z"/>
            </g>
            <g>
              <path class="cls-3" d="m106.81,69.66h-30.31v-16.61h30.31v16.61Zm-28.57-1.74h26.83v-13.13h-26.83v13.13Z"/>
              <path class="cls-3" d="m92.5,84.53h-30.31v-16.61h30.31v16.61Zm-28.57-1.74h26.83v-13.13h-26.83v13.13Z"/>
            </g>
          </g>
        </g>
      </g>
      <g>
        <g>
          <path class="cls-3" d="m279.14,122.3H29.65c-6.67,0-11.97,5.58-11.64,12.24l10.75,215.79h251.28l10.75-215.79c.33-6.66-4.98-12.24-11.64-12.24Z"/>
          <g>
            <polygon class="cls-1" points="40.74 337.73 30.64 134.9 278.15 134.9 268.05 337.73 40.74 337.73"/>
            <path d="m277.7,135.33l-10.06,201.98H41.14l-10.06-201.98h246.62Zm.89-.85H30.19l10.14,203.68h228.12l10.14-203.68h0Z"/>
          </g>
          <rect x="32.62" y="344.88" width="29.64" height="7.61" rx="1.62" ry="1.62"/>
          <rect x="71.96" y="344.88" width="19.4" height="7.61" rx="1.62" ry="1.62"/>
          <rect x="97.11" y="344.88" width="37.37" height="7.61" rx="1.62" ry="1.62"/>
          <rect x="144.88" y="344.88" width="33.25" height="7.61" rx="1.62" ry="1.62"/>
          <rect x="186.03" y="344.88" width="19.4" height="7.61" rx="1.62" ry="1.62"/>
          <rect x="256.77" y="344.88" width="19.4" height="7.61" rx="1.62" ry="1.62"/>
          <rect x="211.18" y="344.88" width="37.37" height="7.61" rx="1.62" ry="1.62"/>
          <path class="cls-3" d="m12.89,350.33h283c1.73,0,3.13,1.4,3.13,3.13v6.82c0,1.73-1.4,3.13-3.13,3.13H12.9c-1.73,0-3.13-1.4-3.13-3.13v-6.82c0-1.73,1.4-3.13,3.13-3.13Z"/>
        </g>
        <g>
          <g>
            <path class="cls-1" d="m161.01,357.56c-1.31,0-2.01-.34-2.08-1-.03-.3-.14-.92-.28-1.7-.83-4.82-1.17-7.57-.58-8.32.23-.29.81-.62,3.2-.62.07,0,6.82.09,7,1.17.1.62.87,7.68-.27,8.8-.72.7-4.78,1.67-7,1.67Z"/>
            <path d="m161.28,346.34c2.77,0,6.52.48,6.58.82.26,1.58.67,7.62-.15,8.42-.56.55-4.43,1.55-6.7,1.55-.94,0-1.61-.17-1.66-.62-.15-1.32-1.71-8.75-.94-9.71.27-.34,1.44-.46,2.87-.46h0Zm0-.85h0c-2.56,0-3.21.38-3.54.78-.63.79-.52,2.82.49,8.66.13.77.24,1.38.27,1.67.1.91.94,1.38,2.51,1.38,2.16,0,6.45-.96,7.3-1.79,1.4-1.37.4-9.1.39-9.17-.24-1.41-5.74-1.53-7.42-1.53h0Z"/>
          </g>
          <path d="m168.32,353.74s3.96,5.67,1.13,10.12c0,0-20.64.97-26.88,0,0,0-.16-7.61,5.18-8.26,5.34-.65,11.36-.55,11.36-.55,0,0,5.32,2.9,9.2-1.31Z"/>
          <g>
            <path class="cls-1" d="m206.89,358.26c-1.1,0-1.32-.54-1.36-.86-.02-.22-.08-.62-.15-1.14-.86-6.37-.98-8.99-.43-9.68.22-.27.76-.63,2.95-.63.06,0,5.85.08,6.03,1.15.1.62.86,7.69-.27,8.8-.68.67-4.79,2.37-6.77,2.37Z"/>
            <path d="m207.91,346.37c2.4,0,5.56.46,5.61.79.26,1.58.67,7.62-.15,8.42-.61.6-4.62,2.24-6.48,2.24-.54,0-.9-.14-.93-.48-.14-1.32-1.43-9.55-.67-10.51.27-.34,1.34-.47,2.62-.47h0Zm0-.85h0c-2.33,0-2.97.4-3.28.79-.56.7-.67,2.5.34,10,.07.52.12.91.15,1.13.03.29.25,1.24,1.78,1.24,1.99,0,6.25-1.69,7.07-2.49,1.4-1.37.4-9.1.39-9.17-.23-1.39-5-1.5-6.45-1.5h0Z"/>
          </g>
          <path d="m168.09,273.42c-.97,12.14-.08,36.63.89,48.77.06.82.06,29.02.06,29.02l-11.41,1.09c-6.21-18.54-18.08-60.12-18.08-78.57s1.59-49.21,8.37-63.8c6.45-13.87,31.89,5.29,34.88,8.69,1.38,1.57-1.23,15.62-4.85,24.92-4.2,10.78-9.35,23.35-9.87,29.88Z"/>
          <path d="m169.79,322.11c-.67-12.16-2.67-36.54-1.7-48.69.52-6.53,8.44-25.35,12.63-36.13-1.11-3.32.27-10.46-2.46-12.3-2.27-1.52-11.16,8.53-12.15,11.5-.8,2.35.66,5.32.83,7.67.31,4.31-.74,8.55-2.83,12.32-3.15,5.58-7.01,9.97-8.78,16.28-3.42,12.28-.68,25.08,2.2,37.17,1.83,7.62,3.77,15.29,4.23,23.14.25,4.51.89,14.39.25,18.82l7.04-.67s1.41-16.99.75-29.1Z"/>
          <path d="m214.4,351.21l-10.13,1.09c-5.29-17.49-19.42-47.36-21.5-65.7-3.22-28.48-7.12-58.98-7.29-66.48-.02-1.21-.04-1.85-.04-1.85,6.98-8.49,18.8-11.95,24.06-12.57,2.08-.25,3.6.16,4.26,1.25,2.14,3.57,3.81,6.88,5.11,9.99,8.49,20.17,1.34,32.35,1.5,58.58,0,1.52.02,3.07.06,4.6.27,10.84-2.65,24.19.47,35.52,6.11,22.21,3.52,35.58,3.52,35.58Z"/>
          <path d="m212.82,314.9c-1.76-11.62-2.16-23.95-2.41-34.79-.04-1.54-.06-3.09-.06-4.6-.15-26.23,6.99-39.05-1.5-59.21,0-4.03-9.53-5.99-9.61-3.54-.08,2.99.31,5.91.76,8.8.83,5.09,1.92,10.12,1.18,15.37-1.15,8.12-3.77,15.8-4.31,24.07-.99,15.21,2.49,29.18,7.65,43.33,3.23,8.78,5.83,17.52,6.84,26.85.64,5.91.78,14.32.72,20.26l2.31-.22s2.66-8.38-1.58-36.31Z"/>
          <path d="m213.98,353.74s3.96,5.67,1.13,10.12c0,0-20.64.97-26.88,0,0,0-.16-7.61,5.18-8.26,5.34-.65,12.19-.94,12.19-.94,0,0,4.49,3.29,8.37-.92Z"/>
          <path d="m158.33,131.16s-15.61,12.12-25.49,44.43l25.49,5.77.26-32.07-.26-18.13Z"/>
          <path class="cls-4" d="m142.82,218.7c.31.96,12.29,5.09,24.19,6.92,13.69,2.11,35.52-3.16,41.14-4.22,2.3-.43,3.78-1.05,4.13-1.79,1.09-2.34-2.67-25.13-2.22-40.27.08-2.94.14-5.91.14-8.83.08-15.23-.98-29.5-4.43-32.15-.78-.62-1.68-1.25-2.69-1.93-.86-.59-1.79-1.19-2.81-1.78-.76-.45-1.56-.9-2.4-1.33-3.08-1.62-6.69-3.12-10.74-4.15-6.22-1.62-13.47-2.16-21.43-.33,0,0,0,.02-.02.02-1.93.43-3.9,1.01-5.91,1.76-.47.16-.94.35-1.44.54-6.73,2.71-5.77,17.37-4.68,29.66.49,5.71,1.01,10.9.8,14.14-.08,1.09-.21,2.18-.41,3.24-1.52,9.05-10.09,33.91-11.22,40.5Z"/>
          <g>
            <path class="cls-1" d="m172.29,131.4c-.32,0-.64-.03-.95-.09-.42-.08-.73-.32-.89-.67-.44-.95.32-2.57.55-3.02v-6.76l9.21-3.82v10.9l-.16.13c-.17.14-4.32,3.33-7.76,3.33h0Z"/>
            <path d="m179.79,117.68v10.05s-4.17,3.24-7.49,3.24c-.3,0-.59-.03-.87-.08-1.56-.31,0-3.17,0-3.17v-6.58l8.36-3.46h0Zm.85-1.27l-1.18.49-8.36,3.46-.52.22v6.94c-.35.68-1.01,2.24-.51,3.3.22.48.65.8,1.2.91.33.07.67.1,1.03.1,3.58,0,7.84-3.28,8.02-3.42l.33-.26v-11.74h0Z"/>
          </g>
          <g>
            <path class="cls-1" d="m172.26,123.45c-2.54,0-5-1.22-6.57-3.25-1.14-1.47-1.58-3.11-1.22-4.49,1.48-5.68,5.32-11.56,5.36-11.62l.16-.24,14.13,2.93.02.32c0,.09.53,9.33-6.4,14.42-1.74,1.28-3.59,1.93-5.48,1.93h0Z"/>
            <path d="m170.19,104.32l13.53,2.8s.6,9.04-6.23,14.05c-1.79,1.31-3.58,1.85-5.23,1.85-4.64,0-8.16-4.23-7.38-7.21,1.48-5.68,5.31-11.49,5.31-11.49h0Zm-.39-.95l-.32.48c-.16.24-3.92,6-5.42,11.74-.39,1.51.08,3.28,1.3,4.86,1.65,2.14,4.23,3.42,6.91,3.42,1.98,0,3.91-.68,5.73-2.01,7.12-5.23,6.6-14.4,6.57-14.79l-.04-.65-.63-.13-13.53-2.8-.57-.12h0Z"/>
          </g>
          <path d="m187.62,113.35c1.06,1.98-1.26,3.23-3.51,3.51-.1.18-.22.34-.36.49-.02,2.29-1.7,4.43-3.95,2.67-3.32,2.64-7.36,4.78-12.11,2.64-2.07-.94-3.65-4.3-3.08-6.02.71-2.18,4,.27,5.41-1.02.39-.36,1.14-.37,1.5.06,1.23,1.47,2.12,2.19,4.24,1.74,1.12-.23,2.07-.7,2.95-1.32.3-1.58,1.27-3.17,1.75-4.59.13-.39.61-2.07,1.06-3.43-5.32-.74-12.34-2.03-14.54-6.69-1.96-4.15,1.37-6.28,4.94-5.74,1.63-1.2,4.55-.63,5.35,1.34,1.27-.56,2.76-.95,3.75.1.44.47.59.99.55,1.52.42-.04.85.03,1.32.28.68.35,1.15.9,1.46,1.53,1.62-.53,3.45,1.68,2.95,3.71,1.01.83,1.64,2.46.63,3.98,1.71,1.56,1.6,3.93-.29,5.26Z"/>
          <path d="m158.23,190.81s-22.97,2.55-25.44-3.65c-2.31-5.8.18-12.92,3.16-20.87,2.3-6.15,21.53,12.43,21.53,12.43l.75,12.1Z"/>
          <path d="m169.33,177.97c1.5,1.73,1.38,12.23,3.7,12.42,12.93,1.09,19.27-12.89,20.46-11.6.49.51.6,3.67.76,4.56,1.15,6.34,2.59,12.69,4.47,18.87.18.6.39,1.33.66,1.97-.68,2.63,8.09,15.13,8.76,17.2,2.3-.43,3.78-1.05,4.13-1.79,1.09-2.34-2.67-25.13-2.22-40.27.08-2.94.14-5.91.14-8.83.08-15.23-1.03-25.72-3.58-31.19-.42-.9-2.54-2.21-3.54-2.89-.86-.59-2.17,4.33-3.2,3.73-7.24-2.22-11.82,3.57-17.99,7.23-6.46,3.83-20.62,21.15-20.83,21.78-1.48,4.58,5.38,5.54,8.27,8.81Z"/>
          <g>
            <path class="cls-1" d="m145.26,134.06l-.4-2.44.33-.88c-.18-.14-.34-.28-.48-.44-.87-.98-1.07-1.71-1.29-3.55-.29-1.6.25-2.54.6-2.96.32-.38.71-.61,1.07-.63.23-1.04.97-1.75,1.65-1.75.06,0,.11,0,.16.01.39-.69,1.21-1.22,1.99-1.22.24,0,.47.05.66.15-.13-1.11-.47-2.47-.81-3.29-.23-.56-.21-1.11.07-1.53.22-.33.56-.51.94-.51.26,0,.53.09.77.26.77.52,1.46,2.11,2.1,4.84.31,1.3.66,3.54.26,5.82.24-.16.53-.25.8-.25.68,0,1.18.47,1.22,1.13.06,1.04,0,2.13-.89,2.98-.08.07-.78.6-1.51,1.14.05.27.1.51.12.59.05.14.11.27-.7,2.86l-.05.15-2.58,1.59-4.03-2.04Z"/>
            <path d="m149.74,115.43c.17,0,.35.06.53.18.94.64,1.65,3.41,1.93,4.59.58,2.46.67,5.3-.34,7.65.2.02.4.05.6.09.15-.36.23-.76.29-1.11.08-.47.51-.73.92-.73s.77.23.8.73c.06.99,0,1.92-.76,2.64-.05.05-.76.58-1.68,1.26.08.4.16.84.19.91.06.15-.71,2.59-.71,2.59l-2.24,1.38-3.63-1.84-.35-2.12.41-1.08c-.25-.15-.48-.33-.68-.56-.78-.89-.97-1.5-1.18-3.32-.37-2.09.73-3.12,1.3-3.12.15,0,.26.07.3.21,0-1.17.76-1.96,1.29-1.96.15,0,.28.06.38.19.16-.75,1.02-1.4,1.77-1.4.52,0,.98.31,1.11,1.12.18-1.18-.37-3.68-.87-4.86-.34-.8.05-1.45.62-1.45h0Zm0-.85c-.53,0-1,.26-1.3.7-.35.53-.39,1.25-.1,1.93.27.63.53,1.64.69,2.56-.05,0-.1,0-.15,0-.85,0-1.72.5-2.22,1.21-.77.04-1.6.74-1.93,1.81-.38.11-.75.36-1.05.73-.4.47-1.01,1.53-.69,3.33.22,1.86.45,2.67,1.38,3.73.09.1.19.2.29.29l-.18.48-.08.21.04.23.35,2.12.07.43.39.2,3.63,1.84.42.22.41-.25,2.24-1.38.27-.17.09-.3c.85-2.73.8-2.85.69-3.15,0-.03-.02-.12-.05-.24.55-.41,1.23-.91,1.33-1.01,1.02-.97,1.09-2.22,1.03-3.31-.05-.89-.74-1.53-1.64-1.53-.09,0-.19,0-.28.02.24-2.09-.08-4.06-.37-5.26-.9-3.79-1.73-4.73-2.28-5.1-.31-.21-.66-.33-1.01-.33h0Z"/>
          </g>
          <path class="cls-4" d="m154.69,190.59c-17.51-3.96-10.38-59.12-10.38-59.12l8.46.73c.5.42,5.12,41.07,9.8,39.53,2.05-.67,16.72-26.67,25.65-32.35,4.5-2.87,9.09-3.36,12.78-3.3,5.14.08,7.67,5.09,6.84,10.16-1.67,10.27-9.26,24.77-19.28,35.19-11.01,11.46-18.76,12.58-33.86,9.15Z"/>
          <g>
            <path class="cls-1" d="m165.11,193.49c-.51,0-1.01-.18-1.44-.52-.28.21-.63.39-1.02.39-.66-.07-1.03-.46-1.27-.86-.61.62-1.23.93-1.85.93-.22,0-.43-.04-.64-.12-.5-.18-1.03-.59-1.13-1.5-.04.03-.09.06-.13.1-.33.23-.67.34-1.01.34-1.11,0-1.87-1.15-1.93-2.22-.06-.97.9-2.72,1.42-3.5l.15-.23c.4-.63.9-1.41,1.6-1.75.23-.11.46-.17.67-.17.64,0,1.11.46,1.38,1.33.28-.31.66-.57,1.17-.57.31,0,.64.1.98.3.54.32.93.77,1.15,1.33.19-.19.39-.33.61-.45.23-.13.46-.19.69-.19,1.04,0,1.55,1.26,1.64,2.1.03.25.03.5,0,.76.83.19,1.23,1.18,1.28,1.9.04.7-.19,1.36-.66,1.86-.44.46-1.04.73-1.66.73h0Z"/>
            <path d="m158.53,184.81c.81,0,1.08,1.22,1.16,2.09.31-.71.73-1.33,1.38-1.33.23,0,.48.07.76.24.76.45,1.08,1.14,1.15,1.9.28-.42.61-.78,1.03-1,.18-.1.34-.14.49-.14.73,0,1.14,1.02,1.22,1.72.04.41,0,.8-.09,1.17.07-.04.15-.07.24-.07.02,0,.04,0,.06,0,.69,0,1.03.99,1.06,1.54.07,1.22-.86,2.14-1.89,2.14-.41,0-.83-.14-1.21-.45-.08-.07-.12-.18-.12-.29-.32.32-.71.62-1.12.62-.03,0-.06,0-.09,0-.58-.07-.85-.67-1.06-1.13,0-.02,0-.04-.02-.07-.55.69-1.22,1.27-1.95,1.27-.16,0-.33-.03-.5-.09-.87-.32-.97-1.17-.8-2.1-.27.29-.56.55-.85.75-.27.18-.53.26-.77.26-.82,0-1.45-.92-1.51-1.82-.05-.77.79-2.38,1.35-3.25.39-.59.9-1.5,1.58-1.82.18-.09.35-.13.49-.13h0Zm0-.85c-.28,0-.57.07-.86.21-.81.39-1.37,1.26-1.78,1.9l-.14.23c-.06.1-1.57,2.41-1.49,3.76.08,1.26,1,2.62,2.35,2.62.29,0,.58-.06.87-.19.28.74.85,1.08,1.26,1.23.26.09.52.14.79.14.61,0,1.2-.24,1.78-.71.27.31.64.57,1.15.64.07,0,.13.01.19.01.38,0,.72-.13,1.01-.3.44.28.94.43,1.45.43.74,0,1.45-.32,1.97-.87.55-.58.82-1.35.77-2.17-.05-.74-.43-1.82-1.26-2.2,0-.16,0-.32-.02-.48-.13-1.23-.88-2.48-2.06-2.48-.3,0-.6.08-.89.24-.09.05-.18.1-.26.16-.26-.42-.62-.77-1.08-1.04-.41-.24-.81-.36-1.2-.36-.36,0-.69.1-.99.29-.45-.88-1.11-1.05-1.55-1.05h0Z"/>
          </g>
        </g>
      </g>
    </g>
  </g>
</svg>