<?xml version="1.0" encoding="UTF-8"?>
<svg id="Layer_2" data-name="Layer 2" xmlns="http://www.w3.org/2000/svg" viewBox="0 0 460.61 307.28">
  <defs>
    <style>
      .cls-1 {
        fill: #fff;
      }

      .cls-2 {
        fill: #df5a73;
      }

      .cls-3 {
        fill: #e1e8fb;
      }

      .cls-4 {
        fill: #6fc1ba;
      }
    </style>
  </defs>
  <g id="Layer_2-2" data-name="Layer 2">
    <g id="Online_tech_talks" data-name="Online tech talks">
      <g>
        <g>
          <g>
            <path class="cls-1" d="m443.22.37H111.48c-9.4,0-17.02,7.63-17.02,17.04v245.46c0,9.41,7.62,17.04,17.02,17.04h348.76V17.41c0-9.41-7.62-17.04-17.02-17.04Z"/>
            <path d="m460.24,280.28H111.48c-9.59,0-17.39-7.81-17.39-17.41V17.41c0-9.6,7.8-17.41,17.39-17.41h331.74c9.59,0,17.39,7.81,17.39,17.41v262.5c0,.2-.17.37-.37.37ZM111.48.74c-9.18,0-16.65,7.48-16.65,16.67v245.46c0,9.19,7.47,16.67,16.65,16.67h348.39V17.41c0-9.19-7.47-16.67-16.65-16.67H111.48Z"/>
          </g>
          <path d="m436.39,268.94h-190.6c-.2,0-.37-.17-.37-.37s.17-.37.37-.37h190.6c5.91,0,10.72-4.81,10.72-10.73V21.49c0-5.19-4.22-9.42-9.41-9.42H117c-5.19,0-9.41,4.22-9.41,9.42v63c0,.2-.17.37-.37.37s-.37-.17-.37-.37V21.49c0-5.6,4.55-10.15,10.15-10.15h320.7c5.59,0,10.15,4.56,10.15,10.15v235.98c0,6.32-5.14,11.47-11.46,11.47Z"/>
          <g>
            <path class="cls-1" d="m.37,279.54h459.87c0,15.11-12.26,27.37-27.37,27.37H27.74c-15.11,0-27.37-12.26-27.37-27.37H.37Z"/>
            <path d="m434.22,307.28H26.39c-14.55,0-26.39-11.84-26.39-26.39v-1.35c0-.2.17-.37.37-.37h459.87c.2,0,.37.17.37.37v1.35c0,14.55-11.84,26.39-26.39,26.39ZM.74,279.91v.98c0,14.14,11.51,25.65,25.65,25.65h407.84c14.14,0,25.65-11.51,25.65-25.65v-.98H.74Z"/>
          </g>
        </g>
        <g>
          <rect class="cls-3" x="178.58" y="88" width="105.65" height="43.32"/>
          <g>
            <path d="m200.77,116.15c-.09,0-.19-.04-.26-.11-.14-.14-.14-.38,0-.52l51.08-51.06c.14-.14.38-.14.52,0l18.85,18.84,35.08-35.06c.14-.14.38-.14.52,0,.14.14.14.38,0,.52l-35.34,35.32c-.14.14-.38.14-.52,0l-18.85-18.84-50.82,50.8c-.07.07-.17.11-.26.11Z"/>
            <polygon points="304.88 53.24 304.21 52.93 306.25 48.54 301.86 50.59 301.55 49.92 307.78 47.01 304.88 53.24"/>
          </g>
        </g>
        <g>
          <path d="m218.03,268.94h-111.43c-.2,0-.37-.17-.37-.37v-69.37c0-.2.17-.37.37-.37s.37.17.37.37v69h111.06c.2,0,.37.17.37.37s-.17.37-.37.37Z"/>
          <rect class="cls-3" x="111.23" y="217.95" width="8.73" height="46.62"/>
          <rect class="cls-3" x="124.97" y="239.52" width="8.73" height="25.05"/>
          <rect class="cls-2" x="138.71" y="229.77" width="8.73" height="34.79"/>
          <rect class="cls-3" x="152.46" y="223.72" width="8.73" height="40.84"/>
          <rect class="cls-3" x="166.42" y="213.65" width="8.29" height="50.92"/>
          <rect class="cls-2" x="179.94" y="206.79" width="8.73" height="57.77"/>
          <rect class="cls-3" x="193.68" y="210.7" width="8.73" height="53.86"/>
          <rect class="cls-3" x="207.42" y="203.29" width="8.73" height="61.28"/>
        </g>
        <g>
          <g>
            <rect class="cls-1" x="51.27" y="45.58" width="173.9" height="141.49"/>
            <path d="m225.17,187.43H51.27c-.2,0-.37-.17-.37-.37V45.58c0-.2.17-.37.37-.37h173.9c.2,0,.37.17.37.37v141.49c0,.2-.17.37-.37.37Zm-173.53-.74h173.16V45.95H51.64v140.75Z"/>
          </g>
          <g>
            <g>
              <g>
                <g>
                  <path d="m153.01,40.91c2.32-1.15,4.67-2.87,5.18-5.4.54-2.68-1.55-5.59-4.26-5.93,1.84-1.07,3.56-2.34,5.13-3.78-5.87-3.61-12.62-6.09-19.51-5.93-6.89.16-13.9,3.24-17.8,8.93-1.62,2.36-2.69,5.23-2.37,8.08.34,2.99,2.17,5.63,4.34,7.72,2.82,2.72,6.47,4.79,10.39,4.93,2.64.09,5.38-.82,7.35-2.6.5-.45.96-.96,1.34-1.52.28-.4.51-1.3.88-1.58.45-.33,1.52-.3,2.07-.41.78-.16,1.55-.35,2.31-.57,1.7-.5,3.36-1.14,4.95-1.93Z"/>
                  <path d="m147.52,38.08c-.16,0-.31-.11-.36-.27-.05-.2.06-.4.26-.45,1.96-.54,3.78-1.57,5.25-2.97.15-.14.38-.14.52.01.14.15.14.38-.01.52-1.56,1.49-3.49,2.58-5.57,3.15-.03,0-.07.01-.1.01Z"/>
                </g>
                <path class="cls-1" d="m135.25,64.66l-3.85-.42,3.86-13.27s.46-18.94-11.87-6.96l-8.77,20.88-3.63.46s1.47,8.33,11.82,8.31c8.79-.02,12.59-2.99,12.44-8.99Z"/>
                <path d="m112.6,65.65c-.18,0-.34-.13-.37-.32-.03-.2.11-.39.32-.42l1.95-.27,8.18-19.3s.05-.08.08-.12c3.68-3.65,6.69-5.03,8.94-4.1,3.86,1.6,3.92,9.38,3.92,9.71,0,.03,0,.07-.01.1l-3.59,12.89,1.84.18c.2.02.35.2.33.4-.02.2-.2.35-.4.33l-2.27-.22c-.11-.01-.21-.07-.27-.16-.06-.09-.08-.2-.05-.31l3.7-13.26c-.01-.66-.2-7.62-3.46-8.98-1.94-.8-4.66.5-8.08,3.89l-8.23,19.42c-.05.12-.16.2-.29.22l-2.15.3s-.03,0-.05,0Z"/>
                <g>
                  <g>
                    <path class="cls-1" d="m146.76,37.83s-9.93,1.31-16.74-1.48c-1.99,1.59-3.23,3.54-3.9,5.77,0,0-.67-2.08-2.45-1.99-1.92.11-3.61,1.75-3.82,3.66-.2,1.91,1,3.85,2.75,4.64.99.45,1.95.76,3.16.4.81,2.29-.18,9.76,9.46,10.99,5.92.76,7.11-2.36,8.6-6.15,1.49-3.79,3.66-9.69,2.92-15.84Z"/>
                    <path d="m136.92,60.31c-.53,0-1.11-.04-1.73-.12-8.17-1.05-8.97-6.4-9.44-9.61-.07-.5-.14-.95-.23-1.31-1.22.25-2.22-.12-3.06-.51-1.94-.87-3.18-2.98-2.97-5.02.23-2.12,2.05-3.87,4.16-3.99,1.21-.06,1.99.72,2.4,1.38.76-2.01,2.01-3.72,3.73-5.09.11-.08.25-.1.37-.05,6.64,2.72,16.45,1.46,16.55,1.45.1-.01.2.01.27.07.08.06.13.15.14.25.79,6.54-1.73,12.94-2.94,16.02l-.02.06c-1.35,3.43-2.53,6.44-7.24,6.44Zm-11.15-11.85c.15,0,.29.1.35.25.16.45.25,1.06.36,1.77.48,3.19,1.19,8.01,8.8,8.98,5.6.72,6.69-2.04,8.19-5.86l.02-.06c1.17-2.96,3.57-9.07,2.94-15.3-1.88.21-10.21.96-16.35-1.46-1.77,1.47-2.95,3.25-3.61,5.45-.05.16-.19.26-.35.26-.15.01-.31-.1-.36-.26-.02-.07-.61-1.82-2.07-1.73-1.73.1-3.28,1.59-3.47,3.33-.18,1.72.88,3.52,2.53,4.26,1.03.46,1.87.69,2.91.38.04-.01.07-.02.11-.02Z"/>
                  </g>
                  <path d="m125.52,46.58c-.09,0-.18-.03-.25-.1-.72-.67-1.33-1.45-1.81-2.32-.1-.18-.03-.4.15-.5.18-.1.4-.03.5.15.44.8,1,1.52,1.66,2.13.15.14.16.37.02.52-.07.08-.17.12-.27.12Z"/>
                </g>
              </g>
              <path d="m137.14,53.16c-2.12-.3-4.19-1.25-5.6-2.87-1.9-2.19-2.38-5.33-1.93-8.19.24-1.54.72-3.02,1.3-4.47.36-.91,1.27-2.38.59-3.37-1.22-1.78-6.8,2.01-8.04,2.89,1.52,3.27,2.77,6.61,1.9,10.11-.79,3.16-2.55,6.35-1.65,9.47.51,1.76,1.83,3.21,3.39,4.15,1.57.95,3.37,1.44,5.17,1.75,2.23.38,4.65.48,6.62-.63,1.58-.89,2.28-2.14,2.95-3.83.67-1.69,1.84-4.36,2.12-6.15-2.12,1.42-4.7,1.44-6.82,1.14Z"/>
            </g>
            <g>
              <g>
                <path class="cls-2" d="m159.71,105.56s33.44,5.09,61.21-21.17c-6.63-3.79-10.7-10.59-12.86-19.62,0,0-11.31,11.02-22.12,11.03-9.38,0-29.66-9.94-50.66-11.35-.41,1.33-1.01,2.61-1.89,3.69-1.7,2.09-4.41,3.24-7.02,3.66-2.5.4-5.13.26-7.58-.42-2.2-.61-4.34-1.72-5.96-3.34-.75-.74-1.36-1.59-1.82-2.51-15.18,1.21-24.74,3.05-32.75,12.84-10.33,12.62-18.95,36.35-16.44,51.33,2.51,14.98,9.4,19.62,18.19,22.51l-.38,8.1c-.43,8.98,8.45,15.47,16.88,12.35l70.19-26c3.41-1.26,5.2-5.02,4.04-8.47l-11.02-32.62Z"/>
                <path d="m159.55,105.28c-.15,0-.3-.1-.35-.25l-1.89-5.65c-.06-.19.04-.4.23-.47.19-.07.4.04.47.23l1.89,5.65c.06.19-.04.4-.23.47-.04.01-.08.02-.12.02Z"/>
              </g>
              <g>
                <path class="cls-1" d="m208.7,64.51c9.31-8.5,17.87-18.02,28.59-24.67.94-.58,1.95-1.16,3.05-1.25s2.34.44,2.72,1.48c.38,1.06-.21,2.2-.84,3.13-1.98,2.92-4.87,5.95-7.84,7.86,0,0,4.91.75,4.66,5.37,0,0,2.9.52,1.58,6.1,0,0,1.64,4.37-2.27,6.82-2.81,1.76-4.67,1.06-4.67,1.06,0,0-9.41,11.78-15.54,15.82-6.13,4.04-14.45-17.15-9.43-21.73Z"/>
                <path d="m221.5,83.96c-.1,0-.2-.04-.28-.12-.14-.15-.12-.39.03-.52,5.62-4.99,12.08-13.05,12.14-13.13.1-.13.27-.17.42-.12.01,0,1.74.6,4.34-1.03,3.6-2.25,2.18-6.21,2.12-6.38-.03-.07-.03-.14-.01-.21.64-2.73.23-4.13-.23-4.83-.46-.7-1.06-.83-1.06-.83-.18-.03-.31-.2-.3-.38.23-4.22-4.16-4.96-4.34-4.99-.15-.02-.27-.14-.3-.29s.03-.3.16-.39c2.76-1.78,5.65-4.68,7.74-7.76.51-.75,1.14-1.85.8-2.8-.33-.91-1.45-1.31-2.34-1.24-1.02.09-1.95.62-2.89,1.2-7.95,4.92-15.38,12.06-22.56,18.96-2.06,1.98-4.01,3.85-5.97,5.67-.15.14-.38.13-.52-.02-.14-.15-.13-.38.02-.52,1.95-1.81,3.9-3.68,5.96-5.66,7.21-6.93,14.67-14.09,22.69-19.05.98-.61,2.03-1.21,3.22-1.31,1.19-.1,2.64.46,3.1,1.72.45,1.27-.29,2.58-.89,3.47-1.97,2.9-4.64,5.65-7.26,7.5,1.43.46,4.19,1.79,4.15,5.26.32.13.82.42,1.24,1.05.77,1.17.89,2.95.35,5.3.23.73,1.3,4.8-2.46,7.15-2.35,1.47-4.09,1.31-4.73,1.17-1.01,1.25-6.89,8.43-12.07,13.03-.07.06-.16.09-.25.09Z"/>
                <path d="m231.4,67.28c-.71,0-1.37-.2-1.9-.6-.6-.45-.98-1.21-1-2-.02-.69.23-1.29.71-1.7.16-.13.39-.11.52.04.13.16.11.39-.04.52-.3.25-.46.65-.45,1.11.02.57.29,1.12.71,1.43.88.66,2.15.5,3.02.05.94-.48,1.67-1.28,2.48-2.33.92-1.2,2.06-2.81,2.64-4.67.2-.65.33-1.3.37-1.94.01-.2.2-.36.39-.34.2.01.36.19.34.39-.05.7-.18,1.42-.4,2.12-.62,1.97-1.8,3.65-2.76,4.9-.75.98-1.6,1.96-2.73,2.54-.62.32-1.27.48-1.9.48Z"/>
                <path d="m222.78,64.83c-.89,0-1.77-.36-2.19-1.18-.09-.18-.02-.4.16-.5.18-.09.4-.02.5.16.41.79,1.59.95,2.45.6.81-.33,1.44-.97,2.11-1.64.11-.11.23-.23.34-.34.76-.75,1.8-1.61,3.07-1.69.72-.04,1.39.17,2.04.38.66.21,1.29.41,1.91.33.59-.08,1.12-.44,1.49-1.02.47-.75.61-1.71.36-2.52-.57-1.8-2.41-2.78-3.45-3.21-1.92-.78-4.01-1.02-6.06-.68-.2.03-.39-.1-.42-.31-.03-.2.1-.39.31-.42,2.18-.36,4.41-.1,6.45.73,1.17.47,3.22,1.58,3.88,3.67.32,1.01.15,2.21-.44,3.14-.49.77-1.2,1.25-2.01,1.36-.78.11-1.52-.13-2.23-.35-.61-.19-1.2-.38-1.77-.34-1.02.06-1.92.82-2.59,1.48-.11.11-.22.22-.34.33-.69.69-1.41,1.41-2.35,1.8-.37.15-.78.23-1.2.23Z"/>
                <path d="m232.89,69.62c-.45,0-.87-.08-1.25-.25-.87-.38-1.48-1.21-1.52-2.08,0-.2.15-.38.36-.38.21,0,.38.15.38.36.02.59.45,1.16,1.07,1.43.56.24,1.27.25,1.99.01.71-.23,1.36-.66,1.9-1.05,1.82-1.31,3.06-2.67,3.8-4.16.09-.18.31-.26.5-.17.18.09.26.31.17.5-.8,1.6-2.12,3.05-4.03,4.43-.59.42-1.3.89-2.11,1.15-.42.14-.85.21-1.26.21Z"/>
                <path d="m233.56,70.58c-.09,0-.19-.04-.26-.11-.27-.27-.49-.59-.64-.95-.08-.19,0-.4.19-.49.19-.08.4,0,.49.19.11.26.28.51.49.72.14.14.14.38,0,.52-.07.07-.17.11-.26.11Z"/>
              </g>
              <polygon points="148.19 128.76 110.44 128.76 124.55 81.2 162.31 81.2 148.19 128.76"/>
              <g>
                <g>
                  <path class="cls-1" d="m142.62,116.46c1.52-1.46,2.45-3.06,1.48-4.62-.97-1.56-3.41-1.92-4.79-.71,1.02-.81,2.08-1.65,2.7-2.79.62-1.15.71-2.69-.15-3.67-.76-.86-2.05-1.08-3.17-.83-.55.12-1.07.34-1.57.6.49-.73.62-1.76.21-2.56-.7-1.36-2.42-1.94-3.94-1.77-1.52.17-2.9.94-4.24,1.69-8.93,5.03-26.56,15.23-26.56,15.23-.46,2.54,8.83,22.99,12.35,26.4,2.28-.68,19.33-14.35,25.79-19.89,1.08-.93,2.2-1.91,2.75-3.23.55-1.32.35-3.07-.84-3.86Z"/>
                  <path d="m126.64,111.59c-.12,0-.25-.06-.32-.18-.11-.17-.05-.4.12-.51,3.26-2.01,6.53-4.11,9.71-6.24.17-.11.4-.07.51.1.11.17.07.4-.1.51-3.19,2.14-6.46,4.24-9.73,6.25-.06.04-.13.05-.19.05Z"/>
                  <path d="m130.77,117.72c-.12,0-.23-.05-.3-.15-.12-.17-.08-.4.09-.52l8.42-6.02c.17-.12.4-.08.52.09.12.17.08.4-.09.52l-8.42,6.02c-.07.05-.14.07-.21.07Z"/>
                  <path d="m134.72,122.74c-.12,0-.23-.06-.31-.16-.11-.17-.07-.4.1-.51,2.55-1.73,5.06-3.6,7.44-5.56.16-.13.39-.11.52.05.13.16.11.39-.05.52-2.4,1.97-4.92,3.86-7.49,5.6-.06.04-.14.06-.21.06Z"/>
                </g>
                <path d="m87.93,153.63c-2.4,0-4.81-.19-7.2-.58-.2-.03-.34-.22-.31-.42.03-.2.22-.34.42-.31,11.77,1.91,24.02-1.04,33.62-8.1.16-.12.4-.09.52.08.12.16.09.4-.08.52-7.81,5.75-17.35,8.82-26.98,8.82Z"/>
                <path d="m82.66,128.97c-.13,0-.25-.07-.32-.18-.1-.18-.04-.4.14-.5l18.93-10.94c.18-.1.4-.04.5.13.1.18.04.4-.14.5l-18.93,10.94c-.06.03-.12.05-.18.05Z"/>
                <path d="m88.72,124.12s-.05,0-.07,0c-.2-.04-.33-.24-.29-.44l5.1-24.86c.04-.2.23-.33.44-.29.2.04.33.24.29.44l-5.1,24.86c-.04.18-.19.3-.36.3Z"/>
              </g>
            </g>
            <g>
              <path class="cls-1" d="m162.68,131.47l-74.03,35.68s-.1,3.51-.26,9.65h87.82c-7.81-28.21-13.54-45.33-13.54-45.33Z"/>
              <path d="m176.21,177.17c-.16,0-.31-.11-.36-.27-2.93-10.57-5.89-20.78-8.81-30.36-.06-.2.05-.4.25-.46.2-.06.4.05.46.25,2.92,9.58,5.89,19.8,8.82,30.38.05.2-.06.4-.26.45-.03,0-.07.01-.1.01Z"/>
              <path d="m88.39,177.17s0,0,0,0c-.2,0-.37-.17-.36-.38l.1-3.94c0-.2.17-.36.37-.36,0,0,0,0,.01,0,.2,0,.36.18.36.38l-.1,3.94c0,.2-.17.36-.37.36Z"/>
              <path d="m135.88,177.17c-.2,0-.37-.17-.37-.37v-4.94c0-2.28.94-4.5,2.57-6.08l4.8-4.66c.15-.14.38-.14.52,0,.14.15.14.38,0,.52l-4.8,4.66c-1.49,1.45-2.35,3.47-2.35,5.55v4.94c0,.2-.17.37-.37.37Z"/>
            </g>
          </g>
        </g>
        <g>
          <g>
            <rect class="cls-1" x="285.9" y="160.16" width="150.77" height="99.1" rx="14.31" ry="14.31"/>
            <path d="m431.37,259.63h-140.19c-3.12,0-5.66-2.54-5.66-5.66v-88.52c0-3.12,2.54-5.66,5.66-5.66h140.19c3.12,0,5.66,2.54,5.66,5.66v88.52c0,3.12-2.54,5.66-5.66,5.66Zm-140.19-99.1c-2.71,0-4.92,2.21-4.92,4.92v88.52c0,2.71,2.21,4.92,4.92,4.92h140.19c2.71,0,4.92-2.21,4.92-4.92v-88.52c0-2.71-2.21-4.92-4.92-4.92h-140.19Z"/>
          </g>
          <g>
            <path d="m342.61,188.17s-9.17-5.69-6.61-9.71c2.57-4.01,14.54.88,2.62-10.88-11.92-11.76-6.96-19.4-3.63-24.17,2.79-4,17.99-13.68,34.97,1.76,16.98,15.44,9.98,20.94,42.43,28.53s-14.56,46.26-69.78,14.46Z"/>
            <g>
              <g>
                <g>
                  <path class="cls-1" d="m428.34,235.45c-2.77-18.28-9.41-47.32-24.81-51.44-26.13-6.99-102.77-1.44-102.77-1.44l-7.71-17.49c-13.8,3.74-24.84,11.78-21.86,22.54,4.58,16.5,10.84,27.27,21.79,28.67,9.6,1.23,17.48,1.31,17.48,1.31l-8.19,33.13h107.77c12.96,0,19.5-7.24,18.29-15.27Z"/>
                  <path d="m410.06,251.09h-107.77c-.11,0-.22-.05-.29-.14-.07-.09-.1-.21-.07-.32l8.08-32.68c-1.83-.04-8.85-.25-17.06-1.3-10.1-1.29-16.91-10.21-22.1-28.93-.96-3.47-.55-6.81,1.24-9.94,3.16-5.55,10.77-10.31,20.88-13.05.18-.05.36.04.43.21l7.6,17.25c4.95-.35,77.5-5.26,102.63,1.47,14.85,3.97,21.83,30.33,25.08,51.74.54,3.59-.44,7.07-2.78,9.79-3.28,3.81-8.91,5.91-15.87,5.91Zm-107.3-.74h107.3c6.74,0,12.18-2.01,15.31-5.65,2.19-2.55,3.12-5.82,2.61-9.19-1.87-12.33-4.44-22.75-7.65-30.95-4.54-11.61-10.22-18.41-16.89-20.19-25.77-6.9-101.88-1.48-102.65-1.42-.16,0-.3-.08-.36-.22l-7.58-17.2c-9.77,2.7-17.09,7.29-20.13,12.62-1.68,2.95-2.07,6.11-1.16,9.38,5.1,18.39,11.73,27.15,21.48,28.4,9.47,1.21,17.36,1.3,17.43,1.3.11,0,.22.05.29.14.07.09.09.21.07.32l-8.08,32.68Z"/>
                </g>
                <path d="m299.15,186.33c-.05,0-.11-.01-.16-.04-.18-.09-.26-.31-.18-.49l1.63-3.45c.09-.18.31-.26.49-.18.18.09.26.31.18.49l-1.63,3.45c-.06.13-.2.21-.33.21Z"/>
                <path d="m310.84,216.62s-.06,0-.1-.01c-.2-.05-.31-.26-.26-.45.41-1.55.84-3.15.67-4.75-.18-1.7-1.12-3.11-2.4-3.6-.19-.07-.29-.29-.21-.48.07-.19.29-.29.48-.21,1.53.59,2.66,2.24,2.87,4.21.18,1.73-.28,3.48-.69,5.02-.04.17-.19.27-.36.27Z"/>
                <g>
                  <path d="m399.84,228.4c-.18,0-.33-.13-.36-.31-1.12-6.67-2.55-13.36-4.24-19.9-.05-.2.07-.4.26-.45.2-.05.4.07.45.27,1.7,6.56,3.13,13.28,4.25,19.96.03.2-.1.39-.3.43-.02,0-.04,0-.06,0Z"/>
                  <path d="m389.37,231.19c-.11,0-.14-.01-.17-.03-.18-.1-.24-.33-.14-.5.08-.13.22-.2.36-.19.62-.03,8.47-1.22,13.65-2.02.2-.03.39.11.42.31.03.2-.11.39-.31.42-11.16,1.73-13.32,2.01-13.82,2.01Z"/>
                </g>
              </g>
              <path d="m333.87,250.46h39.57l-12.91-41.98c-.44-1.42-1.75-2.38-3.23-2.38h-33.08c-1.98,0-3.4,1.92-2.82,3.82l12.47,40.55Z"/>
              <g>
                <g>
                  <path class="cls-1" d="m387.82,230.84s7.98,10.15,7.28,19.99l-51.5-.18s-1.39-.11-2.5-.83c-1.16-.75-.81-2.55.55-2.83l2.7-.57s-6.26-.91-6.64-3.27c-.37-2.36,1.61-2.25,6.75-1.29,5.14.97,13.76-.37,16.49-1.5,2.73-1.12,4.03-3.78,4.99-7.73.96-3.95.49-8.24,3.06-7.89,2.57.35,2.82,7.89,2.82,7.89l16.01-1.8Z"/>
                  <path d="m395.1,251.19h0l-51.5-.18c-.09,0-1.52-.12-2.7-.89-.66-.43-.98-1.17-.84-1.95.15-.79.73-1.39,1.51-1.55l.92-.2c-1.98-.47-4.87-1.46-5.15-3.22-.13-.82,0-1.41.41-1.8.87-.84,2.79-.65,6.77.1,5.12.96,13.62-.38,16.28-1.48,2.33-.96,3.71-3.13,4.77-7.47.27-1.11.42-2.24.57-3.32.19-1.38.35-2.58.71-3.45.44-1.06,1.18-1.53,2.19-1.4,2.53.34,3.03,6.13,3.12,7.84l15.61-1.76c.13-.02.25.04.33.14.33.42,8.06,10.38,7.36,20.24-.01.19-.17.34-.37.34Zm-55.4-9.61c-.68,0-1.18.1-1.43.35-.22.21-.28.59-.19,1.16.27,1.71,4.66,2.72,6.33,2.96.18.03.31.18.32.35,0,.18-.12.34-.29.37l-2.7.57c-.58.12-.86.58-.94.96-.07.37.03.89.51,1.2,1.03.66,2.32.77,2.33.77l51.12.18c.44-8.8-6.11-17.91-7.1-19.23l-15.8,1.78c-.1.01-.21-.02-.28-.09-.08-.07-.12-.16-.13-.27-.09-2.8-.86-7.31-2.5-7.54-.68-.09-1.08.18-1.4.95-.33.79-.48,1.94-.66,3.27-.14,1.05-.3,2.25-.58,3.4-.82,3.37-2.01,6.67-5.2,7.98-2.73,1.12-11.45,2.51-16.7,1.52-1.85-.35-3.53-.64-4.69-.64Z"/>
                </g>
                <path d="m395.1,251.19h0l-51.5-.18c-.09,0-1.52-.12-2.7-.89-.66-.43-.98-1.17-.84-1.95.15-.79.73-1.39,1.51-1.55l.92-.2c-1.98-.47-4.87-1.46-5.15-3.22-.13-.82,0-1.41.41-1.8.87-.84,2.79-.65,6.77.1,5.03.95,13.42-.39,16.05-1.48,2.33-.96,3.71-3.13,4.77-7.47.05-.2.25-.32.45-.27.2.05.32.25.27.45-.82,3.37-2.01,6.67-5.2,7.98-2.64,1.09-11.11,2.53-16.47,1.52-2.94-.55-5.44-.96-6.12-.29-.22.21-.28.59-.19,1.16.27,1.71,4.66,2.72,6.33,2.96.18.03.31.18.32.35,0,.18-.12.34-.29.37l-2.7.57c-.58.12-.86.58-.94.96-.07.37.03.89.51,1.2,1.03.66,2.32.77,2.33.77l51.47.18c.2,0,.37.17.37.37,0,.2-.17.37-.37.37Z"/>
                <path d="m346.49,246.89c-.43,0-.86,0-1.29-.01-.2,0-.37-.17-.36-.38,0-.2.17-.36.37-.36h0c4.08.07,8.2-.19,12.25-.76.2-.03.39.11.42.31.03.2-.11.39-.31.42-3.66.52-7.37.78-11.07.78Z"/>
              </g>
              <g>
                <g>
                  <path class="cls-1" d="m293.02,166.19l-21.13-49.95c-.63-1.49-2.59-1.84-3.7-.66-.54.58-.74,1.4-.51,2.17l3.56,12.04c-7.73-.42-6.77,5.68-6.77,5.68-3.94-1.58-5.07,4.28-5.07,4.28-3.1.48-4.31,4.06-2.29,10.28,2.37,7.33,6.29,4.57,6.29,4.57.74,6.58,3.88,19.07,7.81,32.98,5.6-2.66,15.1-8.74,21.81-21.37Z"/>
                  <path d="m271.21,187.93c-.05,0-.1-.01-.15-.03-.1-.05-.17-.13-.2-.24-4.4-15.57-7.01-26.5-7.76-32.5-.54.23-1.45.48-2.5.13-1.62-.54-2.91-2.28-3.85-5.16-1.28-3.96-1.35-7.05-.18-8.94.57-.93,1.44-1.54,2.52-1.77.19-.8.92-3.28,2.65-4.23.7-.38,1.48-.47,2.32-.25-.02-.84.13-2.42,1.28-3.7,1.14-1.26,2.95-1.88,5.39-1.84l-3.41-11.54c-.26-.88-.03-1.85.6-2.52.61-.65,1.49-.94,2.36-.79.87.16,1.6.74,1.95,1.55l21.13,49.95c.04.1.04.22-.01.32-6.86,12.92-16.71,19.04-21.97,21.53-.05.02-.1.04-.16.04Zm-7.82-33.72c.05,0,.1.01.15.03.12.05.2.17.22.29.65,5.78,3.23,16.71,7.68,32.49,5.24-2.56,14.57-8.55,21.16-20.86l-21.06-49.79c-.25-.59-.77-1-1.39-1.11-.62-.11-1.26.1-1.69.56-.45.48-.62,1.18-.43,1.81l3.56,12.04c.03.12.01.24-.06.33-.07.09-.19.15-.31.14-2.46-.13-4.25.4-5.32,1.57-1.38,1.52-1.07,3.66-1.06,3.68.02.13-.03.26-.14.35-.1.08-.24.1-.37.05-.84-.34-1.57-.33-2.24.03-1.73.94-2.33,3.94-2.33,3.97-.03.15-.15.27-.31.3-.99.15-1.75.65-2.26,1.47-1.03,1.68-.94,4.63.26,8.33.84,2.61,2.01,4.23,3.37,4.68,1.28.43,2.32-.27,2.37-.3.06-.04.14-.07.21-.07Z"/>
                </g>
                <path d="m277.72,147.42c-.05,0-.1-.01-.15-.03-1.68-.77-2.28-2.83-2.68-4.19-.44-1.5-1.07-3.09-2.41-3.56-.31-.11-.66-.16-1.03-.2-.63-.08-1.28-.17-1.82-.6-.81-.64-1.03-1.91-.52-2.96.39-.8,1.14-1.45,2.21-1.94,2.34-1.06,5.16-.9,7.37.41.18.1.23.33.13.51-.1.18-.33.23-.51.13-2-1.19-4.57-1.33-6.69-.37-.92.41-1.54.95-1.85,1.59-.31.64-.28,1.58.32,2.05.38.3.9.37,1.46.44.39.05.79.1,1.18.24,1.66.58,2.38,2.38,2.88,4.05.48,1.63,1.01,3.14,2.28,3.72.19.09.27.31.18.49-.06.13-.2.21-.34.21Z"/>
                <path d="m271.9,146.63c-1.08,0-2.17-.69-3.23-2.04-1.77-2.26-3-4.93-3.58-7.74-.04-.2.09-.4.29-.44.2-.04.39.09.44.29.55,2.7,1.74,5.27,3.44,7.43.99,1.26,1.95,1.85,2.85,1.75,1.04-.11,1.75-1.13,1.92-2.07.2-1.16-.22-2.38-.56-3.2-.08-.19.01-.4.2-.48.19-.08.4.01.48.2.37.9.84,2.26.6,3.61-.21,1.21-1.16,2.52-2.56,2.68-.09.01-.19.02-.28.02Z"/>
                <path d="m266.07,150.77c-.3,0-.6-.05-.9-.15-1.19-.4-1.93-1.52-2.49-2.56-1.18-2.19-2.07-4.53-2.66-6.94-.05-.2.07-.4.27-.45.2-.05.4.07.45.27.57,2.36,1.44,4.63,2.59,6.77.49.91,1.12,1.89,2.07,2.21,1.12.38,2.34-.29,2.97-1.15.61-.84.91-2,.9-3.46,0-.2.16-.37.37-.37h0c.2,0,.37.16.37.37.02,1.62-.33,2.93-1.04,3.9-.62.86-1.74,1.56-2.9,1.56Z"/>
                <path d="m263.84,154.34c-.09,0-.19-.03-.26-.1-.15-.14-.15-.38,0-.52.9-.92,1.16-2.44.62-3.61-.08-.19,0-.4.18-.49.19-.09.4,0,.49.18.67,1.46.35,3.29-.77,4.44-.07.07-.17.11-.26.11Z"/>
              </g>
            </g>
            <g>
              <g>
                <path class="cls-1" d="m344.59,163.87l4.93,15.95-14.2,1.11s6.55,7.98,20.57,7.84c20.7-.21,22.48-8.13,22.48-8.13l-14.37-.77-6.91-17.93-12.49,1.93Z"/>
                <path d="m355.52,189.15c-13.79,0-20.43-7.9-20.5-7.98-.09-.11-.11-.25-.05-.38.05-.13.17-.21.31-.22l13.74-1.08-4.79-15.51c-.03-.1-.02-.21.04-.3.06-.09.15-.15.26-.17l12.49-1.93c.17-.03.34.07.4.23l6.83,17.71,14.13.76c.11,0,.21.06.27.15.07.09.09.2.07.3-.08.34-2.08,8.21-22.84,8.42-.12,0-.24,0-.36,0Zm-19.41-7.9c1.76,1.76,8.12,7.17,19.41,7.17.12,0,.24,0,.36,0,17.38-.17,21.22-5.81,21.96-7.42l-13.87-.75c-.15,0-.27-.1-.32-.24l-6.81-17.65-11.77,1.82,4.8,15.54c.03.11.02.22-.05.32-.06.09-.16.15-.28.16l-13.44,1.05Z"/>
              </g>
              <g>
                <g>
                  <path class="cls-1" d="m339.44,163.06c1.45,3.21,4.29,6.01,7.78,6.48,2.52.34,5.14-.59,7.04-2.29,1.9-1.7,3.1-4.1,3.54-6.61,1.78.25,3.72-.5,4.7-2.01s.84-3.71-.47-4.96c-1.3-1.24-3.67-1.2-4.81.19-.3.37-.52.81-.89,1.11-.72.57-1.79.42-2.62.04-1.68-.76-2.96-2.36-3.33-4.17-1.97,1.15-3.95,2.41-6.18,2.86-4.29.88-6.6-.6-6.6-.6,0,0,.59,7.19,1.84,9.94Z"/>
                  <path d="m348.27,169.98c-.37,0-.73-.02-1.09-.07-3.31-.45-6.4-3.01-8.07-6.7-1.26-2.78-1.85-9.77-1.87-10.07-.01-.14.06-.27.18-.35.12-.07.27-.07.39,0,.02.01,2.25,1.38,6.32.55,1.94-.4,3.73-1.45,5.47-2.47l.6-.35c.1-.06.23-.07.34-.02.11.05.19.15.21.26.35,1.69,1.55,3.19,3.12,3.91.34.15,1.49.61,2.24,0,.2-.16.36-.39.53-.63.1-.14.2-.29.31-.42.58-.71,1.49-1.15,2.5-1.21,1.08-.07,2.12.29,2.85.99,1.4,1.34,1.63,3.72.52,5.43-.97,1.49-2.83,2.35-4.71,2.21-.53,2.58-1.79,4.88-3.59,6.48-1.76,1.57-4.03,2.45-6.25,2.45Zm-10.23-16.25c.18,1.82.76,6.99,1.75,9.17,1.22,2.71,3.84,5.78,7.49,6.27,2.33.32,4.85-.51,6.74-2.2,1.75-1.57,2.97-3.84,3.42-6.4.03-.2.22-.33.42-.3,1.72.24,3.46-.5,4.34-1.85.91-1.39.72-3.4-.41-4.49-.57-.55-1.43-.84-2.3-.79-.8.05-1.52.39-1.97.94-.1.12-.19.25-.27.37-.19.28-.39.56-.68.79-.73.58-1.85.61-3.01.09-1.63-.74-2.9-2.22-3.42-3.94l-.18.1c-1.78,1.05-3.63,2.13-5.69,2.56-3.14.65-5.26.07-6.24-.34Z"/>
                </g>
                <path d="m357.77,158.71s-.04,0-.06,0c-.2-.04-.34-.23-.3-.43.22-1.27,1.19-2.38,2.41-2.78.19-.06.4.04.47.24.06.19-.04.4-.24.47-.97.32-1.74,1.2-1.91,2.21-.03.18-.19.31-.36.31Z"/>
              </g>
            </g>
          </g>
        </g>
        <g>
          <rect class="cls-1" x="323.04" y="25.56" width="110.64" height="104.31" transform="translate(756.72 155.42) rotate(180)"/>
          <path d="m433.68,130.24h-8.62c-.2,0-.37-.17-.37-.37s.17-.37.37-.37h8.26V25.93h-109.9v73.47c0,.2-.17.37-.37.37s-.37-.17-.37-.37V25.56c0-.2.17-.37.37-.37h110.64c.2,0,.37.17.37.37v104.31c0,.2-.17.37-.37.37Z"/>
          <g>
            <g>
              <path class="cls-4" d="m323.04,129.87v-25.83s23.41-37.95,52.73-34.33l19.64-1.2s22.4,9.97,28.35,16.47c10.35,11.31,2.82,56.24-20.92,60.35-14.57,2.52-22.81-15.92-22.81-15.92l-56.99.46Z"/>
              <path class="cls-1" d="m354.44,129.12c-.24,0-.45-.15-.53-.39-2.82-9.01-5.24-18.27-7.19-27.52-.06-.3.13-.59.43-.66.3-.06.59.13.66.43,1.94,9.21,4.35,18.43,7.16,27.41.09.29-.07.6-.36.69-.06.02-.11.03-.17.03Z"/>
              <path class="cls-1" d="m403.44,123.89c-.2,0-.39-.11-.49-.3-3.03-5.78-5.94-11.73-8.65-17.68-.13-.28,0-.61.27-.73.28-.13.61,0,.73.27,2.57,5.65,5.33,11.29,8.19,16.79.25.04.44.25.46.51l.04.55c.02.26-.15.5-.4.57-.05.01-.1.02-.15.02Z"/>
              <path class="cls-1" d="m395.89,68.46l-.44-3h-23.77l-.55,4.62c-.16,1.32.32,2.64,1.29,3.56l4.33,4.08,16.98-5.72c1.48-.5,2.39-1.98,2.17-3.53Z"/>
              <path d="m371.13,70.44s-.03,0-.04,0c-.2-.02-.35-.21-.32-.41l.55-4.62c.02-.19.18-.33.37-.33h23.77c.18,0,.34.13.37.32l.44,3c.03.2-.11.39-.31.42-.2.03-.39-.11-.42-.31l-.39-2.69h-23.13l-.51,4.29c-.02.19-.18.33-.37.33Z"/>
              <path class="cls-1" d="m379.79,129.02c-.19,0-.37-.09-.47-.27-2.56-4.19-4.46-8.73-5.66-13.49-.07-.3.11-.6.4-.67.3-.07.6.11.67.4,1.17,4.65,3.03,9.08,5.53,13.18.16.26.08.6-.18.76-.09.06-.19.08-.29.08Z"/>
              <g>
                <path class="cls-1" d="m373.96,113.61s-3.12-14.13-3.09-18.91c0,0-6.13-6.75-7.76-9.11,0,0-3.68-.4-3.24-2.71.45-2.31,2.11-2.21,2.11-2.21,0,0-.18-3.59,3.2-2.95,0,0-1.01-3.5,2.51-2.38,0,0-.56-1.84-2.09-3.74-1.83-2.28-4.66-4.79-4.16-6.13.32-.86,1.49-1.2,4.05.24,3.98,2.24,9.57,7.49,12.06,10.55,2.88,3.54,16.29,27.7,16.29,27.7,0,0-5.19,9.61-19.87,9.66Z"/>
                <path d="m393.84,104.32c-.13,0-.26-.07-.32-.19-.13-.24-13.43-24.18-16.25-27.65-2.29-2.81-7.86-8.15-11.95-10.46-1.87-1.06-2.74-1-3.09-.87-.21.08-.35.22-.43.43-.29.79,1.22,2.48,2.55,3.97.53.59,1.07,1.2,1.55,1.8,1.55,1.93,2.13,3.79,2.16,3.87.04.13,0,.27-.09.37-.1.1-.24.13-.37.09-.62-.2-1.45-.35-1.85.04-.47.45-.29,1.54-.19,1.89.04.12,0,.26-.08.35s-.22.14-.34.11c-.85-.16-1.52-.04-1.97.36-.85.73-.79,2.2-.79,2.22,0,.1-.04.21-.11.28-.08.07-.18.11-.28.11-.05,0-1.35-.03-1.72,1.91-.08.41,0,.76.22,1.07.72.98,2.67,1.21,2.69,1.21.2.02.35.21.33.41-.02.2-.2.35-.41.33-.09-.01-2.29-.26-3.21-1.5-.35-.48-.47-1.03-.35-1.65.36-1.89,1.5-2.36,2.1-2.47.03-.58.2-1.73,1.03-2.46.53-.46,1.22-.66,2.07-.6-.08-.59-.09-1.52.49-2.08.42-.41,1.05-.54,1.88-.4-.29-.68-.85-1.83-1.78-2.98-.47-.58-1.01-1.18-1.53-1.77-1.68-1.89-3.14-3.51-2.7-4.72.15-.42.45-.72.87-.87.84-.31,2.09,0,3.71.92,4.17,2.35,9.84,7.78,12.16,10.64,2.86,3.52,15.78,26.77,16.33,27.75.1.18.03.4-.14.5-.06.03-.12.05-.18.05Z"/>
                <path d="m373.96,96.14c-1.13,0-2.24-.34-3.18-.96-.17-.11-.22-.34-.1-.51.11-.17.34-.21.51-.1.91.61,2.01.9,3.1.83.21-.02.38.14.39.34.01.2-.14.38-.34.39-.13,0-.25.01-.38.01Z"/>
                <path d="m363.55,86.42c-.12,0-.23-.06-.3-.16l-1.27-1.83c-.12-.17-.07-.4.09-.51.17-.12.4-.07.51.09l1.27,1.83c.12.17.07.4-.09.51-.06.04-.14.07-.21.07Z"/>
                <path d="m364.08,82.02c-.09,0-.19-.04-.26-.11-.5-.5-1.2-.82-1.91-.86-.2-.01-.36-.19-.35-.39.01-.2.19-.36.39-.35.89.05,1.76.44,2.39,1.07.14.14.14.38,0,.52-.07.07-.17.11-.26.11Z"/>
                <path d="m366.93,79.33c-.09,0-.17-.03-.24-.09-.56-.49-1.18-.88-1.87-1.16-.19-.08-.28-.29-.2-.48.08-.19.29-.28.48-.2.76.31,1.46.74,2.08,1.29.15.13.17.37.03.52-.07.08-.18.13-.28.13Z"/>
                <path d="m369.51,76.83c-.06,0-.12-.02-.18-.05l-2.23-1.27c-.18-.1-.24-.33-.14-.5.1-.18.33-.24.5-.14l2.23,1.27c.18.1.24.33.14.5-.07.12-.19.19-.32.19Z"/>
              </g>
            </g>
            <g>
              <g>
                <path class="cls-1" d="m387.84,53.34v12.83l-12.17,3.94v-10.74s8.94-6.88,12.17-6.03Z"/>
                <path d="m375.67,70.48c-.08,0-.15-.02-.22-.07-.1-.07-.15-.18-.15-.3v-10.74c0-.11.05-.22.14-.29.37-.29,9.13-6.99,12.49-6.1.16.04.28.19.28.36v12.83c0,.16-.1.3-.26.35l-12.17,3.94s-.08.02-.11.02Zm.37-10.92v10.05l11.43-3.7v-12.26c-2.64-.28-8.95,4.03-11.43,5.91Z"/>
              </g>
              <path d="m398.15,49.33c1.88-2.26,2.73-5.53,1.56-8.23-.69-1.6-1.98-2.84-3.08-4.19-1.94-2.39-3.31-5.17-4.86-7.83-1.55-2.66-3.36-5.26-5.91-6.99-3.02-2.05-6.98-2.66-10.48-1.61-3.5,1.05-6.48,3.73-7.88,7.1-.98,2.35-1.17,5.16.14,7.35,1.46,2.45,4.36,3.53,6.79,5.02,3.35,2.04,5.98,5.01,8.71,7.77,1.35,1.36,2.73,2.7,4.25,3.86.77.59,1.58,1.14,2.42,1.62,1.05.6,1.46.46,2.58.02,2.18-.85,4.25-2.08,5.76-3.89Z"/>
              <g>
                <path class="cls-1" d="m386.53,45.36c.16-1.39.85-2.65,1.54-3.87-3.7-2.29-7.53-4.35-11.48-6.17-2.18-1.01-4.78.22-5.32,2.56-.35,1.53-.87,3.05-1.41,4.52-1.07,2.96-2.25,5.95-2.39,9.09-.14,3.14.95,6.55,3.57,8.3,1.51,1.01,3.37,1.38,5.19,1.4,3.5.05,7.16-1.23,9.29-4,.45-.58,2.43-2.46,2.43-2.46,0,0,1.99.39,4.61-1.52,1.64-1.19,2.26-2.92,1.28-4.66-.42-.74-1.12-1.28-1.95-1.49-1.7-.43-2.36.87-3.78,1.23-1.43.35-1.68-1.92-1.57-2.93Z"/>
                <path d="m376.42,61.57c-.07,0-.14,0-.21,0-2.17-.03-3.98-.52-5.39-1.46-2.95-1.97-3.86-5.75-3.73-8.62.14-2.96,1.17-5.79,2.17-8.52l.25-.69c.52-1.42,1.04-2.95,1.4-4.48.28-1.21,1.08-2.21,2.21-2.76,1.15-.56,2.47-.58,3.63-.05,3.95,1.82,7.83,3.9,11.53,6.19.17.1.22.32.13.5-.63,1.12-1.34,2.39-1.49,3.73h0c-.08.74.06,1.99.55,2.41.16.14.34.17.57.11.48-.12.86-.36,1.27-.61.69-.43,1.48-.92,2.7-.62.92.23,1.71.84,2.18,1.67,1.02,1.81.49,3.78-1.39,5.14-2.28,1.65-4.11,1.66-4.7,1.61-.71.68-1.95,1.88-2.27,2.3-2,2.6-5.5,4.14-9.37,4.14Zm-1.45-26.23c-.53,0-1.05.12-1.54.36-.92.45-1.58,1.28-1.81,2.27-.36,1.57-.9,3.12-1.42,4.57l-.25.69c-.98,2.68-1.99,5.45-2.12,8.3-.12,2.67.71,6.17,3.41,7.97,1.29.86,2.96,1.31,4.99,1.34,3.74.06,7.09-1.39,8.99-3.85.46-.6,2.39-2.43,2.47-2.51.09-.08.21-.12.33-.09.02,0,1.88.32,4.32-1.45,1.57-1.14,2.01-2.7,1.18-4.18-.36-.65-.99-1.13-1.71-1.31-.91-.23-1.44.1-2.12.53-.44.27-.89.55-1.48.7-.47.12-.9.02-1.23-.28-.85-.74-.86-2.45-.79-3.05.15-1.36.79-2.59,1.41-3.7-3.58-2.2-7.33-4.21-11.14-5.97-.46-.21-.96-.32-1.46-.32Zm11.56,10.03h0,0Z"/>
              </g>
              <path d="m388.09,53.48s-.07,0-.11-.02c-.2-.06-.31-.27-.25-.46.43-1.43,2.04-2.41,3.51-2.13.2.04.33.23.3.43-.04.2-.23.33-.43.3-1.11-.21-2.33.53-2.66,1.62-.05.16-.19.26-.35.26Z"/>
              <path d="m379.41,51.27c-.33,0-.66-.05-.99-.14-2.13-.63-3.25-3.18-2.51-5.67h0c.36-1.2,1.09-2.21,2.05-2.84.99-.65,2.11-.84,3.15-.53,1.04.31,1.87,1.08,2.35,2.17.46,1.06.52,2.31.16,3.51-.63,2.11-2.4,3.52-4.21,3.52Zm-2.79-5.6c-.63,2.1.28,4.23,2.01,4.75,1.74.52,3.66-.77,4.28-2.88.31-1.03.26-2.1-.13-3-.38-.88-1.05-1.5-1.88-1.75-.83-.25-1.73-.09-2.53.44-.82.54-1.45,1.41-1.75,2.44Z"/>
              <g>
                <path class="cls-1" d="m367.38,41.84c-.69,2.3.33,4.63,2.26,5.21s4.06-.82,4.74-3.13c.69-2.3-.33-4.63-2.26-5.21-1.93-.58-4.06.82-4.74,3.13Z"/>
                <path d="m370.52,47.55c-.33,0-.66-.05-.99-.14-1.04-.31-1.87-1.08-2.35-2.17-.46-1.06-.52-2.31-.16-3.51.36-1.2,1.09-2.21,2.05-2.84.99-.65,2.11-.84,3.15-.53,2.13.63,3.25,3.18,2.51,5.67-.63,2.11-2.4,3.52-4.21,3.52Zm.71-8.59c-.59,0-1.19.19-1.74.55-.82.54-1.45,1.41-1.75,2.44-.31,1.03-.26,2.1.13,3,.38.88,1.05,1.5,1.88,1.75,1.74.52,3.66-.77,4.28-2.88.63-2.1-.28-4.23-2.01-4.75-.26-.08-.52-.11-.79-.11Zm-3.85,2.89h0,0Z"/>
              </g>
              <path d="m376.13,45.81c-.16,0-.31-.1-.35-.27-.18-.61-.88-1.03-1.5-.91-.2.04-.39-.09-.44-.29-.04-.2.09-.4.29-.44.99-.2,2.07.45,2.35,1.42.06.2-.06.4-.25.46-.03.01-.07.02-.1.02Z"/>
              <path d="m387.84,48.6s-.05,0-.08,0l-4.36-.95c-.2-.04-.33-.24-.28-.44.04-.2.24-.33.44-.28l4.36.95c.2.04.33.24.28.44-.04.17-.19.29-.36.29Z"/>
            </g>
          </g>
        </g>
      </g>
      <g>
        <path class="cls-1" d="m55.41,43.97c-.23,0-.45.02-.67.04-.55-2.23-1.43-4.33-2.59-6.25.18-.14.35-.28.51-.44,2.17-2.17,2.17-5.69,0-7.86-2.17-2.17-5.69-2.17-7.86,0-.16.16-.31.33-.45.51-1.92-1.16-4.02-2.04-6.25-2.59.03-.22.04-.45.04-.67,0-3.07-2.49-5.56-5.56-5.56s-5.56,2.49-5.56,5.56c0,.23.02.45.04.67-2.23.55-4.33,1.43-6.25,2.59-.14-.18-.28-.35-.45-.51-2.17-2.17-5.69-2.17-7.86,0-2.17,2.17-2.17,5.69,0,7.86.16.16.33.31.51.44-1.16,1.92-2.04,4.02-2.59,6.25-.22-.03-.45-.04-.67-.04-3.07,0-5.56,2.49-5.56,5.56s2.49,5.56,5.56,5.56c.23,0,.45-.02.67-.04.55,2.23,1.43,4.33,2.59,6.25-.18.14-.35.28-.51.44-2.17,2.17-2.17,5.69,0,7.86,2.17,2.17,5.69,2.17,7.86,0,.16-.16.31-.33.45-.51,1.92,1.16,4.02,2.04,6.25,2.59-.03.22-.04.45-.04.67,0,3.07,2.49,5.56,5.56,5.56s5.56-2.49,5.56-5.56c0-.23-.02-.45-.04-.67,2.23-.55,4.33-1.43,6.25-2.59.14.18.28.35.45.51,2.17,2.17,5.69,2.17,7.86,0,2.17-2.17,2.17-5.69,0-7.86-.16-.16-.33-.31-.51-.44,1.16-1.92,2.04-4.02,2.59-6.25.22.03.45.04.67.04,3.07,0,5.56-2.49,5.56-5.56s-2.49-5.56-5.56-5.56Zm-22.83,15.88c-5.7,0-10.33-4.62-10.33-10.32s4.62-10.32,10.33-10.32,10.33,4.62,10.33,10.32-4.62,10.32-10.33,10.32Z"/>
        <path d="m32.58,78.28c-3.27,0-5.93-2.66-5.93-5.93,0-.13,0-.26.02-.39-2.03-.53-3.96-1.33-5.77-2.39-.09.1-.18.2-.27.29-2.31,2.31-6.07,2.31-8.39,0-1.12-1.12-1.74-2.61-1.74-4.19s.62-3.07,1.74-4.19c.09-.09.19-.18.29-.27-1.05-1.8-1.86-3.74-2.39-5.77-.14.01-.27.02-.4.02-3.27,0-5.93-2.66-5.93-5.93s2.66-5.93,5.93-5.93c.13,0,.26,0,.4.02.53-2.02,1.33-3.96,2.39-5.77-.1-.09-.2-.18-.29-.27-1.12-1.12-1.74-2.61-1.74-4.19s.62-3.07,1.74-4.19c2.31-2.31,6.07-2.31,8.39,0,.09.09.18.19.27.29,1.81-1.05,3.74-1.86,5.77-2.39-.01-.14-.02-.27-.02-.4,0-3.27,2.66-5.93,5.93-5.93s5.93,2.66,5.93,5.93c0,.13,0,.26-.02.4,2.03.53,3.96,1.33,5.77,2.39.09-.1.18-.2.27-.29,2.31-2.31,6.07-2.31,8.39,0,1.12,1.12,1.74,2.61,1.74,4.19s-.62,3.07-1.74,4.19c-.09.09-.19.18-.29.27,1.05,1.81,1.86,3.74,2.39,5.77.14-.01.27-.02.4-.02,3.27,0,5.93,2.66,5.93,5.93s-2.66,5.93-5.93,5.93c-.13,0-.26,0-.4-.02-.53,2.03-1.33,3.96-2.39,5.77.1.09.2.18.29.27,1.12,1.12,1.74,2.61,1.74,4.19s-.62,3.07-1.74,4.19c-2.31,2.31-6.07,2.31-8.39,0-.09-.09-.18-.19-.27-.29-1.81,1.05-3.74,1.86-5.77,2.39.01.14.02.27.02.39,0,3.27-2.66,5.93-5.93,5.93Zm-11.77-9.56c.06,0,.13.02.19.05,1.91,1.15,3.98,2.01,6.15,2.55.18.04.3.22.28.4-.03.23-.04.44-.04.63,0,2.86,2.33,5.19,5.19,5.19s5.19-2.33,5.19-5.19c0-.19-.01-.4-.04-.63-.02-.19.1-.36.28-.4,2.17-.54,4.24-1.39,6.15-2.55.16-.1.37-.06.48.09.14.18.28.34.42.47,2.02,2.02,5.32,2.02,7.34,0,.98-.98,1.52-2.28,1.52-3.67s-.54-2.69-1.52-3.67c-.13-.13-.29-.27-.48-.42-.15-.12-.19-.32-.09-.48,1.15-1.91,2.01-3.98,2.55-6.15.05-.18.22-.3.4-.28.24.03.44.04.63.04,2.86,0,5.19-2.33,5.19-5.19s-2.33-5.19-5.19-5.19c-.19,0-.39.01-.63.04-.18.02-.36-.1-.4-.28-.54-2.17-1.4-4.24-2.55-6.15-.1-.16-.06-.37.09-.48.18-.14.34-.28.48-.42.98-.98,1.52-2.28,1.52-3.67s-.54-2.69-1.52-3.67c-2.02-2.02-5.32-2.02-7.34,0-.14.14-.27.29-.42.48-.11.15-.32.19-.48.09-1.91-1.15-3.98-2.01-6.15-2.55-.18-.04-.3-.22-.28-.4.03-.23.04-.44.04-.63,0-2.86-2.33-5.19-5.19-5.19s-5.19,2.33-5.19,5.19c0,.19.01.4.04.63.02.19-.1.36-.28.4-2.17.54-4.24,1.4-6.15,2.55-.16.1-.37.06-.48-.09-.14-.18-.28-.34-.42-.48-2.02-2.02-5.32-2.02-7.34,0-.98.98-1.52,2.28-1.52,3.67s.54,2.69,1.52,3.67c.13.13.29.27.48.42.15.12.19.32.09.48-1.15,1.91-2.01,3.98-2.55,6.15-.05.18-.22.3-.4.28-.24-.03-.44-.04-.63-.04-2.86,0-5.19,2.33-5.19,5.19s2.33,5.19,5.19,5.19c.19,0,.39-.01.63-.04.18-.02.36.1.4.28.54,2.17,1.4,4.24,2.55,6.15.1.16.06.37-.09.48-.19.15-.34.28-.48.42-.98.98-1.52,2.28-1.52,3.67s.54,2.69,1.52,3.67c2.02,2.02,5.32,2.02,7.34,0,.14-.14.27-.29.42-.47.07-.09.18-.14.29-.14Zm11.77-8.5c-5.9,0-10.7-4.8-10.7-10.69s4.8-10.69,10.7-10.69,10.7,4.8,10.7,10.69-4.8,10.69-10.7,10.69Zm0-20.64c-5.49,0-9.96,4.46-9.96,9.95s4.47,9.95,9.96,9.95,9.96-4.46,9.96-9.95-4.47-9.95-9.96-9.95Z"/>
      </g>
      <g>
        <g>
          <g>
            <rect class="cls-1" x=".42" y="105.13" width="76.17" height="139.4" rx="13.3" ry="13.3"/>
            <path d="m71.67,244.9H5.33c-2.91,0-5.29-2.37-5.29-5.29V110.05c0-2.91,2.37-5.29,5.29-5.29h66.34c2.91,0,5.29,2.37,5.29,5.29v129.57c0,2.91-2.37,5.29-5.29,5.29ZM5.33,105.5c-2.51,0-4.55,2.04-4.55,4.55v129.57c0,2.51,2.04,4.55,4.55,4.55h66.34c2.51,0,4.55-2.04,4.55-4.55V110.05c0-2.51-2.04-4.55-4.55-4.55H5.33Z"/>
          </g>
          <g>
            <path d="m24.62,144.1h-13.71c-.2,0-.37-.17-.37-.37s.17-.37.37-.37h13.71c.2,0,.37.17.37.37s-.17.37-.37.37Z"/>
            <path d="m65,144.1h-32.42c-.2,0-.37-.17-.37-.37s.17-.37.37-.37h32.42c.2,0,.37.17.37.37s-.17.37-.37.37Z"/>
            <path d="m65,132.88H10.91c-.2,0-.37-.17-.37-.37s.17-.37.37-.37h54.08c.2,0,.37.17.37.37s-.17.37-.37.37Z"/>
            <path d="m43.26,121.67H10.91c-.2,0-.37-.17-.37-.37s.17-.37.37-.37h32.34c.2,0,.37.17.37.37s-.17.37-.37.37Z"/>
            <path d="m65,121.67h-14.17c-.2,0-.37-.17-.37-.37s.17-.37.37-.37h14.17c.2,0,.37.17.37.37s-.17.37-.37.37Z"/>
          </g>
          <g>
            <path d="m65,168.54h-13.71c-.2,0-.37-.17-.37-.37s.17-.37.37-.37h13.71c.2,0,.37.17.37.37s-.17.37-.37.37Z"/>
            <path d="m43.33,168.54H10.91c-.2,0-.37-.17-.37-.37s.17-.37.37-.37h32.42c.2,0,.37.17.37.37s-.17.37-.37.37Z"/>
            <path d="m65,179.76H10.91c-.2,0-.37-.17-.37-.37s.17-.37.37-.37h54.08c.2,0,.37.17.37.37s-.17.37-.37.37Z"/>
          </g>
          <g>
            <path d="m65,204.51h-13.71c-.2,0-.37-.17-.37-.37s.17-.37.37-.37h13.71c.2,0,.37.17.37.37s-.17.37-.37.37Z"/>
            <path d="m43.33,204.51H10.91c-.2,0-.37-.17-.37-.37s.17-.37.37-.37h32.42c.2,0,.37.17.37.37s-.17.37-.37.37Z"/>
            <path d="m65,215.73H10.91c-.2,0-.37-.17-.37-.37s.17-.37.37-.37h54.08c.2,0,.37.17.37.37s-.17.37-.37.37Z"/>
            <path d="m65,226.95h-32.34c-.2,0-.37-.17-.37-.37s.17-.37.37-.37h32.34c.2,0,.37.17.37.37s-.17.37-.37.37Z"/>
            <path d="m25.08,226.95h-14.17c-.2,0-.37-.17-.37-.37s.17-.37.37-.37h14.17c.2,0,.37.17.37.37s-.17.37-.37.37Z"/>
          </g>
        </g>
        <g>
          <rect class="cls-1" x="51.59" y="233.65" width="28.09" height="28.11"/>
          <path d="m79.68,262.13h-28.09c-.2,0-.37-.17-.37-.37v-28.11c0-.2.17-.37.37-.37h26.48c.2,0,.37.17.37.37s-.17.37-.37.37h-26.11v27.37h27.35v-20.19c0-.2.17-.37.37-.37s.37.17.37.37v20.56c0,.2-.17.37-.37.37Z"/>
          <path d="m65.63,257.3c-.12,0-.23-.06-.3-.15l-11.01-15.42c-.12-.17-.08-.4.09-.52s.4-.08.52.09l10.71,15,18.88-26.33c.12-.17.35-.2.52-.08.17.12.2.35.08.52l-19.18,26.75c-.07.1-.18.15-.3.15Z"/>
        </g>
      </g>
    </g>
  </g>
</svg>